<?xml version="1.0" encoding="UTF-8" standalone="no"?><svg xmlns="http://www.w3.org/2000/svg" xmlns:xlink="http://www.w3.org/1999/xlink" clip-rule="evenodd" stroke-miterlimit="10" viewBox="0 0 1294 496"><desc>SVG generated by Keynote</desc><defs></defs><g transform="matrix(1.00, 0.00, -0.00, -1.00, 0.0, 496.0)"><text xml:space="preserve" font-family="ZapfDingbatsITC,Zapf Dingbats" font-size="36.4" fill="#5B86B8" transform="matrix(1.00, 0.00, -0.00, -1.00, 0.0, 462.2)">✤</text><text xml:space="preserve" font-family="Palatino-Roman,Palatino" font-size="52.0" fill="#000000" transform="matrix(1.00, 0.00, -0.00, -1.00, 54.7, 456.2)">P</text><text xml:space="preserve" font-family="Palatino-Roman,Palatino" font-size="52.0" fill="#000000" transform="matrix(1.00, 0.00, -0.00, -1.00, 86.1, 456.2)">r</text><text xml:space="preserve" font-family="Palatino-Roman,Palatino" font-size="52.0" fill="#000000" transform="matrix(1.00, 0.00, -0.00, -1.00, 105.8, 456.2)">o</text><text xml:space="preserve" font-family="Palatino-Roman,Palatino" font-size="52.0" fill="#000000" transform="matrix(1.00, 0.00, -0.00, -1.00, 134.2, 456.2)">b</text><text xml:space="preserve" font-family="Palatino-Roman,Palatino" font-size="52.0" fill="#000000" transform="matrix(1.00, 0.00, -0.00, -1.00, 162.9, 456.2)">l</text><text xml:space="preserve" font-family="Palatino-Roman,Palatino" font-size="52.0" fill="#000000" transform="matrix(1.00, 0.00, -0.00, -1.00, 178.1, 456.2)">e</text><text xml:space="preserve" font-family="Palatino-Roman,Palatino" font-size="52.0" fill="#000000" transform="matrix(1.00, 0.00, -0.00, -1.00, 203.0, 456.2)">m</text><text xml:space="preserve" font-family="Palatino-Roman,Palatino" font-size="52.0" fill="#000000" transform="matrix(1.00, 0.00, -0.00, -1.00, 248.9, 456.2)"> </text><text xml:space="preserve" font-family="Palatino-Roman,Palatino" font-size="52.0" fill="#000000" transform="matrix(1.00, 0.00, -0.00, -1.00, 261.9, 456.2)">s</text><text xml:space="preserve" font-family="Palatino-Roman,Palatino" font-size="52.0" fill="#000000" transform="matrix(1.00, 0.00, -0.00, -1.00, 283.9, 456.2)">o</text><text xml:space="preserve" font-family="Palatino-Roman,Palatino" font-size="52.0" fill="#000000" transform="matrix(1.00, 0.00, -0.00, -1.00, 312.3, 456.2)">l</text><text xml:space="preserve" font-family="Palatino-Roman,Palatino" font-size="52.0" fill="#000000" transform="matrix(1.00, 0.00, -0.00, -1.00, 327.4, 456.2)">u</text><text xml:space="preserve" font-family="Palatino-Roman,Palatino" font-size="52.0" fill="#000000" transform="matrix(1.00, 0.00, -0.00, -1.00, 358.8, 456.2)">t</text><text xml:space="preserve" font-family="Palatino-Roman,Palatino" font-size="52.0" fill="#000000" transform="matrix(1.00, 0.00, -0.00, -1.00, 375.7, 456.2)">i</text><text xml:space="preserve" font-family="Palatino-Roman,Palatino" font-size="52.0" fill="#000000" transform="matrix(1.00, 0.00, -0.00, -1.00, 390.9, 456.2)">o</text><text xml:space="preserve" font-family="Palatino-Roman,Palatino" font-size="52.0" fill="#000000" transform="matrix(1.00, 0.00, -0.00, -1.00, 419.3, 456.2)">n</text><text xml:space="preserve" font-family="Palatino-Roman,Palatino" font-size="52.0" fill="#000000" transform="matrix(1.00, 0.00, -0.00, -1.00, 449.5, 456.2)"> </text><text xml:space="preserve" font-family="Palatino-Roman,Palatino" font-size="52.0" fill="#000000" transform="matrix(1.00, 0.00, -0.00, -1.00, 462.5, 456.2)">i</text><text xml:space="preserve" font-family="Palatino-Roman,Palatino" font-size="52.0" fill="#000000" transform="matrix(1.00, 0.00, -0.00, -1.00, 477.7, 456.2)">s</text><text xml:space="preserve" font-family="Palatino-Roman,Palatino" font-size="52.0" fill="#000000" transform="matrix(1.00, 0.00, -0.00, -1.00, 499.7, 456.2)"> </text><text xml:space="preserve" font-family="Palatino-Roman,Palatino" font-size="52.0" fill="#000000" transform="matrix(1.00, 0.00, -0.00, -1.00, 512.7, 456.2)">n</text><text xml:space="preserve" font-family="Palatino-Roman,Palatino" font-size="52.0" fill="#000000" transform="matrix(1.00, 0.00, -0.00, -1.00, 542.9, 456.2)">a</text><text xml:space="preserve" font-family="Palatino-Roman,Palatino" font-size="52.0" fill="#000000" transform="matrix(1.00, 0.00, -0.00, -1.00, 568.9, 456.2)">i</text><text xml:space="preserve" font-family="Palatino-Roman,Palatino" font-size="52.0" fill="#000000" transform="matrix(1.00, 0.00, -0.00, -1.00, 584.1, 456.2)">v</text><text xml:space="preserve" font-family="Palatino-Roman,Palatino" font-size="52.0" fill="#000000" transform="matrix(1.00, 0.00, -0.00, -1.00, 613.5, 456.2)">e</text><text xml:space="preserve" font-family="Palatino-Roman,Palatino" font-size="52.0" fill="#000000" transform="matrix(1.00, 0.00, -0.00, -1.00, 638.4, 456.2)">l</text><text xml:space="preserve" font-family="Palatino-Roman,Palatino" font-size="52.0" fill="#000000" transform="matrix(1.00, 0.00, -0.00, -1.00, 653.5, 456.2)">y</text><text xml:space="preserve" font-family="Palatino-Roman,Palatino" font-size="52.0" fill="#000000" transform="matrix(1.00, 0.00, -0.00, -1.00, 682.4, 456.2)"> </text><text xml:space="preserve" font-family="Palatino-Roman,Palatino" font-size="52.0" fill="#000000" transform="matrix(1.00, 0.00, -0.00, -1.00, 695.4, 456.2)">s</text><text xml:space="preserve" font-family="Palatino-Roman,Palatino" font-size="52.0" fill="#000000" transform="matrix(1.00, 0.00, -0.00, -1.00, 717.5, 456.2)">i</text><text xml:space="preserve" font-family="Palatino-Roman,Palatino" font-size="52.0" fill="#000000" transform="matrix(1.00, 0.00, -0.00, -1.00, 732.6, 456.2)">m</text><text xml:space="preserve" font-family="Palatino-Roman,Palatino" font-size="52.0" fill="#000000" transform="matrix(1.00, 0.00, -0.00, -1.00, 778.5, 456.2)">p</text><text xml:space="preserve" font-family="Palatino-Roman,Palatino" font-size="52.0" fill="#000000" transform="matrix(1.00, 0.00, -0.00, -1.00, 809.7, 456.2)">l</text><text xml:space="preserve" font-family="Palatino-Roman,Palatino" font-size="52.0" fill="#000000" transform="matrix(1.00, 0.00, -0.00, -1.00, 824.9, 456.2)">e</text><text xml:space="preserve" font-family="ZapfDingbatsITC,Zapf Dingbats" font-size="36.4" fill="#5B86B8" transform="matrix(1.00, 0.00, -0.00, -1.00, 40.0, 352.2)">✤</text><text xml:space="preserve" font-family="Palatino-Roman,Palatino" font-size="52.0" fill="#000000" transform="matrix(1.00, 0.00, -0.00, -1.00, 94.7, 346.2)">F</text><text xml:space="preserve" font-family="Palatino-Roman,Palatino" font-size="52.0" fill="#000000" transform="matrix(1.00, 0.00, -0.00, -1.00, 123.7, 346.2)">i</text><text xml:space="preserve" font-family="Palatino-Roman,Palatino" font-size="52.0" fill="#000000" transform="matrix(1.00, 0.00, -0.00, -1.00, 138.8, 346.2)">l</text><text xml:space="preserve" font-family="Palatino-Roman,Palatino" font-size="52.0" fill="#000000" transform="matrix(1.00, 0.00, -0.00, -1.00, 153.9, 346.2)">l</text><text xml:space="preserve" font-family="Palatino-Roman,Palatino" font-size="52.0" fill="#000000" transform="matrix(1.00, 0.00, -0.00, -1.00, 169.1, 346.2)">i</text><text xml:space="preserve" font-family="Palatino-Roman,Palatino" font-size="52.0" fill="#000000" transform="matrix(1.00, 0.00, -0.00, -1.00, 184.2, 346.2)">n</text><text xml:space="preserve" font-family="Palatino-Roman,Palatino" font-size="52.0" fill="#000000" transform="matrix(1.00, 0.00, -0.00, -1.00, 214.5, 346.2)">g</text><text xml:space="preserve" font-family="Palatino-Roman,Palatino" font-size="52.0" fill="#000000" transform="matrix(1.00, 0.00, -0.00, -1.00, 243.4, 346.2)"> </text><text xml:space="preserve" font-family="Palatino-Roman,Palatino" font-size="52.0" fill="#000000" transform="matrix(1.00, 0.00, -0.00, -1.00, 256.4, 346.2)">a</text><text xml:space="preserve" font-family="Palatino-Roman,Palatino" font-size="52.0" fill="#000000" transform="matrix(1.00, 0.00, -0.00, -1.00, 282.4, 346.2)"> </text><text xml:space="preserve" font-family="Palatino-Roman,Palatino" font-size="52.0" fill="#000000" transform="matrix(1.00, 0.00, -0.00, -1.00, 295.4, 346.2)">k</text><text xml:space="preserve" font-family="Palatino-Roman,Palatino" font-size="52.0" fill="#000000" transform="matrix(1.00, 0.00, -0.00, -1.00, 324.3, 346.2)">n</text><text xml:space="preserve" font-family="Palatino-Roman,Palatino" font-size="52.0" fill="#000000" transform="matrix(1.00, 0.00, -0.00, -1.00, 354.6, 346.2)">a</text><text xml:space="preserve" font-family="Palatino-Roman,Palatino" font-size="52.0" fill="#000000" transform="matrix(1.00, 0.00, -0.00, -1.00, 380.6, 346.2)">p</text><text xml:space="preserve" font-family="Palatino-Roman,Palatino" font-size="52.0" fill="#000000" transform="matrix(1.00, 0.00, -0.00, -1.00, 411.9, 346.2)">s</text><text xml:space="preserve" font-family="Palatino-Roman,Palatino" font-size="52.0" fill="#000000" transform="matrix(1.00, 0.00, -0.00, -1.00, 433.9, 346.2)">a</text><text xml:space="preserve" font-family="Palatino-Roman,Palatino" font-size="52.0" fill="#000000" transform="matrix(1.00, 0.00, -0.00, -1.00, 459.9, 346.2)">c</text><text xml:space="preserve" font-family="Palatino-Roman,Palatino" font-size="52.0" fill="#000000" transform="matrix(1.00, 0.00, -0.00, -1.00, 482.9, 346.2)">k</text><text xml:space="preserve" font-family="ZapfDingbatsITC,Zapf Dingbats" font-size="36.4" fill="#5B86B8" transform="matrix(1.00, 0.00, -0.00, -1.00, 0.0, 242.2)">✤</text><text xml:space="preserve" font-family="Palatino-Roman,Palatino" font-size="52.0" fill="#000000" transform="matrix(1.00, 0.00, -0.00, -1.00, 54.7, 236.2)">N</text><text xml:space="preserve" font-family="Palatino-Roman,Palatino" font-size="52.0" fill="#000000" transform="matrix(1.00, 0.00, -0.00, -1.00, 98.0, 236.2)">a</text><text xml:space="preserve" font-family="Palatino-Roman,Palatino" font-size="52.0" fill="#000000" transform="matrix(1.00, 0.00, -0.00, -1.00, 124.0, 236.2)">i</text><text xml:space="preserve" font-family="Palatino-Roman,Palatino" font-size="52.0" fill="#000000" transform="matrix(1.00, 0.00, -0.00, -1.00, 139.1, 236.2)">v</text><text xml:space="preserve" font-family="Palatino-Roman,Palatino" font-size="52.0" fill="#000000" transform="matrix(1.00, 0.00, -0.00, -1.00, 168.5, 236.2)">e</text><text xml:space="preserve" font-family="Palatino-Roman,Palatino" font-size="52.0" fill="#000000" transform="matrix(1.00, 0.00, -0.00, -1.00, 193.4, 236.2)"> </text><text xml:space="preserve" font-family="Palatino-Roman,Palatino" font-size="52.0" fill="#000000" transform="matrix(1.00, 0.00, -0.00, -1.00, 206.4, 236.2)">s</text><text xml:space="preserve" font-family="Palatino-Roman,Palatino" font-size="52.0" fill="#000000" transform="matrix(1.00, 0.00, -0.00, -1.00, 228.4, 236.2)">o</text><text xml:space="preserve" font-family="Palatino-Roman,Palatino" font-size="52.0" fill="#000000" transform="matrix(1.00, 0.00, -0.00, -1.00, 256.8, 236.2)">l</text><text xml:space="preserve" font-family="Palatino-Roman,Palatino" font-size="52.0" fill="#000000" transform="matrix(1.00, 0.00, -0.00, -1.00, 271.9, 236.2)">u</text><text xml:space="preserve" font-family="Palatino-Roman,Palatino" font-size="52.0" fill="#000000" transform="matrix(1.00, 0.00, -0.00, -1.00, 303.3, 236.2)">t</text><text xml:space="preserve" font-family="Palatino-Roman,Palatino" font-size="52.0" fill="#000000" transform="matrix(1.00, 0.00, -0.00, -1.00, 320.2, 236.2)">i</text><text xml:space="preserve" font-family="Palatino-Roman,Palatino" font-size="52.0" fill="#000000" transform="matrix(1.00, 0.00, -0.00, -1.00, 335.4, 236.2)">o</text><text xml:space="preserve" font-family="Palatino-Roman,Palatino" font-size="52.0" fill="#000000" transform="matrix(1.00, 0.00, -0.00, -1.00, 363.8, 236.2)">n</text><text xml:space="preserve" font-family="Palatino-Roman,Palatino" font-size="52.0" fill="#000000" transform="matrix(1.00, 0.00, -0.00, -1.00, 394.0, 236.2)"> </text><text xml:space="preserve" font-family="Palatino-Roman,Palatino" font-size="52.0" fill="#000000" transform="matrix(1.00, 0.00, -0.00, -1.00, 407.0, 236.2)">l</text><text xml:space="preserve" font-family="Palatino-Roman,Palatino" font-size="52.0" fill="#000000" transform="matrix(1.00, 0.00, -0.00, -1.00, 422.2, 236.2)">e</text><text xml:space="preserve" font-family="Palatino-Roman,Palatino" font-size="52.0" fill="#000000" transform="matrix(1.00, 0.00, -0.00, -1.00, 447.1, 236.2)">a</text><text xml:space="preserve" font-family="Palatino-Roman,Palatino" font-size="52.0" fill="#000000" transform="matrix(1.00, 0.00, -0.00, -1.00, 473.1, 236.2)">d</text><text xml:space="preserve" font-family="Palatino-Roman,Palatino" font-size="52.0" fill="#000000" transform="matrix(1.00, 0.00, -0.00, -1.00, 504.8, 236.2)">s</text><text xml:space="preserve" font-family="Palatino-Roman,Palatino" font-size="52.0" fill="#000000" transform="matrix(1.00, 0.00, -0.00, -1.00, 526.8, 236.2)"> </text><text xml:space="preserve" font-family="Palatino-Roman,Palatino" font-size="52.0" fill="#000000" transform="matrix(1.00, 0.00, -0.00, -1.00, 539.8, 236.2)">t</text><text xml:space="preserve" font-family="Palatino-Roman,Palatino" font-size="52.0" fill="#000000" transform="matrix(1.00, 0.00, -0.00, -1.00, 556.8, 236.2)">o</text><text xml:space="preserve" font-family="Palatino-Roman,Palatino" font-size="52.0" fill="#000000" transform="matrix(1.00, 0.00, -0.00, -1.00, 585.2, 236.2)"> </text><text xml:space="preserve" font-family="Palatino-Roman,Palatino" font-size="52.0" fill="#000000" transform="matrix(1.00, 0.00, -0.00, -1.00, 598.2, 236.2)">a</text><text xml:space="preserve" font-family="Palatino-Roman,Palatino" font-size="52.0" fill="#000000" transform="matrix(1.00, 0.00, -0.00, -1.00, 624.2, 236.2)">w</text><text xml:space="preserve" font-family="Palatino-Roman,Palatino" font-size="52.0" fill="#000000" transform="matrix(1.00, 0.00, -0.00, -1.00, 667.6, 236.2)">k</text><text xml:space="preserve" font-family="Palatino-Roman,Palatino" font-size="52.0" fill="#000000" transform="matrix(1.00, 0.00, -0.00, -1.00, 696.5, 236.2)">w</text><text xml:space="preserve" font-family="Palatino-Roman,Palatino" font-size="52.0" fill="#000000" transform="matrix(1.00, 0.00, -0.00, -1.00, 739.9, 236.2)">a</text><text xml:space="preserve" font-family="Palatino-Roman,Palatino" font-size="52.0" fill="#000000" transform="matrix(1.00, 0.00, -0.00, -1.00, 765.9, 236.2)">r</text><text xml:space="preserve" font-family="Palatino-Roman,Palatino" font-size="52.0" fill="#000000" transform="matrix(1.00, 0.00, -0.00, -1.00, 785.5, 236.2)">d</text><text xml:space="preserve" font-family="Palatino-Roman,Palatino" font-size="52.0" fill="#000000" transform="matrix(1.00, 0.00, -0.00, -1.00, 817.2, 236.2)"> </text><text xml:space="preserve" font-family="Palatino-Roman,Palatino" font-size="52.0" fill="#000000" transform="matrix(1.00, 0.00, -0.00, -1.00, 830.2, 236.2)">d</text><text xml:space="preserve" font-family="Palatino-Roman,Palatino" font-size="52.0" fill="#000000" transform="matrix(1.00, 0.00, -0.00, -1.00, 862.0, 236.2)">i</text><text xml:space="preserve" font-family="Palatino-Roman,Palatino" font-size="52.0" fill="#000000" transform="matrix(1.00, 0.00, -0.00, -1.00, 877.1, 236.2)">n</text><text xml:space="preserve" font-family="Palatino-Roman,Palatino" font-size="52.0" fill="#000000" transform="matrix(1.00, 0.00, -0.00, -1.00, 907.4, 236.2)">n</text><text xml:space="preserve" font-family="Palatino-Roman,Palatino" font-size="52.0" fill="#000000" transform="matrix(1.00, 0.00, -0.00, -1.00, 937.7, 236.2)">e</text><text xml:space="preserve" font-family="Palatino-Roman,Palatino" font-size="52.0" fill="#000000" transform="matrix(1.00, 0.00, -0.00, -1.00, 962.6, 236.2)">r</text><text xml:space="preserve" font-family="Palatino-Roman,Palatino" font-size="52.0" fill="#000000" transform="matrix(1.00, 0.00, -0.00, -1.00, 983.1, 236.2)">s</text><text xml:space="preserve" font-family="ZapfDingbatsITC,Zapf Dingbats" font-size="36.4" fill="#5B86B8" transform="matrix(1.00, 0.00, -0.00, -1.00, 40.0, 132.2)">✤</text><text xml:space="preserve" font-family="Palatino-Roman,Palatino" font-size="52.0" fill="#000000" transform="matrix(1.00, 0.00, -0.00, -1.00, 94.7, 126.2)">P</text><text xml:space="preserve" font-family="Palatino-Roman,Palatino" font-size="52.0" fill="#000000" transform="matrix(1.00, 0.00, -0.00, -1.00, 126.1, 126.2)">a</text><text xml:space="preserve" font-family="Palatino-Roman,Palatino" font-size="52.0" fill="#000000" transform="matrix(1.00, 0.00, -0.00, -1.00, 152.1, 126.2)">n</text><text xml:space="preserve" font-family="Palatino-Roman,Palatino" font-size="52.0" fill="#000000" transform="matrix(1.00, 0.00, -0.00, -1.00, 182.4, 126.2)">c</text><text xml:space="preserve" font-family="Palatino-Roman,Palatino" font-size="52.0" fill="#000000" transform="matrix(1.00, 0.00, -0.00, -1.00, 205.5, 126.2)">a</text><text xml:space="preserve" font-family="Palatino-Roman,Palatino" font-size="52.0" fill="#000000" transform="matrix(1.00, 0.00, -0.00, -1.00, 231.5, 126.2)">k</text><text xml:space="preserve" font-family="Palatino-Roman,Palatino" font-size="52.0" fill="#000000" transform="matrix(1.00, 0.00, -0.00, -1.00, 260.4, 126.2)">e</text><text xml:space="preserve" font-family="Palatino-Roman,Palatino" font-size="52.0" fill="#000000" transform="matrix(1.00, 0.00, -0.00, -1.00, 285.3, 126.2)">s</text><text xml:space="preserve" font-family="Palatino-Roman,Palatino" font-size="52.0" fill="#000000" transform="matrix(1.00, 0.00, -0.00, -1.00, 307.3, 126.2)"> </text><text xml:space="preserve" font-family="Palatino-Roman,Palatino" font-size="52.0" fill="#000000" transform="matrix(1.00, 0.00, -0.00, -1.00, 320.3, 126.2)">w</text><text xml:space="preserve" font-family="Palatino-Roman,Palatino" font-size="52.0" fill="#000000" transform="matrix(1.00, 0.00, -0.00, -1.00, 363.7, 126.2)">i</text><text xml:space="preserve" font-family="Palatino-Roman,Palatino" font-size="52.0" fill="#000000" transform="matrix(1.00, 0.00, -0.00, -1.00, 378.8, 126.2)">t</text><text xml:space="preserve" font-family="Palatino-Roman,Palatino" font-size="52.0" fill="#000000" transform="matrix(1.00, 0.00, -0.00, -1.00, 395.8, 126.2)">h</text><text xml:space="preserve" font-family="Palatino-Roman,Palatino" font-size="52.0" fill="#000000" transform="matrix(1.00, 0.00, -0.00, -1.00, 426.1, 126.2)"> </text><text xml:space="preserve" font-family="Palatino-Roman,Palatino" font-size="52.0" fill="#000000" transform="matrix(1.00, 0.00, -0.00, -1.00, 439.1, 126.2)">h</text><text xml:space="preserve" font-family="Palatino-Roman,Palatino" font-size="52.0" fill="#000000" transform="matrix(1.00, 0.00, -0.00, -1.00, 469.4, 126.2)">a</text><text xml:space="preserve" font-family="Palatino-Roman,Palatino" font-size="52.0" fill="#000000" transform="matrix(1.00, 0.00, -0.00, -1.00, 495.4, 126.2)">d</text><text xml:space="preserve" font-family="Palatino-Roman,Palatino" font-size="52.0" fill="#000000" transform="matrix(1.00, 0.00, -0.00, -1.00, 527.1, 126.2)">d</text><text xml:space="preserve" font-family="Palatino-Roman,Palatino" font-size="52.0" fill="#000000" transform="matrix(1.00, 0.00, -0.00, -1.00, 558.9, 126.2)">o</text><text xml:space="preserve" font-family="Palatino-Roman,Palatino" font-size="52.0" fill="#000000" transform="matrix(1.00, 0.00, -0.00, -1.00, 587.2, 126.2)">c</text><text xml:space="preserve" font-family="Palatino-Roman,Palatino" font-size="52.0" fill="#000000" transform="matrix(1.00, 0.00, -0.00, -1.00, 610.3, 126.2)">k</text><text xml:space="preserve" font-family="Palatino-Roman,Palatino" font-size="52.0" fill="#000000" transform="matrix(1.00, 0.00, -0.00, -1.00, 639.2, 126.2)"> </text><text xml:space="preserve" font-family="Palatino-Roman,Palatino" font-size="52.0" fill="#000000" transform="matrix(1.00, 0.00, -0.00, -1.00, 652.2, 126.2)">a</text><text xml:space="preserve" font-family="Palatino-Roman,Palatino" font-size="52.0" fill="#000000" transform="matrix(1.00, 0.00, -0.00, -1.00, 678.2, 126.2)">n</text><text xml:space="preserve" font-family="Palatino-Roman,Palatino" font-size="52.0" fill="#000000" transform="matrix(1.00, 0.00, -0.00, -1.00, 708.5, 126.2)">d</text><text xml:space="preserve" font-family="Palatino-Roman,Palatino" font-size="52.0" fill="#000000" transform="matrix(1.00, 0.00, -0.00, -1.00, 740.3, 126.2)"> </text><text xml:space="preserve" font-family="Palatino-Roman,Palatino" font-size="52.0" fill="#000000" transform="matrix(1.00, 0.00, -0.00, -1.00, 753.3, 126.2)">m</text><text xml:space="preserve" font-family="Palatino-Roman,Palatino" font-size="52.0" fill="#000000" transform="matrix(1.00, 0.00, -0.00, -1.00, 799.2, 126.2)">a</text><text xml:space="preserve" font-family="Palatino-Roman,Palatino" font-size="52.0" fill="#000000" transform="matrix(1.00, 0.00, -0.00, -1.00, 825.2, 126.2)">r</text><text xml:space="preserve" font-family="Palatino-Roman,Palatino" font-size="52.0" fill="#000000" transform="matrix(1.00, 0.00, -0.00, -1.00, 845.7, 126.2)">s</text><text xml:space="preserve" font-family="Palatino-Roman,Palatino" font-size="52.0" fill="#000000" transform="matrix(1.00, 0.00, -0.00, -1.00, 867.7, 126.2)">h</text><text xml:space="preserve" font-family="Palatino-Roman,Palatino" font-size="52.0" fill="#000000" transform="matrix(1.00, 0.00, -0.00, -1.00, 898.0, 126.2)">m</text><text xml:space="preserve" font-family="Palatino-Roman,Palatino" font-size="52.0" fill="#000000" transform="matrix(1.00, 0.00, -0.00, -1.00, 943.9, 126.2)">a</text><text xml:space="preserve" font-family="Palatino-Roman,Palatino" font-size="52.0" fill="#000000" transform="matrix(1.00, 0.00, -0.00, -1.00, 969.9, 126.2)">l</text><text xml:space="preserve" font-family="Palatino-Roman,Palatino" font-size="52.0" fill="#000000" transform="matrix(1.00, 0.00, -0.00, -1.00, 985.0, 126.2)">l</text><text xml:space="preserve" font-family="Palatino-Roman,Palatino" font-size="52.0" fill="#000000" transform="matrix(1.00, 0.00, -0.00, -1.00, 1000.1, 126.2)">o</text><text xml:space="preserve" font-family="Palatino-Roman,Palatino" font-size="52.0" fill="#000000" transform="matrix(1.00, 0.00, -0.00, -1.00, 1028.5, 126.2)">w</text><text xml:space="preserve" font-family="Palatino-Roman,Palatino" font-size="52.0" fill="#000000" transform="matrix(1.00, 0.00, -0.00, -1.00, 1071.9, 126.2)">s</text><text xml:space="preserve" font-family="ZapfDingbatsITC,Zapf Dingbats" font-size="36.4" fill="#5B86B8" transform="matrix(1.00, 0.00, -0.00, -1.00, 0.0, 22.2)">✤</text><text xml:space="preserve" font-family="Palatino-Roman,Palatino" font-size="52.0" fill="#000000" transform="matrix(1.00, 0.00, -0.00, -1.00, 54.7, 16.2)">S</text><text xml:space="preserve" font-family="Palatino-Roman,Palatino" font-size="52.0" fill="#000000" transform="matrix(1.00, 0.00, -0.00, -1.00, 82.0, 16.2)">o</text><text xml:space="preserve" font-family="Palatino-Roman,Palatino" font-size="52.0" fill="#000000" transform="matrix(1.00, 0.00, -0.00, -1.00, 110.4, 16.2)">l</text><text xml:space="preserve" font-family="Palatino-Roman,Palatino" font-size="52.0" fill="#000000" transform="matrix(1.00, 0.00, -0.00, -1.00, 125.5, 16.2)">u</text><text xml:space="preserve" font-family="Palatino-Roman,Palatino" font-size="52.0" fill="#000000" transform="matrix(1.00, 0.00, -0.00, -1.00, 156.9, 16.2)">t</text><text xml:space="preserve" font-family="Palatino-Roman,Palatino" font-size="52.0" fill="#000000" transform="matrix(1.00, 0.00, -0.00, -1.00, 173.9, 16.2)">i</text><text xml:space="preserve" font-family="Palatino-Roman,Palatino" font-size="52.0" fill="#000000" transform="matrix(1.00, 0.00, -0.00, -1.00, 189.0, 16.2)">o</text><text xml:space="preserve" font-family="Palatino-Roman,Palatino" font-size="52.0" fill="#000000" transform="matrix(1.00, 0.00, -0.00, -1.00, 217.4, 16.2)">n</text><text xml:space="preserve" font-family="Palatino-Roman,Palatino" font-size="52.0" fill="#000000" transform="matrix(1.00, 0.00, -0.00, -1.00, 247.6, 16.2)">:</text><text xml:space="preserve" font-family="Palatino-Roman,Palatino" font-size="52.0" fill="#000000" transform="matrix(1.00, 0.00, -0.00, -1.00, 260.6, 16.2)"> </text><text xml:space="preserve" font-family="Palatino-Roman,Palatino" font-size="52.0" fill="#000000" transform="matrix(1.00, 0.00, -0.00, -1.00, 273.6, 16.2)">l</text><text xml:space="preserve" font-family="Palatino-Roman,Palatino" font-size="52.0" fill="#000000" transform="matrix(1.00, 0.00, -0.00, -1.00, 288.8, 16.2)">e</text><text xml:space="preserve" font-family="Palatino-Roman,Palatino" font-size="52.0" fill="#000000" transform="matrix(1.00, 0.00, -0.00, -1.00, 313.7, 16.2)">a</text><text xml:space="preserve" font-family="Palatino-Roman,Palatino" font-size="52.0" fill="#000000" transform="matrix(1.00, 0.00, -0.00, -1.00, 339.7, 16.2)">r</text><text xml:space="preserve" font-family="Palatino-Roman,Palatino" font-size="52.0" fill="#000000" transform="matrix(1.00, 0.00, -0.00, -1.00, 360.2, 16.2)">n</text><text xml:space="preserve" font-family="Palatino-Roman,Palatino" font-size="52.0" fill="#000000" transform="matrix(1.00, 0.00, -0.00, -1.00, 390.5, 16.2)"> </text><text xml:space="preserve" font-family="Palatino-Roman,Palatino" font-size="52.0" fill="#000000" transform="matrix(1.00, 0.00, -0.00, -1.00, 403.5, 16.2)">n</text><text xml:space="preserve" font-family="Palatino-Roman,Palatino" font-size="52.0" fill="#000000" transform="matrix(1.00, 0.00, -0.00, -1.00, 433.8, 16.2)">a</text><text xml:space="preserve" font-family="Palatino-Roman,Palatino" font-size="52.0" fill="#000000" transform="matrix(1.00, 0.00, -0.00, -1.00, 459.8, 16.2)">t</text><text xml:space="preserve" font-family="Palatino-Roman,Palatino" font-size="52.0" fill="#000000" transform="matrix(1.00, 0.00, -0.00, -1.00, 476.7, 16.2)">u</text><text xml:space="preserve" font-family="Palatino-Roman,Palatino" font-size="52.0" fill="#000000" transform="matrix(1.00, 0.00, -0.00, -1.00, 508.1, 16.2)">r</text><text xml:space="preserve" font-family="Palatino-Roman,Palatino" font-size="52.0" fill="#000000" transform="matrix(1.00, 0.00, -0.00, -1.00, 528.6, 16.2)">a</text><text xml:space="preserve" font-family="Palatino-Roman,Palatino" font-size="52.0" fill="#000000" transform="matrix(1.00, 0.00, -0.00, -1.00, 554.6, 16.2)">l</text><text xml:space="preserve" font-family="Palatino-Roman,Palatino" font-size="52.0" fill="#000000" transform="matrix(1.00, 0.00, -0.00, -1.00, 569.8, 16.2)"> </text><text xml:space="preserve" font-family="Palatino-Roman,Palatino" font-size="52.0" fill="#000000" transform="matrix(1.00, 0.00, -0.00, -1.00, 582.8, 16.2)">d</text><text xml:space="preserve" font-family="Palatino-Roman,Palatino" font-size="52.0" fill="#000000" transform="matrix(1.00, 0.00, -0.00, -1.00, 614.5, 16.2)">i</text><text xml:space="preserve" font-family="Palatino-Roman,Palatino" font-size="52.0" fill="#000000" transform="matrix(1.00, 0.00, -0.00, -1.00, 629.7, 16.2)">n</text><text xml:space="preserve" font-family="Palatino-Roman,Palatino" font-size="52.0" fill="#000000" transform="matrix(1.00, 0.00, -0.00, -1.00, 659.9, 16.2)">n</text><text xml:space="preserve" font-family="Palatino-Roman,Palatino" font-size="52.0" fill="#000000" transform="matrix(1.00, 0.00, -0.00, -1.00, 690.2, 16.2)">e</text><text xml:space="preserve" font-family="Palatino-Roman,Palatino" font-size="52.0" fill="#000000" transform="matrix(1.00, 0.00, -0.00, -1.00, 715.1, 16.2)">r</text><text xml:space="preserve" font-family="Palatino-Roman,Palatino" font-size="52.0" fill="#000000" transform="matrix(1.00, 0.00, -0.00, -1.00, 735.6, 16.2)"> </text><text xml:space="preserve" font-family="Palatino-Roman,Palatino" font-size="52.0" fill="#000000" transform="matrix(1.00, 0.00, -0.00, -1.00, 748.6, 16.2)">c</text><text xml:space="preserve" font-family="Palatino-Roman,Palatino" font-size="52.0" fill="#000000" transform="matrix(1.00, 0.00, -0.00, -1.00, 771.7, 16.2)">o</text><text xml:space="preserve" font-family="Palatino-Roman,Palatino" font-size="52.0" fill="#000000" transform="matrix(1.00, 0.00, -0.00, -1.00, 800.1, 16.2)">m</text><text xml:space="preserve" font-family="Palatino-Roman,Palatino" font-size="52.0" fill="#000000" transform="matrix(1.00, 0.00, -0.00, -1.00, 846.0, 16.2)">p</text><text xml:space="preserve" font-family="Palatino-Roman,Palatino" font-size="52.0" fill="#000000" transform="matrix(1.00, 0.00, -0.00, -1.00, 877.2, 16.2)">o</text><text xml:space="preserve" font-family="Palatino-Roman,Palatino" font-size="52.0" fill="#000000" transform="matrix(1.00, 0.00, -0.00, -1.00, 905.6, 16.2)">s</text><text xml:space="preserve" font-family="Palatino-Roman,Palatino" font-size="52.0" fill="#000000" transform="matrix(1.00, 0.00, -0.00, -1.00, 927.7, 16.2)">i</text><text xml:space="preserve" font-family="Palatino-Roman,Palatino" font-size="52.0" fill="#000000" transform="matrix(1.00, 0.00, -0.00, -1.00, 942.8, 16.2)">t</text><text xml:space="preserve" font-family="Palatino-Roman,Palatino" font-size="52.0" fill="#000000" transform="matrix(1.00, 0.00, -0.00, -1.00, 959.8, 16.2)">i</text><text xml:space="preserve" font-family="Palatino-Roman,Palatino" font-size="52.0" fill="#000000" transform="matrix(1.00, 0.00, -0.00, -1.00, 974.9, 16.2)">o</text><text xml:space="preserve" font-family="Palatino-Roman,Palatino" font-size="52.0" fill="#000000" transform="matrix(1.00, 0.00, -0.00, -1.00, 1003.3, 16.2)">n</text><text xml:space="preserve" font-family="Palatino-Roman,Palatino" font-size="52.0" fill="#000000" transform="matrix(1.00, 0.00, -0.00, -1.00, 1033.5, 16.2)">s</text><text xml:space="preserve" font-family="Palatino-Roman,Palatino" font-size="52.0" fill="#000000" transform="matrix(1.00, 0.00, -0.00, -1.00, 1055.6, 16.2)"> </text><text xml:space="preserve" font-family="Palatino-Roman,Palatino" font-size="52.0" fill="#000000" transform="matrix(1.00, 0.00, -0.00, -1.00, 1068.6, 16.2)">f</text><text xml:space="preserve" font-family="Palatino-Roman,Palatino" font-size="52.0" fill="#000000" transform="matrix(1.00, 0.00, -0.00, -1.00, 1085.9, 16.2)">r</text><text xml:space="preserve" font-family="Palatino-Roman,Palatino" font-size="52.0" fill="#000000" transform="matrix(1.00, 0.00, -0.00, -1.00, 1105.5, 16.2)">o</text><text xml:space="preserve" font-family="Palatino-Roman,Palatino" font-size="52.0" fill="#000000" transform="matrix(1.00, 0.00, -0.00, -1.00, 1133.9, 16.2)">m</text><text xml:space="preserve" font-family="Palatino-Roman,Palatino" font-size="52.0" fill="#000000" transform="matrix(1.00, 0.00, -0.00, -1.00, 1179.8, 16.2)"> </text><text xml:space="preserve" font-family="Palatino-Roman,Palatino" font-size="52.0" fill="#000000" transform="matrix(1.00, 0.00, -0.00, -1.00, 1192.8, 16.2)">d</text><text xml:space="preserve" font-family="Palatino-Roman,Palatino" font-size="52.0" fill="#000000" transform="matrix(1.00, 0.00, -0.00, -1.00, 1224.5, 16.2)">a</text><text xml:space="preserve" font-family="Palatino-Roman,Palatino" font-size="52.0" fill="#000000" transform="matrix(1.00, 0.00, -0.00, -1.00, 1250.5, 16.2)">t</text><text xml:space="preserve" font-family="Palatino-Roman,Palatino" font-size="52.0" fill="#000000" transform="matrix(1.00, 0.00, -0.00, -1.00, 1267.5, 16.2)">a</text></g></svg>