<?xml version="1.0" encoding="UTF-8" standalone="no"?><svg xmlns="http://www.w3.org/2000/svg" xmlns:xlink="http://www.w3.org/1999/xlink" clip-rule="evenodd" stroke-miterlimit="10" viewBox="0 0 324 235"><desc>SVG generated by Keynote</desc><defs></defs><g transform="matrix(1.00, 0.00, -0.00, -1.00, 0.0, 235.0)"><g><clipPath id="clip0x7fa3d8de74e0"><path d="M 16.0 194.0 L 267.0 194.0 L 267.0 0.0 L 16.0 0.0 Z M 16.5 194.1 "></path></clipPath><g clip-path="url(#clip0x7fa3d8de74e0)"><g><clipPath id="clip0x7fa3d8de4b30"><path d="M 122.6 194.1 C 107.1 193.8 97.2 193.4 96.7 193.0 C 95.7 192.1 87.7 189.5 78.9 187.2 C 64.8 183.6 60.7 181.4 44.8 169.4 C 26.5 155.6 19.8 147.8 19.8 140.3 C 19.8 138.0 19.0 135.6 17.9 135.0 C 17.3 134.6 16.8 127.2 16.5 114.7 C 17.0 105.7 18.1 102.5 20.7 97.9 C 28.7 83.8 29.0 82.5 27.1 70.6 C 24.6 55.3 25.8 51.0 35.9 37.4 C 40.6 31.0 45.5 22.3 46.7 18.2 C 50.1 6.9 55.4 5.1 86.0 4.2 C 100.1 3.8 112.6 2.6 113.7 1.5 C 114.2 1.0 119.5 0.7 127.3 0.4 C 133.7 0.6 138.3 1.0 138.7 1.4 C 139.8 2.4 146.1 3.7 152.9 4.4 C 159.7 5.0 167.6 6.7 170.3 8.0 C 173.1 9.4 178.3 10.1 181.7 9.6 C 189.2 8.5 189.5 8.5 208.1 10.1 C 227.3 11.7 239.1 17.3 254.4 32.3 L 267.0 44.6 L 267.0 52.7 L 258.5 70.3 C 251.0 85.9 249.2 88.3 242.4 91.3 C 238.2 93.2 233.3 96.4 231.4 98.5 C 227.2 103.2 226.5 119.2 230.3 127.8 C 232.7 133.3 232.6 134.8 229.7 141.1 C 225.1 150.9 199.5 175.7 188.4 181.1 C 179.1 185.6 157.9 190.8 148.7 190.8 C 145.9 190.8 143.1 191.6 142.4 192.7 C 142.0 193.3 134.7 193.8 122.7 194.1 C 122.7 194.1 122.7 194.1 122.6 194.1 Z M 122.6 194.1 "></path></clipPath><g clip-path="url(#clip0x7fa3d8de4b30)"><g><clipPath id="clip0x7fa3d8de5210"><path d="M 16.5 0.4 L 267.0 0.4 L 267.0 194.1 L 16.5 194.1 Z M 16.5 0.4 "></path></clipPath><g clip-path="url(#clip0x7fa3d8de5210)"><image xlink:href="454D41A9A61FC2ECDB5449DB87A79EC5.jpeg" width="251.00" height="195.00" transform="matrix(1.00, 0.00, -0.00, -1.00, 16.0, 194.6)"></image></g></g></g></g></g></g><g><clipPath id="clip0x7fa3d94d3430"><path d="M 1.0 216.0 L 324.0 216.0 L 324.0 27.0 L 1.0 27.0 Z M 0.7 216.3 "></path></clipPath><g clip-path="url(#clip0x7fa3d94d3430)"><g><clipPath id="clip0x7fa3d94dcf20"><path d="M 150.4 216.3 C 150.2 216.2 149.1 216.2 149.0 216.1 C 148.0 215.2 141.3 213.0 134.0 211.2 C 126.7 209.4 116.6 206.3 111.5 204.3 C 102.4 200.7 102.3 200.8 88.7 205.0 C 77.2 208.6 70.7 209.3 48.4 209.3 C 33.1 209.3 17.2 208.3 10.9 206.8 L 0.7 204.5 C 1.3 201.6 2.3 198.9 3.7 197.0 C 6.4 193.4 6.8 191.7 5.1 189.8 C 3.4 187.7 4.4 186.0 9.5 181.6 C 13.2 178.6 18.7 174.7 21.8 173.0 C 24.9 171.4 38.8 161.5 52.5 151.2 C 66.3 140.9 87.1 127.0 99.0 120.3 L 120.5 108.2 L 131.2 90.6 L 141.9 73.0 L 150.7 73.0 C 157.3 72.6 162.9 73.4 173.3 78.0 C 180.9 81.3 188.1 85.4 189.4 87.1 C 191.7 90.3 191.4 90.5 217.9 71.6 L 225.9 65.9 L 232.6 71.7 C 246.3 83.7 248.5 82.6 266.4 56.1 C 272.7 46.7 281.0 35.8 284.7 31.9 L 289.3 27.1 L 293.1 35.7 C 295.7 41.7 298.5 49.6 299.1 53.3 C 299.9 57.8 302.9 62.6 308.1 67.5 C 312.4 71.6 317.9 78.1 320.4 82.0 L 323.9 87.5 C 323.2 87.6 308.7 88.2 290.7 88.9 C 262.8 89.9 256.6 90.7 252.2 93.7 C 248.2 96.3 247.5 97.8 249.0 99.7 C 250.5 101.4 250.5 104.2 249.1 109.3 C 248.0 113.3 246.8 118.7 246.6 121.3 C 246.1 125.8 245.3 126.1 229.9 127.5 C 221.1 128.3 212.9 130.0 211.7 131.3 C 210.6 132.6 208.5 137.4 207.2 142.0 C 204.7 150.9 189.0 181.1 185.9 183.0 C 184.9 183.6 176.0 182.6 166.0 180.7 C 144.0 176.6 141.3 177.6 142.1 189.4 C 142.6 197.4 148.2 210.8 152.0 213.1 C 154.3 214.5 154.4 215.5 150.4 216.3 Z M 150.4 216.3 "></path></clipPath><g clip-path="url(#clip0x7fa3d94dcf20)"><g><clipPath id="clip0x7fa3d94dd810"><path d="M 0.7 27.1 L 323.9 27.1 L 323.9 216.3 L 0.7 216.3 Z M 0.7 27.1 "></path></clipPath><g clip-path="url(#clip0x7fa3d94dd810)"><image xlink:href="528F85EFB4A76C1CAA1499813F3C9E53.jpeg" width="325.00" height="193.00" transform="matrix(1.00, 0.00, -0.00, -1.00, -0.1, 217.8)"></image></g></g></g></g></g></g><g><clipPath id="clip0x7fa3d8ad74e0"><path d="M 130.0 234.0 L 284.0 234.0 L 284.0 90.0 L 130.0 90.0 Z M 130.2 234.1 "></path></clipPath><g clip-path="url(#clip0x7fa3d8ad74e0)"><g><clipPath id="clip0x7fa3d8abb130"><path d="M 154.0 93.2 C 146.4 97.3 139.1 106.2 136.0 115.1 C 132.5 125.2 129.3 142.3 130.4 145.1 C 131.0 146.7 136.2 150.6 142.0 154.0 L 152.5 160.0 L 143.1 169.3 C 137.9 174.4 133.6 179.7 133.6 181.2 C 133.6 182.6 136.7 188.9 140.5 195.1 C 144.3 201.3 150.3 211.4 154.0 217.4 C 164.8 235.5 176.9 238.5 197.4 228.2 C 212.0 220.8 218.5 213.3 218.5 203.8 C 218.5 199.9 217.5 195.7 216.3 194.5 C 212.2 190.3 220.0 189.7 243.7 192.2 C 271.4 195.1 273.4 194.4 280.3 179.4 C 284.4 170.3 284.9 167.0 284.1 155.6 C 283.0 140.4 278.9 133.1 270.3 131.1 C 267.2 130.3 254.3 128.7 241.6 127.4 L 218.5 125.0 L 214.8 116.6 C 211.4 108.9 209.8 107.6 192.7 99.6 C 170.5 89.1 163.5 88.0 154.0 93.2 "></path></clipPath><g clip-path="url(#clip0x7fa3d8abb130)"><g><clipPath id="clip0x7fa3d8abcd60"><path d="M 130.2 90.2 L 284.4 90.2 L 284.4 234.1 L 130.2 234.1 Z M 130.2 90.2 "></path></clipPath><g clip-path="url(#clip0x7fa3d8abcd60)"><image xlink:href="07A960F1ED6F86475B56B79DDFFA0F58.jpeg" width="166.00" height="156.00" transform="matrix(1.00, 0.00, -0.00, -1.00, 124.2, 239.7)"></image></g></g></g></g></g></g></g></svg>