<?xml version="1.0" encoding="UTF-8" standalone="no"?><svg xmlns="http://www.w3.org/2000/svg" xmlns:xlink="http://www.w3.org/1999/xlink" clip-rule="evenodd" stroke-miterlimit="10" viewBox="0 0 1295 496"><desc>SVG generated by Keynote</desc><defs></defs><g transform="matrix(1.00, 0.00, -0.00, -1.00, 0.0, 496.0)"><text xml:space="preserve" font-family="ZapfDingbatsITC,Zapf Dingbats" font-size="36.4" fill="#5B86B8" transform="matrix(1.00, 0.00, -0.00, -1.00, 1.0, 462.2)">✤</text><text xml:space="preserve" font-family="Palatino-Roman,Palatino" font-size="52.0" fill="#000000" transform="matrix(1.00, 0.00, -0.00, -1.00, 55.7, 456.2)">P</text><text xml:space="preserve" font-family="Palatino-Roman,Palatino" font-size="52.0" fill="#000000" transform="matrix(1.00, 0.00, -0.00, -1.00, 87.1, 456.2)">r</text><text xml:space="preserve" font-family="Palatino-Roman,Palatino" font-size="52.0" fill="#000000" transform="matrix(1.00, 0.00, -0.00, -1.00, 106.8, 456.2)">o</text><text xml:space="preserve" font-family="Palatino-Roman,Palatino" font-size="52.0" fill="#000000" transform="matrix(1.00, 0.00, -0.00, -1.00, 135.2, 456.2)">b</text><text xml:space="preserve" font-family="Palatino-Roman,Palatino" font-size="52.0" fill="#000000" transform="matrix(1.00, 0.00, -0.00, -1.00, 163.9, 456.2)">l</text><text xml:space="preserve" font-family="Palatino-Roman,Palatino" font-size="52.0" fill="#000000" transform="matrix(1.00, 0.00, -0.00, -1.00, 179.1, 456.2)">e</text><text xml:space="preserve" font-family="Palatino-Roman,Palatino" font-size="52.0" fill="#000000" transform="matrix(1.00, 0.00, -0.00, -1.00, 204.0, 456.2)">m</text><text xml:space="preserve" font-family="Palatino-Roman,Palatino" font-size="52.0" fill="#000000" transform="matrix(1.00, 0.00, -0.00, -1.00, 249.9, 456.2)"> </text><text xml:space="preserve" font-family="Palatino-Roman,Palatino" font-size="52.0" fill="#000000" transform="matrix(1.00, 0.00, -0.00, -1.00, 262.9, 456.2)">s</text><text xml:space="preserve" font-family="Palatino-Roman,Palatino" font-size="52.0" fill="#000000" transform="matrix(1.00, 0.00, -0.00, -1.00, 284.9, 456.2)">o</text><text xml:space="preserve" font-family="Palatino-Roman,Palatino" font-size="52.0" fill="#000000" transform="matrix(1.00, 0.00, -0.00, -1.00, 313.3, 456.2)">l</text><text xml:space="preserve" font-family="Palatino-Roman,Palatino" font-size="52.0" fill="#000000" transform="matrix(1.00, 0.00, -0.00, -1.00, 328.4, 456.2)">u</text><text xml:space="preserve" font-family="Palatino-Roman,Palatino" font-size="52.0" fill="#000000" transform="matrix(1.00, 0.00, -0.00, -1.00, 359.8, 456.2)">t</text><text xml:space="preserve" font-family="Palatino-Roman,Palatino" font-size="52.0" fill="#000000" transform="matrix(1.00, 0.00, -0.00, -1.00, 376.7, 456.2)">i</text><text xml:space="preserve" font-family="Palatino-Roman,Palatino" font-size="52.0" fill="#000000" transform="matrix(1.00, 0.00, -0.00, -1.00, 391.9, 456.2)">o</text><text xml:space="preserve" font-family="Palatino-Roman,Palatino" font-size="52.0" fill="#000000" transform="matrix(1.00, 0.00, -0.00, -1.00, 420.3, 456.2)">n</text><text xml:space="preserve" font-family="Palatino-Roman,Palatino" font-size="52.0" fill="#000000" transform="matrix(1.00, 0.00, -0.00, -1.00, 450.5, 456.2)"> </text><text xml:space="preserve" font-family="Palatino-Roman,Palatino" font-size="52.0" fill="#000000" transform="matrix(1.00, 0.00, -0.00, -1.00, 463.5, 456.2)">i</text><text xml:space="preserve" font-family="Palatino-Roman,Palatino" font-size="52.0" fill="#000000" transform="matrix(1.00, 0.00, -0.00, -1.00, 478.7, 456.2)">s</text><text xml:space="preserve" font-family="Palatino-Roman,Palatino" font-size="52.0" fill="#000000" transform="matrix(1.00, 0.00, -0.00, -1.00, 500.7, 456.2)"> </text><text xml:space="preserve" font-family="Palatino-Roman,Palatino" font-size="52.0" fill="#000000" transform="matrix(1.00, 0.00, -0.00, -1.00, 513.7, 456.2)">n</text><text xml:space="preserve" font-family="Palatino-Roman,Palatino" font-size="52.0" fill="#000000" transform="matrix(1.00, 0.00, -0.00, -1.00, 543.9, 456.2)">a</text><text xml:space="preserve" font-family="Palatino-Roman,Palatino" font-size="52.0" fill="#000000" transform="matrix(1.00, 0.00, -0.00, -1.00, 569.9, 456.2)">i</text><text xml:space="preserve" font-family="Palatino-Roman,Palatino" font-size="52.0" fill="#000000" transform="matrix(1.00, 0.00, -0.00, -1.00, 585.1, 456.2)">v</text><text xml:space="preserve" font-family="Palatino-Roman,Palatino" font-size="52.0" fill="#000000" transform="matrix(1.00, 0.00, -0.00, -1.00, 614.5, 456.2)">e</text><text xml:space="preserve" font-family="Palatino-Roman,Palatino" font-size="52.0" fill="#000000" transform="matrix(1.00, 0.00, -0.00, -1.00, 639.4, 456.2)">l</text><text xml:space="preserve" font-family="Palatino-Roman,Palatino" font-size="52.0" fill="#000000" transform="matrix(1.00, 0.00, -0.00, -1.00, 654.5, 456.2)">y</text><text xml:space="preserve" font-family="Palatino-Roman,Palatino" font-size="52.0" fill="#000000" transform="matrix(1.00, 0.00, -0.00, -1.00, 683.4, 456.2)"> </text><text xml:space="preserve" font-family="Palatino-Roman,Palatino" font-size="52.0" fill="#000000" transform="matrix(1.00, 0.00, -0.00, -1.00, 696.4, 456.2)">s</text><text xml:space="preserve" font-family="Palatino-Roman,Palatino" font-size="52.0" fill="#000000" transform="matrix(1.00, 0.00, -0.00, -1.00, 718.5, 456.2)">i</text><text xml:space="preserve" font-family="Palatino-Roman,Palatino" font-size="52.0" fill="#000000" transform="matrix(1.00, 0.00, -0.00, -1.00, 733.6, 456.2)">m</text><text xml:space="preserve" font-family="Palatino-Roman,Palatino" font-size="52.0" fill="#000000" transform="matrix(1.00, 0.00, -0.00, -1.00, 779.5, 456.2)">p</text><text xml:space="preserve" font-family="Palatino-Roman,Palatino" font-size="52.0" fill="#000000" transform="matrix(1.00, 0.00, -0.00, -1.00, 810.7, 456.2)">l</text><text xml:space="preserve" font-family="Palatino-Roman,Palatino" font-size="52.0" fill="#000000" transform="matrix(1.00, 0.00, -0.00, -1.00, 825.9, 456.2)">e</text><text xml:space="preserve" font-family="ZapfDingbatsITC,Zapf Dingbats" font-size="36.4" fill="#5B86B8" transform="matrix(1.00, 0.00, -0.00, -1.00, 41.0, 352.2)">✤</text><text xml:space="preserve" font-family="Palatino-Roman,Palatino" font-size="52.0" fill="#000000" transform="matrix(1.00, 0.00, -0.00, -1.00, 95.7, 346.2)">F</text><text xml:space="preserve" font-family="Palatino-Roman,Palatino" font-size="52.0" fill="#000000" transform="matrix(1.00, 0.00, -0.00, -1.00, 124.7, 346.2)">i</text><text xml:space="preserve" font-family="Palatino-Roman,Palatino" font-size="52.0" fill="#000000" transform="matrix(1.00, 0.00, -0.00, -1.00, 139.8, 346.2)">l</text><text xml:space="preserve" font-family="Palatino-Roman,Palatino" font-size="52.0" fill="#000000" transform="matrix(1.00, 0.00, -0.00, -1.00, 154.9, 346.2)">l</text><text xml:space="preserve" font-family="Palatino-Roman,Palatino" font-size="52.0" fill="#000000" transform="matrix(1.00, 0.00, -0.00, -1.00, 170.1, 346.2)">i</text><text xml:space="preserve" font-family="Palatino-Roman,Palatino" font-size="52.0" fill="#000000" transform="matrix(1.00, 0.00, -0.00, -1.00, 185.2, 346.2)">n</text><text xml:space="preserve" font-family="Palatino-Roman,Palatino" font-size="52.0" fill="#000000" transform="matrix(1.00, 0.00, -0.00, -1.00, 215.5, 346.2)">g</text><text xml:space="preserve" font-family="Palatino-Roman,Palatino" font-size="52.0" fill="#000000" transform="matrix(1.00, 0.00, -0.00, -1.00, 244.4, 346.2)"> </text><text xml:space="preserve" font-family="Palatino-Roman,Palatino" font-size="52.0" fill="#000000" transform="matrix(1.00, 0.00, -0.00, -1.00, 257.4, 346.2)">a</text><text xml:space="preserve" font-family="Palatino-Roman,Palatino" font-size="52.0" fill="#000000" transform="matrix(1.00, 0.00, -0.00, -1.00, 283.4, 346.2)"> </text><text xml:space="preserve" font-family="Palatino-Roman,Palatino" font-size="52.0" fill="#000000" transform="matrix(1.00, 0.00, -0.00, -1.00, 296.4, 346.2)">k</text><text xml:space="preserve" font-family="Palatino-Roman,Palatino" font-size="52.0" fill="#000000" transform="matrix(1.00, 0.00, -0.00, -1.00, 325.3, 346.2)">n</text><text xml:space="preserve" font-family="Palatino-Roman,Palatino" font-size="52.0" fill="#000000" transform="matrix(1.00, 0.00, -0.00, -1.00, 355.6, 346.2)">a</text><text xml:space="preserve" font-family="Palatino-Roman,Palatino" font-size="52.0" fill="#000000" transform="matrix(1.00, 0.00, -0.00, -1.00, 381.6, 346.2)">p</text><text xml:space="preserve" font-family="Palatino-Roman,Palatino" font-size="52.0" fill="#000000" transform="matrix(1.00, 0.00, -0.00, -1.00, 412.9, 346.2)">s</text><text xml:space="preserve" font-family="Palatino-Roman,Palatino" font-size="52.0" fill="#000000" transform="matrix(1.00, 0.00, -0.00, -1.00, 434.9, 346.2)">a</text><text xml:space="preserve" font-family="Palatino-Roman,Palatino" font-size="52.0" fill="#000000" transform="matrix(1.00, 0.00, -0.00, -1.00, 460.9, 346.2)">c</text><text xml:space="preserve" font-family="Palatino-Roman,Palatino" font-size="52.0" fill="#000000" transform="matrix(1.00, 0.00, -0.00, -1.00, 483.9, 346.2)">k</text><text xml:space="preserve" font-family="ZapfDingbatsITC,Zapf Dingbats" font-size="36.4" fill="#5B86B8" transform="matrix(1.00, 0.00, -0.00, -1.00, 1.0, 242.2)">✤</text><text xml:space="preserve" font-family="Palatino-Roman,Palatino" font-size="52.0" fill="#000000" transform="matrix(1.00, 0.00, -0.00, -1.00, 55.7, 236.2)">N</text><text xml:space="preserve" font-family="Palatino-Roman,Palatino" font-size="52.0" fill="#000000" transform="matrix(1.00, 0.00, -0.00, -1.00, 99.0, 236.2)">a</text><text xml:space="preserve" font-family="Palatino-Roman,Palatino" font-size="52.0" fill="#000000" transform="matrix(1.00, 0.00, -0.00, -1.00, 125.0, 236.2)">i</text><text xml:space="preserve" font-family="Palatino-Roman,Palatino" font-size="52.0" fill="#000000" transform="matrix(1.00, 0.00, -0.00, -1.00, 140.1, 236.2)">v</text><text xml:space="preserve" font-family="Palatino-Roman,Palatino" font-size="52.0" fill="#000000" transform="matrix(1.00, 0.00, -0.00, -1.00, 169.5, 236.2)">e</text><text xml:space="preserve" font-family="Palatino-Roman,Palatino" font-size="52.0" fill="#000000" transform="matrix(1.00, 0.00, -0.00, -1.00, 194.4, 236.2)"> </text><text xml:space="preserve" font-family="Palatino-Roman,Palatino" font-size="52.0" fill="#000000" transform="matrix(1.00, 0.00, -0.00, -1.00, 207.4, 236.2)">s</text><text xml:space="preserve" font-family="Palatino-Roman,Palatino" font-size="52.0" fill="#000000" transform="matrix(1.00, 0.00, -0.00, -1.00, 229.4, 236.2)">o</text><text xml:space="preserve" font-family="Palatino-Roman,Palatino" font-size="52.0" fill="#000000" transform="matrix(1.00, 0.00, -0.00, -1.00, 257.8, 236.2)">l</text><text xml:space="preserve" font-family="Palatino-Roman,Palatino" font-size="52.0" fill="#000000" transform="matrix(1.00, 0.00, -0.00, -1.00, 272.9, 236.2)">u</text><text xml:space="preserve" font-family="Palatino-Roman,Palatino" font-size="52.0" fill="#000000" transform="matrix(1.00, 0.00, -0.00, -1.00, 304.3, 236.2)">t</text><text xml:space="preserve" font-family="Palatino-Roman,Palatino" font-size="52.0" fill="#000000" transform="matrix(1.00, 0.00, -0.00, -1.00, 321.2, 236.2)">i</text><text xml:space="preserve" font-family="Palatino-Roman,Palatino" font-size="52.0" fill="#000000" transform="matrix(1.00, 0.00, -0.00, -1.00, 336.4, 236.2)">o</text><text xml:space="preserve" font-family="Palatino-Roman,Palatino" font-size="52.0" fill="#000000" transform="matrix(1.00, 0.00, -0.00, -1.00, 364.8, 236.2)">n</text><text xml:space="preserve" font-family="Palatino-Roman,Palatino" font-size="52.0" fill="#000000" transform="matrix(1.00, 0.00, -0.00, -1.00, 395.0, 236.2)"> </text><text xml:space="preserve" font-family="Palatino-Roman,Palatino" font-size="52.0" fill="#000000" transform="matrix(1.00, 0.00, -0.00, -1.00, 408.0, 236.2)">l</text><text xml:space="preserve" font-family="Palatino-Roman,Palatino" font-size="52.0" fill="#000000" transform="matrix(1.00, 0.00, -0.00, -1.00, 423.2, 236.2)">e</text><text xml:space="preserve" font-family="Palatino-Roman,Palatino" font-size="52.0" fill="#000000" transform="matrix(1.00, 0.00, -0.00, -1.00, 448.1, 236.2)">a</text><text xml:space="preserve" font-family="Palatino-Roman,Palatino" font-size="52.0" fill="#000000" transform="matrix(1.00, 0.00, -0.00, -1.00, 474.1, 236.2)">d</text><text xml:space="preserve" font-family="Palatino-Roman,Palatino" font-size="52.0" fill="#000000" transform="matrix(1.00, 0.00, -0.00, -1.00, 505.8, 236.2)">s</text><text xml:space="preserve" font-family="Palatino-Roman,Palatino" font-size="52.0" fill="#000000" transform="matrix(1.00, 0.00, -0.00, -1.00, 527.8, 236.2)"> </text><text xml:space="preserve" font-family="Palatino-Roman,Palatino" font-size="52.0" fill="#000000" transform="matrix(1.00, 0.00, -0.00, -1.00, 540.8, 236.2)">t</text><text xml:space="preserve" font-family="Palatino-Roman,Palatino" font-size="52.0" fill="#000000" transform="matrix(1.00, 0.00, -0.00, -1.00, 557.8, 236.2)">o</text><text xml:space="preserve" font-family="Palatino-Roman,Palatino" font-size="52.0" fill="#000000" transform="matrix(1.00, 0.00, -0.00, -1.00, 586.2, 236.2)"> </text><text xml:space="preserve" font-family="Palatino-Roman,Palatino" font-size="52.0" fill="#000000" transform="matrix(1.00, 0.00, -0.00, -1.00, 599.2, 236.2)">a</text><text xml:space="preserve" font-family="Palatino-Roman,Palatino" font-size="52.0" fill="#000000" transform="matrix(1.00, 0.00, -0.00, -1.00, 625.2, 236.2)">w</text><text xml:space="preserve" font-family="Palatino-Roman,Palatino" font-size="52.0" fill="#000000" transform="matrix(1.00, 0.00, -0.00, -1.00, 668.6, 236.2)">k</text><text xml:space="preserve" font-family="Palatino-Roman,Palatino" font-size="52.0" fill="#000000" transform="matrix(1.00, 0.00, -0.00, -1.00, 697.5, 236.2)">w</text><text xml:space="preserve" font-family="Palatino-Roman,Palatino" font-size="52.0" fill="#000000" transform="matrix(1.00, 0.00, -0.00, -1.00, 740.9, 236.2)">a</text><text xml:space="preserve" font-family="Palatino-Roman,Palatino" font-size="52.0" fill="#000000" transform="matrix(1.00, 0.00, -0.00, -1.00, 766.9, 236.2)">r</text><text xml:space="preserve" font-family="Palatino-Roman,Palatino" font-size="52.0" fill="#000000" transform="matrix(1.00, 0.00, -0.00, -1.00, 786.5, 236.2)">d</text><text xml:space="preserve" font-family="Palatino-Roman,Palatino" font-size="52.0" fill="#000000" transform="matrix(1.00, 0.00, -0.00, -1.00, 818.2, 236.2)"> </text><text xml:space="preserve" font-family="Palatino-Roman,Palatino" font-size="52.0" fill="#000000" transform="matrix(1.00, 0.00, -0.00, -1.00, 831.2, 236.2)">d</text><text xml:space="preserve" font-family="Palatino-Roman,Palatino" font-size="52.0" fill="#000000" transform="matrix(1.00, 0.00, -0.00, -1.00, 863.0, 236.2)">i</text><text xml:space="preserve" font-family="Palatino-Roman,Palatino" font-size="52.0" fill="#000000" transform="matrix(1.00, 0.00, -0.00, -1.00, 878.1, 236.2)">n</text><text xml:space="preserve" font-family="Palatino-Roman,Palatino" font-size="52.0" fill="#000000" transform="matrix(1.00, 0.00, -0.00, -1.00, 908.4, 236.2)">n</text><text xml:space="preserve" font-family="Palatino-Roman,Palatino" font-size="52.0" fill="#000000" transform="matrix(1.00, 0.00, -0.00, -1.00, 938.7, 236.2)">e</text><text xml:space="preserve" font-family="Palatino-Roman,Palatino" font-size="52.0" fill="#000000" transform="matrix(1.00, 0.00, -0.00, -1.00, 963.6, 236.2)">r</text><text xml:space="preserve" font-family="Palatino-Roman,Palatino" font-size="52.0" fill="#000000" transform="matrix(1.00, 0.00, -0.00, -1.00, 984.1, 236.2)">s</text><text xml:space="preserve" font-family="ZapfDingbatsITC,Zapf Dingbats" font-size="36.4" fill="#5B86B8" transform="matrix(1.00, 0.00, -0.00, -1.00, 41.0, 132.2)">✤</text><text xml:space="preserve" font-family="Palatino-Roman,Palatino" font-size="52.0" fill="#000000" transform="matrix(1.00, 0.00, -0.00, -1.00, 95.7, 126.2)">P</text><text xml:space="preserve" font-family="Palatino-Roman,Palatino" font-size="52.0" fill="#000000" transform="matrix(1.00, 0.00, -0.00, -1.00, 127.1, 126.2)">a</text><text xml:space="preserve" font-family="Palatino-Roman,Palatino" font-size="52.0" fill="#000000" transform="matrix(1.00, 0.00, -0.00, -1.00, 153.1, 126.2)">n</text><text xml:space="preserve" font-family="Palatino-Roman,Palatino" font-size="52.0" fill="#000000" transform="matrix(1.00, 0.00, -0.00, -1.00, 183.4, 126.2)">c</text><text xml:space="preserve" font-family="Palatino-Roman,Palatino" font-size="52.0" fill="#000000" transform="matrix(1.00, 0.00, -0.00, -1.00, 206.5, 126.2)">a</text><text xml:space="preserve" font-family="Palatino-Roman,Palatino" font-size="52.0" fill="#000000" transform="matrix(1.00, 0.00, -0.00, -1.00, 232.5, 126.2)">k</text><text xml:space="preserve" font-family="Palatino-Roman,Palatino" font-size="52.0" fill="#000000" transform="matrix(1.00, 0.00, -0.00, -1.00, 261.4, 126.2)">e</text><text xml:space="preserve" font-family="Palatino-Roman,Palatino" font-size="52.0" fill="#000000" transform="matrix(1.00, 0.00, -0.00, -1.00, 286.3, 126.2)">s</text><text xml:space="preserve" font-family="Palatino-Roman,Palatino" font-size="52.0" fill="#000000" transform="matrix(1.00, 0.00, -0.00, -1.00, 308.3, 126.2)"> </text><text xml:space="preserve" font-family="Palatino-Roman,Palatino" font-size="52.0" fill="#000000" transform="matrix(1.00, 0.00, -0.00, -1.00, 321.3, 126.2)">w</text><text xml:space="preserve" font-family="Palatino-Roman,Palatino" font-size="52.0" fill="#000000" transform="matrix(1.00, 0.00, -0.00, -1.00, 364.7, 126.2)">i</text><text xml:space="preserve" font-family="Palatino-Roman,Palatino" font-size="52.0" fill="#000000" transform="matrix(1.00, 0.00, -0.00, -1.00, 379.8, 126.2)">t</text><text xml:space="preserve" font-family="Palatino-Roman,Palatino" font-size="52.0" fill="#000000" transform="matrix(1.00, 0.00, -0.00, -1.00, 396.8, 126.2)">h</text><text xml:space="preserve" font-family="Palatino-Roman,Palatino" font-size="52.0" fill="#000000" transform="matrix(1.00, 0.00, -0.00, -1.00, 427.1, 126.2)"> </text><text xml:space="preserve" font-family="Palatino-Roman,Palatino" font-size="52.0" fill="#000000" transform="matrix(1.00, 0.00, -0.00, -1.00, 440.1, 126.2)">h</text><text xml:space="preserve" font-family="Palatino-Roman,Palatino" font-size="52.0" fill="#000000" transform="matrix(1.00, 0.00, -0.00, -1.00, 470.4, 126.2)">a</text><text xml:space="preserve" font-family="Palatino-Roman,Palatino" font-size="52.0" fill="#000000" transform="matrix(1.00, 0.00, -0.00, -1.00, 496.4, 126.2)">d</text><text xml:space="preserve" font-family="Palatino-Roman,Palatino" font-size="52.0" fill="#000000" transform="matrix(1.00, 0.00, -0.00, -1.00, 528.1, 126.2)">d</text><text xml:space="preserve" font-family="Palatino-Roman,Palatino" font-size="52.0" fill="#000000" transform="matrix(1.00, 0.00, -0.00, -1.00, 559.9, 126.2)">o</text><text xml:space="preserve" font-family="Palatino-Roman,Palatino" font-size="52.0" fill="#000000" transform="matrix(1.00, 0.00, -0.00, -1.00, 588.2, 126.2)">c</text><text xml:space="preserve" font-family="Palatino-Roman,Palatino" font-size="52.0" fill="#000000" transform="matrix(1.00, 0.00, -0.00, -1.00, 611.3, 126.2)">k</text><text xml:space="preserve" font-family="Palatino-Roman,Palatino" font-size="52.0" fill="#000000" transform="matrix(1.00, 0.00, -0.00, -1.00, 640.2, 126.2)"> </text><text xml:space="preserve" font-family="Palatino-Roman,Palatino" font-size="52.0" fill="#000000" transform="matrix(1.00, 0.00, -0.00, -1.00, 653.2, 126.2)">a</text><text xml:space="preserve" font-family="Palatino-Roman,Palatino" font-size="52.0" fill="#000000" transform="matrix(1.00, 0.00, -0.00, -1.00, 679.2, 126.2)">n</text><text xml:space="preserve" font-family="Palatino-Roman,Palatino" font-size="52.0" fill="#000000" transform="matrix(1.00, 0.00, -0.00, -1.00, 709.5, 126.2)">d</text><text xml:space="preserve" font-family="Palatino-Roman,Palatino" font-size="52.0" fill="#000000" transform="matrix(1.00, 0.00, -0.00, -1.00, 741.3, 126.2)"> </text><text xml:space="preserve" font-family="Palatino-Roman,Palatino" font-size="52.0" fill="#000000" transform="matrix(1.00, 0.00, -0.00, -1.00, 754.3, 126.2)">w</text><text xml:space="preserve" font-family="Palatino-Roman,Palatino" font-size="52.0" fill="#000000" transform="matrix(1.00, 0.00, -0.00, -1.00, 797.6, 126.2)">i</text><text xml:space="preserve" font-family="Palatino-Roman,Palatino" font-size="52.0" fill="#000000" transform="matrix(1.00, 0.00, -0.00, -1.00, 812.8, 126.2)">t</text><text xml:space="preserve" font-family="Palatino-Roman,Palatino" font-size="52.0" fill="#000000" transform="matrix(1.00, 0.00, -0.00, -1.00, 829.7, 126.2)">h</text><text xml:space="preserve" font-family="Palatino-Roman,Palatino" font-size="52.0" fill="#000000" transform="matrix(1.00, 0.00, -0.00, -1.00, 860.0, 126.2)"> </text><text xml:space="preserve" font-family="Palatino-Roman,Palatino" font-size="52.0" fill="#000000" transform="matrix(1.00, 0.00, -0.00, -1.00, 873.0, 126.2)">m</text><text xml:space="preserve" font-family="Palatino-Roman,Palatino" font-size="52.0" fill="#000000" transform="matrix(1.00, 0.00, -0.00, -1.00, 918.9, 126.2)">a</text><text xml:space="preserve" font-family="Palatino-Roman,Palatino" font-size="52.0" fill="#000000" transform="matrix(1.00, 0.00, -0.00, -1.00, 944.9, 126.2)">r</text><text xml:space="preserve" font-family="Palatino-Roman,Palatino" font-size="52.0" fill="#000000" transform="matrix(1.00, 0.00, -0.00, -1.00, 965.4, 126.2)">s</text><text xml:space="preserve" font-family="Palatino-Roman,Palatino" font-size="52.0" fill="#000000" transform="matrix(1.00, 0.00, -0.00, -1.00, 987.5, 126.2)">h</text><text xml:space="preserve" font-family="Palatino-Roman,Palatino" font-size="52.0" fill="#000000" transform="matrix(1.00, 0.00, -0.00, -1.00, 1017.7, 126.2)">m</text><text xml:space="preserve" font-family="Palatino-Roman,Palatino" font-size="52.0" fill="#000000" transform="matrix(1.00, 0.00, -0.00, -1.00, 1063.6, 126.2)">a</text><text xml:space="preserve" font-family="Palatino-Roman,Palatino" font-size="52.0" fill="#000000" transform="matrix(1.00, 0.00, -0.00, -1.00, 1089.6, 126.2)">l</text><text xml:space="preserve" font-family="Palatino-Roman,Palatino" font-size="52.0" fill="#000000" transform="matrix(1.00, 0.00, -0.00, -1.00, 1104.8, 126.2)">l</text><text xml:space="preserve" font-family="Palatino-Roman,Palatino" font-size="52.0" fill="#000000" transform="matrix(1.00, 0.00, -0.00, -1.00, 1119.9, 126.2)">o</text><text xml:space="preserve" font-family="Palatino-Roman,Palatino" font-size="52.0" fill="#000000" transform="matrix(1.00, 0.00, -0.00, -1.00, 1148.3, 126.2)">w</text><text xml:space="preserve" font-family="Palatino-Roman,Palatino" font-size="52.0" fill="#000000" transform="matrix(1.00, 0.00, -0.00, -1.00, 1191.6, 126.2)">s</text><text xml:space="preserve" font-family="ZapfDingbatsITC,Zapf Dingbats" font-size="36.4" fill="#5B86B8" transform="matrix(1.00, 0.00, -0.00, -1.00, 1.0, 22.2)">✤</text><text xml:space="preserve" font-family="Palatino-Roman,Palatino" font-size="52.0" fill="#000000" transform="matrix(1.00, 0.00, -0.00, -1.00, 55.7, 16.2)">S</text><text xml:space="preserve" font-family="Palatino-Roman,Palatino" font-size="52.0" fill="#000000" transform="matrix(1.00, 0.00, -0.00, -1.00, 83.0, 16.2)">o</text><text xml:space="preserve" font-family="Palatino-Roman,Palatino" font-size="52.0" fill="#000000" transform="matrix(1.00, 0.00, -0.00, -1.00, 111.4, 16.2)">l</text><text xml:space="preserve" font-family="Palatino-Roman,Palatino" font-size="52.0" fill="#000000" transform="matrix(1.00, 0.00, -0.00, -1.00, 126.5, 16.2)">u</text><text xml:space="preserve" font-family="Palatino-Roman,Palatino" font-size="52.0" fill="#000000" transform="matrix(1.00, 0.00, -0.00, -1.00, 157.9, 16.2)">t</text><text xml:space="preserve" font-family="Palatino-Roman,Palatino" font-size="52.0" fill="#000000" transform="matrix(1.00, 0.00, -0.00, -1.00, 174.9, 16.2)">i</text><text xml:space="preserve" font-family="Palatino-Roman,Palatino" font-size="52.0" fill="#000000" transform="matrix(1.00, 0.00, -0.00, -1.00, 190.0, 16.2)">o</text><text xml:space="preserve" font-family="Palatino-Roman,Palatino" font-size="52.0" fill="#000000" transform="matrix(1.00, 0.00, -0.00, -1.00, 218.4, 16.2)">n</text><text xml:space="preserve" font-family="Palatino-Roman,Palatino" font-size="52.0" fill="#000000" transform="matrix(1.00, 0.00, -0.00, -1.00, 248.6, 16.2)">:</text><text xml:space="preserve" font-family="Palatino-Roman,Palatino" font-size="52.0" fill="#000000" transform="matrix(1.00, 0.00, -0.00, -1.00, 261.6, 16.2)"> </text><text xml:space="preserve" font-family="Palatino-Roman,Palatino" font-size="52.0" fill="#000000" transform="matrix(1.00, 0.00, -0.00, -1.00, 274.6, 16.2)">l</text><text xml:space="preserve" font-family="Palatino-Roman,Palatino" font-size="52.0" fill="#000000" transform="matrix(1.00, 0.00, -0.00, -1.00, 289.8, 16.2)">e</text><text xml:space="preserve" font-family="Palatino-Roman,Palatino" font-size="52.0" fill="#000000" transform="matrix(1.00, 0.00, -0.00, -1.00, 314.7, 16.2)">a</text><text xml:space="preserve" font-family="Palatino-Roman,Palatino" font-size="52.0" fill="#000000" transform="matrix(1.00, 0.00, -0.00, -1.00, 340.7, 16.2)">r</text><text xml:space="preserve" font-family="Palatino-Roman,Palatino" font-size="52.0" fill="#000000" transform="matrix(1.00, 0.00, -0.00, -1.00, 361.2, 16.2)">n</text><text xml:space="preserve" font-family="Palatino-Roman,Palatino" font-size="52.0" fill="#000000" transform="matrix(1.00, 0.00, -0.00, -1.00, 391.5, 16.2)"> </text><text xml:space="preserve" font-family="Palatino-Roman,Palatino" font-size="52.0" fill="#000000" transform="matrix(1.00, 0.00, -0.00, -1.00, 404.5, 16.2)">n</text><text xml:space="preserve" font-family="Palatino-Roman,Palatino" font-size="52.0" fill="#000000" transform="matrix(1.00, 0.00, -0.00, -1.00, 434.8, 16.2)">a</text><text xml:space="preserve" font-family="Palatino-Roman,Palatino" font-size="52.0" fill="#000000" transform="matrix(1.00, 0.00, -0.00, -1.00, 460.8, 16.2)">t</text><text xml:space="preserve" font-family="Palatino-Roman,Palatino" font-size="52.0" fill="#000000" transform="matrix(1.00, 0.00, -0.00, -1.00, 477.7, 16.2)">u</text><text xml:space="preserve" font-family="Palatino-Roman,Palatino" font-size="52.0" fill="#000000" transform="matrix(1.00, 0.00, -0.00, -1.00, 509.1, 16.2)">r</text><text xml:space="preserve" font-family="Palatino-Roman,Palatino" font-size="52.0" fill="#000000" transform="matrix(1.00, 0.00, -0.00, -1.00, 529.6, 16.2)">a</text><text xml:space="preserve" font-family="Palatino-Roman,Palatino" font-size="52.0" fill="#000000" transform="matrix(1.00, 0.00, -0.00, -1.00, 555.6, 16.2)">l</text><text xml:space="preserve" font-family="Palatino-Roman,Palatino" font-size="52.0" fill="#000000" transform="matrix(1.00, 0.00, -0.00, -1.00, 570.8, 16.2)"> </text><text xml:space="preserve" font-family="Palatino-Roman,Palatino" font-size="52.0" fill="#000000" transform="matrix(1.00, 0.00, -0.00, -1.00, 583.8, 16.2)">d</text><text xml:space="preserve" font-family="Palatino-Roman,Palatino" font-size="52.0" fill="#000000" transform="matrix(1.00, 0.00, -0.00, -1.00, 615.5, 16.2)">i</text><text xml:space="preserve" font-family="Palatino-Roman,Palatino" font-size="52.0" fill="#000000" transform="matrix(1.00, 0.00, -0.00, -1.00, 630.7, 16.2)">n</text><text xml:space="preserve" font-family="Palatino-Roman,Palatino" font-size="52.0" fill="#000000" transform="matrix(1.00, 0.00, -0.00, -1.00, 660.9, 16.2)">n</text><text xml:space="preserve" font-family="Palatino-Roman,Palatino" font-size="52.0" fill="#000000" transform="matrix(1.00, 0.00, -0.00, -1.00, 691.2, 16.2)">e</text><text xml:space="preserve" font-family="Palatino-Roman,Palatino" font-size="52.0" fill="#000000" transform="matrix(1.00, 0.00, -0.00, -1.00, 716.1, 16.2)">r</text><text xml:space="preserve" font-family="Palatino-Roman,Palatino" font-size="52.0" fill="#000000" transform="matrix(1.00, 0.00, -0.00, -1.00, 736.6, 16.2)"> </text><text xml:space="preserve" font-family="Palatino-Roman,Palatino" font-size="52.0" fill="#000000" transform="matrix(1.00, 0.00, -0.00, -1.00, 749.6, 16.2)">c</text><text xml:space="preserve" font-family="Palatino-Roman,Palatino" font-size="52.0" fill="#000000" transform="matrix(1.00, 0.00, -0.00, -1.00, 772.7, 16.2)">o</text><text xml:space="preserve" font-family="Palatino-Roman,Palatino" font-size="52.0" fill="#000000" transform="matrix(1.00, 0.00, -0.00, -1.00, 801.1, 16.2)">m</text><text xml:space="preserve" font-family="Palatino-Roman,Palatino" font-size="52.0" fill="#000000" transform="matrix(1.00, 0.00, -0.00, -1.00, 847.0, 16.2)">p</text><text xml:space="preserve" font-family="Palatino-Roman,Palatino" font-size="52.0" fill="#000000" transform="matrix(1.00, 0.00, -0.00, -1.00, 878.2, 16.2)">o</text><text xml:space="preserve" font-family="Palatino-Roman,Palatino" font-size="52.0" fill="#000000" transform="matrix(1.00, 0.00, -0.00, -1.00, 906.6, 16.2)">s</text><text xml:space="preserve" font-family="Palatino-Roman,Palatino" font-size="52.0" fill="#000000" transform="matrix(1.00, 0.00, -0.00, -1.00, 928.7, 16.2)">i</text><text xml:space="preserve" font-family="Palatino-Roman,Palatino" font-size="52.0" fill="#000000" transform="matrix(1.00, 0.00, -0.00, -1.00, 943.8, 16.2)">t</text><text xml:space="preserve" font-family="Palatino-Roman,Palatino" font-size="52.0" fill="#000000" transform="matrix(1.00, 0.00, -0.00, -1.00, 960.8, 16.2)">i</text><text xml:space="preserve" font-family="Palatino-Roman,Palatino" font-size="52.0" fill="#000000" transform="matrix(1.00, 0.00, -0.00, -1.00, 975.9, 16.2)">o</text><text xml:space="preserve" font-family="Palatino-Roman,Palatino" font-size="52.0" fill="#000000" transform="matrix(1.00, 0.00, -0.00, -1.00, 1004.3, 16.2)">n</text><text xml:space="preserve" font-family="Palatino-Roman,Palatino" font-size="52.0" fill="#000000" transform="matrix(1.00, 0.00, -0.00, -1.00, 1034.5, 16.2)">s</text><text xml:space="preserve" font-family="Palatino-Roman,Palatino" font-size="52.0" fill="#000000" transform="matrix(1.00, 0.00, -0.00, -1.00, 1056.6, 16.2)"> </text><text xml:space="preserve" font-family="Palatino-Roman,Palatino" font-size="52.0" fill="#000000" transform="matrix(1.00, 0.00, -0.00, -1.00, 1069.6, 16.2)">f</text><text xml:space="preserve" font-family="Palatino-Roman,Palatino" font-size="52.0" fill="#000000" transform="matrix(1.00, 0.00, -0.00, -1.00, 1086.9, 16.2)">r</text><text xml:space="preserve" font-family="Palatino-Roman,Palatino" font-size="52.0" fill="#000000" transform="matrix(1.00, 0.00, -0.00, -1.00, 1106.5, 16.2)">o</text><text xml:space="preserve" font-family="Palatino-Roman,Palatino" font-size="52.0" fill="#000000" transform="matrix(1.00, 0.00, -0.00, -1.00, 1134.9, 16.2)">m</text><text xml:space="preserve" font-family="Palatino-Roman,Palatino" font-size="52.0" fill="#000000" transform="matrix(1.00, 0.00, -0.00, -1.00, 1180.8, 16.2)"> </text><text xml:space="preserve" font-family="Palatino-Roman,Palatino" font-size="52.0" fill="#000000" transform="matrix(1.00, 0.00, -0.00, -1.00, 1193.8, 16.2)">d</text><text xml:space="preserve" font-family="Palatino-Roman,Palatino" font-size="52.0" fill="#000000" transform="matrix(1.00, 0.00, -0.00, -1.00, 1225.5, 16.2)">a</text><text xml:space="preserve" font-family="Palatino-Roman,Palatino" font-size="52.0" fill="#000000" transform="matrix(1.00, 0.00, -0.00, -1.00, 1251.5, 16.2)">t</text><text xml:space="preserve" font-family="Palatino-Roman,Palatino" font-size="52.0" fill="#000000" transform="matrix(1.00, 0.00, -0.00, -1.00, 1268.5, 16.2)">a</text></g></svg>