<?xml version="1.0" encoding="UTF-8" standalone="no"?><svg xmlns="http://www.w3.org/2000/svg" xmlns:xlink="http://www.w3.org/1999/xlink" clip-rule="evenodd" stroke-miterlimit="10" viewBox="0 0 1920 1080"><desc>SVG generated by Keynote</desc><defs></defs><g transform="matrix(1.00, 0.00, -0.00, -1.00, 0.0, 1080.0)"><g><clipPath id="clip0x600001cab640"><path d="M 0.0 1080.0 L 1920.0 1080.0 L 1920.0 0.0 L 0.0 0.0 Z M 0.0 1080.0 "></path></clipPath><g clip-path="url(#clip0x600001cab640)"><image xlink:href="../../CABF5236-1324-4602-9291-A4670FFDE0C7/assets/1783979FC7716684DCC3F94F50982FFC.jpeg" width="2048.00" height="1536.00" transform="matrix(0.94, 0.00, -0.00, -0.70, 0.0, 1080.0)"></image></g></g><path d="M 0.0 0.4 L 1350.0 0.4 L 1350.0 0.4 L 0.0 0.4 Z M 0.0 0.0 " fill="none" stroke="#7995B9" stroke-width="1.00" transform="matrix(1.00, 0.00, 0.00, -1.00, 285.0, 795.9)"></path><path d="M 0.0 -0.2 L 1350.0 -0.2 L 1350.0 -0.2 L 0.0 -0.2 Z M 0.0 0.0 " fill="none" stroke="#7995B9" stroke-width="1.00" transform="matrix(1.00, 0.00, 0.00, -1.00, 285.0, 790.3)"></path><image xlink:href="0DAD4B6F016AAC2067D2A8C9F506E12A.jpeg" width="1292.00" height="720.00" transform="matrix(1.00, 0.00, -0.00, -1.00, 314.0, 776.2)"></image><text xml:space="preserve" font-family="Didot,Didot" font-size="90.0" fill="#304863" transform="matrix(1.00, 0.00, -0.00, -1.00, 285.0, 889.2)">I</text><text xml:space="preserve" font-family="Didot,Didot" font-size="90.0" fill="#304863" transform="matrix(1.00, 0.00, -0.00, -1.00, 318.1, 889.2)">n</text><text xml:space="preserve" font-family="Didot,Didot" font-size="90.0" fill="#304863" transform="matrix(1.00, 0.00, -0.00, -1.00, 371.3, 889.2)">t</text><text xml:space="preserve" font-family="Didot,Didot" font-size="90.0" fill="#304863" transform="matrix(1.00, 0.00, -0.00, -1.00, 399.5, 889.2)">e</text><text xml:space="preserve" font-family="Didot,Didot" font-size="90.0" fill="#304863" transform="matrix(1.00, 0.00, -0.00, -1.00, 442.7, 889.2)">r</text><text xml:space="preserve" font-family="Didot,Didot" font-size="90.0" fill="#304863" transform="matrix(1.00, 0.00, -0.00, -1.00, 477.5, 889.2)">a</text><text xml:space="preserve" font-family="Didot,Didot" font-size="90.0" fill="#304863" transform="matrix(1.00, 0.00, -0.00, -1.00, 519.0, 889.2)">c</text><text xml:space="preserve" font-family="Didot,Didot" font-size="90.0" fill="#304863" transform="matrix(1.00, 0.00, -0.00, -1.00, 560.5, 889.2)">t</text><text xml:space="preserve" font-family="Didot,Didot" font-size="90.0" fill="#304863" transform="matrix(1.00, 0.00, -0.00, -1.00, 588.7, 889.2)">i</text><text xml:space="preserve" font-family="Didot,Didot" font-size="90.0" fill="#304863" transform="matrix(1.00, 0.00, -0.00, -1.00, 613.5, 889.2)">v</text><text xml:space="preserve" font-family="Didot,Didot" font-size="90.0" fill="#304863" transform="matrix(1.00, 0.00, -0.00, -1.00, 654.1, 889.2)">e</text><text xml:space="preserve" font-family="Didot,Didot" font-size="90.0" fill="#304863" transform="matrix(1.00, 0.00, -0.00, -1.00, 697.3, 889.2)"> </text><text xml:space="preserve" font-family="Didot,Didot" font-size="90.0" fill="#304863" transform="matrix(1.00, 0.00, -0.00, -1.00, 720.5, 889.2)">C</text><text xml:space="preserve" font-family="Didot,Didot" font-size="90.0" fill="#304863" transform="matrix(1.00, 0.00, -0.00, -1.00, 783.7, 889.2)">u</text><text xml:space="preserve" font-family="Didot,Didot" font-size="90.0" fill="#304863" transform="matrix(1.00, 0.00, -0.00, -1.00, 835.3, 889.2)">i</text><text xml:space="preserve" font-family="Didot,Didot" font-size="90.0" fill="#304863" transform="matrix(1.00, 0.00, -0.00, -1.00, 860.1, 889.2)">s</text><text xml:space="preserve" font-family="Didot,Didot" font-size="90.0" fill="#304863" transform="matrix(1.00, 0.00, -0.00, -1.00, 896.6, 889.2)">i</text><text xml:space="preserve" font-family="Didot,Didot" font-size="90.0" fill="#304863" transform="matrix(1.00, 0.00, -0.00, -1.00, 921.5, 889.2)">n</text><text xml:space="preserve" font-family="Didot,Didot" font-size="90.0" fill="#304863" transform="matrix(1.00, 0.00, -0.00, -1.00, 974.7, 889.2)">e</text><text xml:space="preserve" font-family="Didot,Didot" font-size="90.0" fill="#304863" transform="matrix(1.00, 0.00, -0.00, -1.00, 1017.9, 889.2)"> </text><text xml:space="preserve" font-family="Didot,Didot" font-size="90.0" fill="#304863" transform="matrix(1.00, 0.00, -0.00, -1.00, 1041.1, 889.2)">M</text><text xml:space="preserve" font-family="Didot,Didot" font-size="90.0" fill="#304863" transform="matrix(1.00, 0.00, -0.00, -1.00, 1117.6, 889.2)">a</text><text xml:space="preserve" font-family="Didot,Didot" font-size="90.0" fill="#304863" transform="matrix(1.00, 0.00, -0.00, -1.00, 1159.1, 889.2)">p</text></g></svg>