<?xml version="1.0" encoding="UTF-8" standalone="no"?><svg xmlns="http://www.w3.org/2000/svg" xmlns:xlink="http://www.w3.org/1999/xlink" clip-rule="evenodd" stroke-miterlimit="10" viewBox="0 0 1920 1080"><desc>SVG generated by Keynote</desc><defs><linearGradient id="gradSh1.0" x1="0.0" y1="0.0" x2="100.0" y2="0.0" gradientUnits="userSpaceOnUse" gradientTransform="matrix(0.00, -0.55, -1.65, 0.00, 1530.2, 115.3)"><stop offset="0.00000" stop-color="#F0D3FD"></stop><stop offset="0.00660" stop-color="#F0D2FD"></stop><stop offset="1.00000" stop-color="#D480FC"></stop></linearGradient></defs><g transform="matrix(1.00, 0.00, -0.00, -1.00, 0.0, 1080.0)"><g><clipPath id="clip0x6100008a4ec0"><path d="M 0.0 1080.0 L 1920.0 1080.0 L 1920.0 0.0 L 0.0 0.0 Z M 0.0 1080.0 "></path></clipPath><g clip-path="url(#clip0x6100008a4ec0)"><image xlink:href="../../CABF5236-1324-4602-9291-A4670FFDE0C7/assets/1783979FC7716684DCC3F94F50982FFC.jpeg" width="2048.00" height="1536.00" transform="matrix(0.94, 0.00, -0.00, -0.70, 0.0, 1080.0)"></image></g></g><path d="M 0.0 0.4 L 1350.0 0.4 L 1350.0 0.4 L 0.0 0.4 Z M 0.0 0.0 " fill="none" stroke="#7995B9" stroke-width="1.00" transform="matrix(1.00, 0.00, 0.00, -1.00, 285.0, 795.9)"></path><path d="M 0.0 -0.2 L 1350.0 -0.2 L 1350.0 -0.2 L 0.0 -0.2 Z M 0.0 0.0 " fill="none" stroke="#7995B9" stroke-width="1.00" transform="matrix(1.00, 0.00, 0.00, -1.00, 285.0, 790.3)"></path><text xml:space="preserve" font-family="Didot,Didot" font-size="90.0" fill="#304863" transform="matrix(1.00, 0.00, -0.00, -1.00, 285.0, 889.2)">C</text><text xml:space="preserve" font-family="Didot,Didot" font-size="90.0" fill="#304863" transform="matrix(1.00, 0.00, -0.00, -1.00, 348.2, 889.2)">a</text><text xml:space="preserve" font-family="Didot,Didot" font-size="90.0" fill="#304863" transform="matrix(1.00, 0.00, -0.00, -1.00, 389.7, 889.2)">l</text><text xml:space="preserve" font-family="Didot,Didot" font-size="90.0" fill="#304863" transform="matrix(1.00, 0.00, -0.00, -1.00, 414.5, 889.2)">o</text><text xml:space="preserve" font-family="Didot,Didot" font-size="90.0" fill="#304863" transform="matrix(1.00, 0.00, -0.00, -1.00, 462.8, 889.2)">r</text><text xml:space="preserve" font-family="Didot,Didot" font-size="90.0" fill="#304863" transform="matrix(1.00, 0.00, -0.00, -1.00, 497.6, 889.2)">i</text><text xml:space="preserve" font-family="Didot,Didot" font-size="90.0" fill="#304863" transform="matrix(1.00, 0.00, -0.00, -1.00, 522.4, 889.2)">e</text><text xml:space="preserve" font-family="Didot,Didot" font-size="90.0" fill="#304863" transform="matrix(1.00, 0.00, -0.00, -1.00, 565.6, 889.2)"> </text><text xml:space="preserve" font-family="Didot,Didot" font-size="90.0" fill="#304863" transform="matrix(1.00, 0.00, -0.00, -1.00, 588.8, 889.2)">C</text><text xml:space="preserve" font-family="Didot,Didot" font-size="90.0" fill="#304863" transform="matrix(1.00, 0.00, -0.00, -1.00, 652.0, 889.2)">o</text><text xml:space="preserve" font-family="Didot,Didot" font-size="90.0" fill="#304863" transform="matrix(1.00, 0.00, -0.00, -1.00, 700.3, 889.2)">u</text><text xml:space="preserve" font-family="Didot,Didot" font-size="90.0" fill="#304863" transform="matrix(1.00, 0.00, -0.00, -1.00, 751.8, 889.2)">n</text><text xml:space="preserve" font-family="Didot,Didot" font-size="90.0" fill="#304863" transform="matrix(1.00, 0.00, -0.00, -1.00, 805.0, 889.2)">t</text><text xml:space="preserve" font-family="Didot,Didot" font-size="90.0" fill="#304863" transform="matrix(1.00, 0.00, -0.00, -1.00, 833.2, 889.2)">i</text><text xml:space="preserve" font-family="Didot,Didot" font-size="90.0" fill="#304863" transform="matrix(1.00, 0.00, -0.00, -1.00, 858.0, 889.2)">n</text><text xml:space="preserve" font-family="Didot,Didot" font-size="90.0" fill="#304863" transform="matrix(1.00, 0.00, -0.00, -1.00, 911.2, 889.2)">g</text><text xml:space="preserve" font-family="ZapfDingbatsITC,Zapf Dingbats" font-size="36.4" fill="#5B86B8" transform="matrix(1.00, 0.00, -0.00, -1.00, 285.0, 606.3)">✤</text><text xml:space="preserve" font-family="Palatino-Roman,Palatino" font-size="52.0" fill="#000000" transform="matrix(1.00, 0.00, -0.00, -1.00, 339.7, 600.3)">P</text><text xml:space="preserve" font-family="Palatino-Roman,Palatino" font-size="52.0" fill="#000000" transform="matrix(1.00, 0.00, -0.00, -1.00, 371.1, 600.3)">r</text><text xml:space="preserve" font-family="Palatino-Roman,Palatino" font-size="52.0" fill="#000000" transform="matrix(1.00, 0.00, -0.00, -1.00, 390.8, 600.3)">o</text><text xml:space="preserve" font-family="Palatino-Roman,Palatino" font-size="52.0" fill="#000000" transform="matrix(1.00, 0.00, -0.00, -1.00, 419.2, 600.3)">b</text><text xml:space="preserve" font-family="Palatino-Roman,Palatino" font-size="52.0" fill="#000000" transform="matrix(1.00, 0.00, -0.00, -1.00, 447.9, 600.3)">l</text><text xml:space="preserve" font-family="Palatino-Roman,Palatino" font-size="52.0" fill="#000000" transform="matrix(1.00, 0.00, -0.00, -1.00, 463.1, 600.3)">e</text><text xml:space="preserve" font-family="Palatino-Roman,Palatino" font-size="52.0" fill="#000000" transform="matrix(1.00, 0.00, -0.00, -1.00, 488.0, 600.3)">m</text><text xml:space="preserve" font-family="Palatino-Roman,Palatino" font-size="52.0" fill="#000000" transform="matrix(1.00, 0.00, -0.00, -1.00, 533.9, 600.3)"> </text><text xml:space="preserve" font-family="Palatino-Roman,Palatino" font-size="52.0" fill="#000000" transform="matrix(1.00, 0.00, -0.00, -1.00, 546.9, 600.3)">s</text><text xml:space="preserve" font-family="Palatino-Roman,Palatino" font-size="52.0" fill="#000000" transform="matrix(1.00, 0.00, -0.00, -1.00, 568.9, 600.3)">o</text><text xml:space="preserve" font-family="Palatino-Roman,Palatino" font-size="52.0" fill="#000000" transform="matrix(1.00, 0.00, -0.00, -1.00, 597.3, 600.3)">l</text><text xml:space="preserve" font-family="Palatino-Roman,Palatino" font-size="52.0" fill="#000000" transform="matrix(1.00, 0.00, -0.00, -1.00, 612.4, 600.3)">u</text><text xml:space="preserve" font-family="Palatino-Roman,Palatino" font-size="52.0" fill="#000000" transform="matrix(1.00, 0.00, -0.00, -1.00, 643.8, 600.3)">t</text><text xml:space="preserve" font-family="Palatino-Roman,Palatino" font-size="52.0" fill="#000000" transform="matrix(1.00, 0.00, -0.00, -1.00, 660.7, 600.3)">i</text><text xml:space="preserve" font-family="Palatino-Roman,Palatino" font-size="52.0" fill="#000000" transform="matrix(1.00, 0.00, -0.00, -1.00, 675.9, 600.3)">o</text><text xml:space="preserve" font-family="Palatino-Roman,Palatino" font-size="52.0" fill="#000000" transform="matrix(1.00, 0.00, -0.00, -1.00, 704.3, 600.3)">n</text><text xml:space="preserve" font-family="Palatino-Roman,Palatino" font-size="52.0" fill="#000000" transform="matrix(1.00, 0.00, -0.00, -1.00, 734.5, 600.3)"> </text><text xml:space="preserve" font-family="Palatino-Roman,Palatino" font-size="52.0" fill="#000000" transform="matrix(1.00, 0.00, -0.00, -1.00, 747.5, 600.3)">i</text><text xml:space="preserve" font-family="Palatino-Roman,Palatino" font-size="52.0" fill="#000000" transform="matrix(1.00, 0.00, -0.00, -1.00, 762.7, 600.3)">s</text><text xml:space="preserve" font-family="Palatino-Roman,Palatino" font-size="52.0" fill="#000000" transform="matrix(1.00, 0.00, -0.00, -1.00, 784.7, 600.3)"> </text><text xml:space="preserve" font-family="Palatino-Roman,Palatino" font-size="52.0" fill="#000000" transform="matrix(1.00, 0.00, -0.00, -1.00, 797.7, 600.3)">n</text><text xml:space="preserve" font-family="Palatino-Roman,Palatino" font-size="52.0" fill="#000000" transform="matrix(1.00, 0.00, -0.00, -1.00, 827.9, 600.3)">a</text><text xml:space="preserve" font-family="Palatino-Roman,Palatino" font-size="52.0" fill="#000000" transform="matrix(1.00, 0.00, -0.00, -1.00, 853.9, 600.3)">i</text><text xml:space="preserve" font-family="Palatino-Roman,Palatino" font-size="52.0" fill="#000000" transform="matrix(1.00, 0.00, -0.00, -1.00, 869.1, 600.3)">v</text><text xml:space="preserve" font-family="Palatino-Roman,Palatino" font-size="52.0" fill="#000000" transform="matrix(1.00, 0.00, -0.00, -1.00, 898.5, 600.3)">e</text><text xml:space="preserve" font-family="Palatino-Roman,Palatino" font-size="52.0" fill="#000000" transform="matrix(1.00, 0.00, -0.00, -1.00, 923.4, 600.3)">l</text><text xml:space="preserve" font-family="Palatino-Roman,Palatino" font-size="52.0" fill="#000000" transform="matrix(1.00, 0.00, -0.00, -1.00, 938.5, 600.3)">y</text><text xml:space="preserve" font-family="Palatino-Roman,Palatino" font-size="52.0" fill="#000000" transform="matrix(1.00, 0.00, -0.00, -1.00, 967.4, 600.3)"> </text><text xml:space="preserve" font-family="Palatino-Roman,Palatino" font-size="52.0" fill="#000000" transform="matrix(1.00, 0.00, -0.00, -1.00, 980.4, 600.3)">s</text><text xml:space="preserve" font-family="Palatino-Roman,Palatino" font-size="52.0" fill="#000000" transform="matrix(1.00, 0.00, -0.00, -1.00, 1002.5, 600.3)">i</text><text xml:space="preserve" font-family="Palatino-Roman,Palatino" font-size="52.0" fill="#000000" transform="matrix(1.00, 0.00, -0.00, -1.00, 1017.6, 600.3)">m</text><text xml:space="preserve" font-family="Palatino-Roman,Palatino" font-size="52.0" fill="#000000" transform="matrix(1.00, 0.00, -0.00, -1.00, 1063.5, 600.3)">p</text><text xml:space="preserve" font-family="Palatino-Roman,Palatino" font-size="52.0" fill="#000000" transform="matrix(1.00, 0.00, -0.00, -1.00, 1094.7, 600.3)">l</text><text xml:space="preserve" font-family="Palatino-Roman,Palatino" font-size="52.0" fill="#000000" transform="matrix(1.00, 0.00, -0.00, -1.00, 1109.9, 600.3)">e</text><text xml:space="preserve" font-family="ZapfDingbatsITC,Zapf Dingbats" font-size="36.4" fill="#5B86B8" transform="matrix(1.00, 0.00, -0.00, -1.00, 325.0, 496.3)">✤</text><text xml:space="preserve" font-family="Palatino-Roman,Palatino" font-size="52.0" fill="#000000" transform="matrix(1.00, 0.00, -0.00, -1.00, 379.7, 490.3)">F</text><text xml:space="preserve" font-family="Palatino-Roman,Palatino" font-size="52.0" fill="#000000" transform="matrix(1.00, 0.00, -0.00, -1.00, 408.7, 490.3)">i</text><text xml:space="preserve" font-family="Palatino-Roman,Palatino" font-size="52.0" fill="#000000" transform="matrix(1.00, 0.00, -0.00, -1.00, 423.8, 490.3)">l</text><text xml:space="preserve" font-family="Palatino-Roman,Palatino" font-size="52.0" fill="#000000" transform="matrix(1.00, 0.00, -0.00, -1.00, 438.9, 490.3)">l</text><text xml:space="preserve" font-family="Palatino-Roman,Palatino" font-size="52.0" fill="#000000" transform="matrix(1.00, 0.00, -0.00, -1.00, 454.1, 490.3)">i</text><text xml:space="preserve" font-family="Palatino-Roman,Palatino" font-size="52.0" fill="#000000" transform="matrix(1.00, 0.00, -0.00, -1.00, 469.2, 490.3)">n</text><text xml:space="preserve" font-family="Palatino-Roman,Palatino" font-size="52.0" fill="#000000" transform="matrix(1.00, 0.00, -0.00, -1.00, 499.5, 490.3)">g</text><text xml:space="preserve" font-family="Palatino-Roman,Palatino" font-size="52.0" fill="#000000" transform="matrix(1.00, 0.00, -0.00, -1.00, 528.4, 490.3)"> </text><text xml:space="preserve" font-family="Palatino-Roman,Palatino" font-size="52.0" fill="#000000" transform="matrix(1.00, 0.00, -0.00, -1.00, 541.4, 490.3)">a</text><text xml:space="preserve" font-family="Palatino-Roman,Palatino" font-size="52.0" fill="#000000" transform="matrix(1.00, 0.00, -0.00, -1.00, 567.4, 490.3)"> </text><text xml:space="preserve" font-family="Palatino-Roman,Palatino" font-size="52.0" fill="#000000" transform="matrix(1.00, 0.00, -0.00, -1.00, 580.4, 490.3)">k</text><text xml:space="preserve" font-family="Palatino-Roman,Palatino" font-size="52.0" fill="#000000" transform="matrix(1.00, 0.00, -0.00, -1.00, 609.3, 490.3)">n</text><text xml:space="preserve" font-family="Palatino-Roman,Palatino" font-size="52.0" fill="#000000" transform="matrix(1.00, 0.00, -0.00, -1.00, 639.6, 490.3)">a</text><text xml:space="preserve" font-family="Palatino-Roman,Palatino" font-size="52.0" fill="#000000" transform="matrix(1.00, 0.00, -0.00, -1.00, 665.6, 490.3)">p</text><text xml:space="preserve" font-family="Palatino-Roman,Palatino" font-size="52.0" fill="#000000" transform="matrix(1.00, 0.00, -0.00, -1.00, 696.9, 490.3)">s</text><text xml:space="preserve" font-family="Palatino-Roman,Palatino" font-size="52.0" fill="#000000" transform="matrix(1.00, 0.00, -0.00, -1.00, 718.9, 490.3)">a</text><text xml:space="preserve" font-family="Palatino-Roman,Palatino" font-size="52.0" fill="#000000" transform="matrix(1.00, 0.00, -0.00, -1.00, 744.9, 490.3)">c</text><text xml:space="preserve" font-family="Palatino-Roman,Palatino" font-size="52.0" fill="#000000" transform="matrix(1.00, 0.00, -0.00, -1.00, 767.9, 490.3)">k</text><text xml:space="preserve" font-family="ZapfDingbatsITC,Zapf Dingbats" font-size="36.4" fill="#5B86B8" transform="matrix(1.00, 0.00, -0.00, -1.00, 285.0, 386.3)">✤</text><text xml:space="preserve" font-family="Palatino-Roman,Palatino" font-size="52.0" fill="#000000" transform="matrix(1.00, 0.00, -0.00, -1.00, 339.7, 380.3)">N</text><text xml:space="preserve" font-family="Palatino-Roman,Palatino" font-size="52.0" fill="#000000" transform="matrix(1.00, 0.00, -0.00, -1.00, 383.0, 380.3)">a</text><text xml:space="preserve" font-family="Palatino-Roman,Palatino" font-size="52.0" fill="#000000" transform="matrix(1.00, 0.00, -0.00, -1.00, 409.0, 380.3)">i</text><text xml:space="preserve" font-family="Palatino-Roman,Palatino" font-size="52.0" fill="#000000" transform="matrix(1.00, 0.00, -0.00, -1.00, 424.1, 380.3)">v</text><text xml:space="preserve" font-family="Palatino-Roman,Palatino" font-size="52.0" fill="#000000" transform="matrix(1.00, 0.00, -0.00, -1.00, 453.5, 380.3)">e</text><text xml:space="preserve" font-family="Palatino-Roman,Palatino" font-size="52.0" fill="#000000" transform="matrix(1.00, 0.00, -0.00, -1.00, 478.4, 380.3)"> </text><text xml:space="preserve" font-family="Palatino-Roman,Palatino" font-size="52.0" fill="#000000" transform="matrix(1.00, 0.00, -0.00, -1.00, 491.4, 380.3)">s</text><text xml:space="preserve" font-family="Palatino-Roman,Palatino" font-size="52.0" fill="#000000" transform="matrix(1.00, 0.00, -0.00, -1.00, 513.4, 380.3)">o</text><text xml:space="preserve" font-family="Palatino-Roman,Palatino" font-size="52.0" fill="#000000" transform="matrix(1.00, 0.00, -0.00, -1.00, 541.8, 380.3)">l</text><text xml:space="preserve" font-family="Palatino-Roman,Palatino" font-size="52.0" fill="#000000" transform="matrix(1.00, 0.00, -0.00, -1.00, 556.9, 380.3)">u</text><text xml:space="preserve" font-family="Palatino-Roman,Palatino" font-size="52.0" fill="#000000" transform="matrix(1.00, 0.00, -0.00, -1.00, 588.3, 380.3)">t</text><text xml:space="preserve" font-family="Palatino-Roman,Palatino" font-size="52.0" fill="#000000" transform="matrix(1.00, 0.00, -0.00, -1.00, 605.2, 380.3)">i</text><text xml:space="preserve" font-family="Palatino-Roman,Palatino" font-size="52.0" fill="#000000" transform="matrix(1.00, 0.00, -0.00, -1.00, 620.4, 380.3)">o</text><text xml:space="preserve" font-family="Palatino-Roman,Palatino" font-size="52.0" fill="#000000" transform="matrix(1.00, 0.00, -0.00, -1.00, 648.8, 380.3)">n</text><text xml:space="preserve" font-family="Palatino-Roman,Palatino" font-size="52.0" fill="#000000" transform="matrix(1.00, 0.00, -0.00, -1.00, 679.0, 380.3)"> </text><text xml:space="preserve" font-family="Palatino-Roman,Palatino" font-size="52.0" fill="#000000" transform="matrix(1.00, 0.00, -0.00, -1.00, 692.0, 380.3)">l</text><text xml:space="preserve" font-family="Palatino-Roman,Palatino" font-size="52.0" fill="#000000" transform="matrix(1.00, 0.00, -0.00, -1.00, 707.2, 380.3)">e</text><text xml:space="preserve" font-family="Palatino-Roman,Palatino" font-size="52.0" fill="#000000" transform="matrix(1.00, 0.00, -0.00, -1.00, 732.1, 380.3)">a</text><text xml:space="preserve" font-family="Palatino-Roman,Palatino" font-size="52.0" fill="#000000" transform="matrix(1.00, 0.00, -0.00, -1.00, 758.1, 380.3)">d</text><text xml:space="preserve" font-family="Palatino-Roman,Palatino" font-size="52.0" fill="#000000" transform="matrix(1.00, 0.00, -0.00, -1.00, 789.8, 380.3)">s</text><text xml:space="preserve" font-family="Palatino-Roman,Palatino" font-size="52.0" fill="#000000" transform="matrix(1.00, 0.00, -0.00, -1.00, 811.8, 380.3)"> </text><text xml:space="preserve" font-family="Palatino-Roman,Palatino" font-size="52.0" fill="#000000" transform="matrix(1.00, 0.00, -0.00, -1.00, 824.8, 380.3)">t</text><text xml:space="preserve" font-family="Palatino-Roman,Palatino" font-size="52.0" fill="#000000" transform="matrix(1.00, 0.00, -0.00, -1.00, 841.8, 380.3)">o</text><text xml:space="preserve" font-family="Palatino-Roman,Palatino" font-size="52.0" fill="#000000" transform="matrix(1.00, 0.00, -0.00, -1.00, 870.2, 380.3)"> </text><text xml:space="preserve" font-family="Palatino-Roman,Palatino" font-size="52.0" fill="#000000" transform="matrix(1.00, 0.00, -0.00, -1.00, 883.2, 380.3)">a</text><text xml:space="preserve" font-family="Palatino-Roman,Palatino" font-size="52.0" fill="#000000" transform="matrix(1.00, 0.00, -0.00, -1.00, 909.2, 380.3)">w</text><text xml:space="preserve" font-family="Palatino-Roman,Palatino" font-size="52.0" fill="#000000" transform="matrix(1.00, 0.00, -0.00, -1.00, 952.6, 380.3)">k</text><text xml:space="preserve" font-family="Palatino-Roman,Palatino" font-size="52.0" fill="#000000" transform="matrix(1.00, 0.00, -0.00, -1.00, 981.5, 380.3)">w</text><text xml:space="preserve" font-family="Palatino-Roman,Palatino" font-size="52.0" fill="#000000" transform="matrix(1.00, 0.00, -0.00, -1.00, 1024.9, 380.3)">a</text><text xml:space="preserve" font-family="Palatino-Roman,Palatino" font-size="52.0" fill="#000000" transform="matrix(1.00, 0.00, -0.00, -1.00, 1050.9, 380.3)">r</text><text xml:space="preserve" font-family="Palatino-Roman,Palatino" font-size="52.0" fill="#000000" transform="matrix(1.00, 0.00, -0.00, -1.00, 1070.5, 380.3)">d</text><text xml:space="preserve" font-family="Palatino-Roman,Palatino" font-size="52.0" fill="#000000" transform="matrix(1.00, 0.00, -0.00, -1.00, 1102.2, 380.3)"> </text><text xml:space="preserve" font-family="Palatino-Roman,Palatino" font-size="52.0" fill="#000000" transform="matrix(1.00, 0.00, -0.00, -1.00, 1115.2, 380.3)">d</text><text xml:space="preserve" font-family="Palatino-Roman,Palatino" font-size="52.0" fill="#000000" transform="matrix(1.00, 0.00, -0.00, -1.00, 1147.0, 380.3)">i</text><text xml:space="preserve" font-family="Palatino-Roman,Palatino" font-size="52.0" fill="#000000" transform="matrix(1.00, 0.00, -0.00, -1.00, 1162.1, 380.3)">n</text><text xml:space="preserve" font-family="Palatino-Roman,Palatino" font-size="52.0" fill="#000000" transform="matrix(1.00, 0.00, -0.00, -1.00, 1192.4, 380.3)">n</text><text xml:space="preserve" font-family="Palatino-Roman,Palatino" font-size="52.0" fill="#000000" transform="matrix(1.00, 0.00, -0.00, -1.00, 1222.7, 380.3)">e</text><text xml:space="preserve" font-family="Palatino-Roman,Palatino" font-size="52.0" fill="#000000" transform="matrix(1.00, 0.00, -0.00, -1.00, 1247.6, 380.3)">r</text><text xml:space="preserve" font-family="Palatino-Roman,Palatino" font-size="52.0" fill="#000000" transform="matrix(1.00, 0.00, -0.00, -1.00, 1268.1, 380.3)">s</text><text xml:space="preserve" font-family="ZapfDingbatsITC,Zapf Dingbats" font-size="36.4" fill="#5B86B8" transform="matrix(1.00, 0.00, -0.00, -1.00, 325.0, 276.3)">✤</text><text xml:space="preserve" font-family="Palatino-Roman,Palatino" font-size="52.0" fill="#000000" transform="matrix(1.00, 0.00, -0.00, -1.00, 379.7, 270.3)">P</text><text xml:space="preserve" font-family="Palatino-Roman,Palatino" font-size="52.0" fill="#000000" transform="matrix(1.00, 0.00, -0.00, -1.00, 411.1, 270.3)">a</text><text xml:space="preserve" font-family="Palatino-Roman,Palatino" font-size="52.0" fill="#000000" transform="matrix(1.00, 0.00, -0.00, -1.00, 437.1, 270.3)">n</text><text xml:space="preserve" font-family="Palatino-Roman,Palatino" font-size="52.0" fill="#000000" transform="matrix(1.00, 0.00, -0.00, -1.00, 467.4, 270.3)">c</text><text xml:space="preserve" font-family="Palatino-Roman,Palatino" font-size="52.0" fill="#000000" transform="matrix(1.00, 0.00, -0.00, -1.00, 490.5, 270.3)">a</text><text xml:space="preserve" font-family="Palatino-Roman,Palatino" font-size="52.0" fill="#000000" transform="matrix(1.00, 0.00, -0.00, -1.00, 516.5, 270.3)">k</text><text xml:space="preserve" font-family="Palatino-Roman,Palatino" font-size="52.0" fill="#000000" transform="matrix(1.00, 0.00, -0.00, -1.00, 545.4, 270.3)">e</text><text xml:space="preserve" font-family="Palatino-Roman,Palatino" font-size="52.0" fill="#000000" transform="matrix(1.00, 0.00, -0.00, -1.00, 570.3, 270.3)">s</text><text xml:space="preserve" font-family="Palatino-Roman,Palatino" font-size="52.0" fill="#000000" transform="matrix(1.00, 0.00, -0.00, -1.00, 592.3, 270.3)"> </text><text xml:space="preserve" font-family="Palatino-Roman,Palatino" font-size="52.0" fill="#000000" transform="matrix(1.00, 0.00, -0.00, -1.00, 605.3, 270.3)">w</text><text xml:space="preserve" font-family="Palatino-Roman,Palatino" font-size="52.0" fill="#000000" transform="matrix(1.00, 0.00, -0.00, -1.00, 648.7, 270.3)">i</text><text xml:space="preserve" font-family="Palatino-Roman,Palatino" font-size="52.0" fill="#000000" transform="matrix(1.00, 0.00, -0.00, -1.00, 663.8, 270.3)">t</text><text xml:space="preserve" font-family="Palatino-Roman,Palatino" font-size="52.0" fill="#000000" transform="matrix(1.00, 0.00, -0.00, -1.00, 680.8, 270.3)">h</text><text xml:space="preserve" font-family="Palatino-Roman,Palatino" font-size="52.0" fill="#000000" transform="matrix(1.00, 0.00, -0.00, -1.00, 711.1, 270.3)"> </text><text xml:space="preserve" font-family="Palatino-Roman,Palatino" font-size="52.0" fill="#000000" transform="matrix(1.00, 0.00, -0.00, -1.00, 724.1, 270.3)">h</text><text xml:space="preserve" font-family="Palatino-Roman,Palatino" font-size="52.0" fill="#000000" transform="matrix(1.00, 0.00, -0.00, -1.00, 754.4, 270.3)">a</text><text xml:space="preserve" font-family="Palatino-Roman,Palatino" font-size="52.0" fill="#000000" transform="matrix(1.00, 0.00, -0.00, -1.00, 780.4, 270.3)">d</text><text xml:space="preserve" font-family="Palatino-Roman,Palatino" font-size="52.0" fill="#000000" transform="matrix(1.00, 0.00, -0.00, -1.00, 812.1, 270.3)">d</text><text xml:space="preserve" font-family="Palatino-Roman,Palatino" font-size="52.0" fill="#000000" transform="matrix(1.00, 0.00, -0.00, -1.00, 843.9, 270.3)">o</text><text xml:space="preserve" font-family="Palatino-Roman,Palatino" font-size="52.0" fill="#000000" transform="matrix(1.00, 0.00, -0.00, -1.00, 872.2, 270.3)">c</text><text xml:space="preserve" font-family="Palatino-Roman,Palatino" font-size="52.0" fill="#000000" transform="matrix(1.00, 0.00, -0.00, -1.00, 895.3, 270.3)">k</text><text xml:space="preserve" font-family="Palatino-Roman,Palatino" font-size="52.0" fill="#000000" transform="matrix(1.00, 0.00, -0.00, -1.00, 924.2, 270.3)"> </text><text xml:space="preserve" font-family="Palatino-Roman,Palatino" font-size="52.0" fill="#000000" transform="matrix(1.00, 0.00, -0.00, -1.00, 937.2, 270.3)">a</text><text xml:space="preserve" font-family="Palatino-Roman,Palatino" font-size="52.0" fill="#000000" transform="matrix(1.00, 0.00, -0.00, -1.00, 963.2, 270.3)">n</text><text xml:space="preserve" font-family="Palatino-Roman,Palatino" font-size="52.0" fill="#000000" transform="matrix(1.00, 0.00, -0.00, -1.00, 993.5, 270.3)">d</text><text xml:space="preserve" font-family="Palatino-Roman,Palatino" font-size="52.0" fill="#000000" transform="matrix(1.00, 0.00, -0.00, -1.00, 1025.3, 270.3)"> </text><text xml:space="preserve" font-family="Palatino-Roman,Palatino" font-size="52.0" fill="#000000" transform="matrix(1.00, 0.00, -0.00, -1.00, 1038.3, 270.3)">w</text><text xml:space="preserve" font-family="Palatino-Roman,Palatino" font-size="52.0" fill="#000000" transform="matrix(1.00, 0.00, -0.00, -1.00, 1081.6, 270.3)">i</text><text xml:space="preserve" font-family="Palatino-Roman,Palatino" font-size="52.0" fill="#000000" transform="matrix(1.00, 0.00, -0.00, -1.00, 1096.8, 270.3)">t</text><text xml:space="preserve" font-family="Palatino-Roman,Palatino" font-size="52.0" fill="#000000" transform="matrix(1.00, 0.00, -0.00, -1.00, 1113.7, 270.3)">h</text><text xml:space="preserve" font-family="Palatino-Roman,Palatino" font-size="52.0" fill="#000000" transform="matrix(1.00, 0.00, -0.00, -1.00, 1144.0, 270.3)"> </text><text xml:space="preserve" font-family="Palatino-Roman,Palatino" font-size="52.0" fill="#000000" transform="matrix(1.00, 0.00, -0.00, -1.00, 1157.0, 270.3)">m</text><text xml:space="preserve" font-family="Palatino-Roman,Palatino" font-size="52.0" fill="#000000" transform="matrix(1.00, 0.00, -0.00, -1.00, 1202.9, 270.3)">a</text><text xml:space="preserve" font-family="Palatino-Roman,Palatino" font-size="52.0" fill="#000000" transform="matrix(1.00, 0.00, -0.00, -1.00, 1228.9, 270.3)">r</text><text xml:space="preserve" font-family="Palatino-Roman,Palatino" font-size="52.0" fill="#000000" transform="matrix(1.00, 0.00, -0.00, -1.00, 1249.4, 270.3)">s</text><text xml:space="preserve" font-family="Palatino-Roman,Palatino" font-size="52.0" fill="#000000" transform="matrix(1.00, 0.00, -0.00, -1.00, 1271.5, 270.3)">h</text><text xml:space="preserve" font-family="Palatino-Roman,Palatino" font-size="52.0" fill="#000000" transform="matrix(1.00, 0.00, -0.00, -1.00, 1301.7, 270.3)">m</text><text xml:space="preserve" font-family="Palatino-Roman,Palatino" font-size="52.0" fill="#000000" transform="matrix(1.00, 0.00, -0.00, -1.00, 1347.6, 270.3)">a</text><text xml:space="preserve" font-family="Palatino-Roman,Palatino" font-size="52.0" fill="#000000" transform="matrix(1.00, 0.00, -0.00, -1.00, 1373.6, 270.3)">l</text><text xml:space="preserve" font-family="Palatino-Roman,Palatino" font-size="52.0" fill="#000000" transform="matrix(1.00, 0.00, -0.00, -1.00, 1388.8, 270.3)">l</text><text xml:space="preserve" font-family="Palatino-Roman,Palatino" font-size="52.0" fill="#000000" transform="matrix(1.00, 0.00, -0.00, -1.00, 1403.9, 270.3)">o</text><text xml:space="preserve" font-family="Palatino-Roman,Palatino" font-size="52.0" fill="#000000" transform="matrix(1.00, 0.00, -0.00, -1.00, 1432.3, 270.3)">w</text><text xml:space="preserve" font-family="Palatino-Roman,Palatino" font-size="52.0" fill="#000000" transform="matrix(1.00, 0.00, -0.00, -1.00, 1475.6, 270.3)">s</text><text xml:space="preserve" font-family="ZapfDingbatsITC,Zapf Dingbats" font-size="36.4" fill="#5B86B8" transform="matrix(1.00, 0.00, -0.00, -1.00, 285.0, 166.3)">✤</text><text xml:space="preserve" font-family="Palatino-Roman,Palatino" font-size="52.0" fill="#000000" transform="matrix(1.00, 0.00, -0.00, -1.00, 339.7, 160.3)">S</text><text xml:space="preserve" font-family="Palatino-Roman,Palatino" font-size="52.0" fill="#000000" transform="matrix(1.00, 0.00, -0.00, -1.00, 367.0, 160.3)">o</text><text xml:space="preserve" font-family="Palatino-Roman,Palatino" font-size="52.0" fill="#000000" transform="matrix(1.00, 0.00, -0.00, -1.00, 395.4, 160.3)">l</text><text xml:space="preserve" font-family="Palatino-Roman,Palatino" font-size="52.0" fill="#000000" transform="matrix(1.00, 0.00, -0.00, -1.00, 410.5, 160.3)">u</text><text xml:space="preserve" font-family="Palatino-Roman,Palatino" font-size="52.0" fill="#000000" transform="matrix(1.00, 0.00, -0.00, -1.00, 441.9, 160.3)">t</text><text xml:space="preserve" font-family="Palatino-Roman,Palatino" font-size="52.0" fill="#000000" transform="matrix(1.00, 0.00, -0.00, -1.00, 458.9, 160.3)">i</text><text xml:space="preserve" font-family="Palatino-Roman,Palatino" font-size="52.0" fill="#000000" transform="matrix(1.00, 0.00, -0.00, -1.00, 474.0, 160.3)">o</text><text xml:space="preserve" font-family="Palatino-Roman,Palatino" font-size="52.0" fill="#000000" transform="matrix(1.00, 0.00, -0.00, -1.00, 502.4, 160.3)">n</text><text xml:space="preserve" font-family="Palatino-Roman,Palatino" font-size="52.0" fill="#000000" transform="matrix(1.00, 0.00, -0.00, -1.00, 532.6, 160.3)">:</text><text xml:space="preserve" font-family="Palatino-Roman,Palatino" font-size="52.0" fill="#000000" transform="matrix(1.00, 0.00, -0.00, -1.00, 545.6, 160.3)"> </text><text xml:space="preserve" font-family="Palatino-Roman,Palatino" font-size="52.0" fill="#000000" transform="matrix(1.00, 0.00, -0.00, -1.00, 558.6, 160.3)">l</text><text xml:space="preserve" font-family="Palatino-Roman,Palatino" font-size="52.0" fill="#000000" transform="matrix(1.00, 0.00, -0.00, -1.00, 573.8, 160.3)">e</text><text xml:space="preserve" font-family="Palatino-Roman,Palatino" font-size="52.0" fill="#000000" transform="matrix(1.00, 0.00, -0.00, -1.00, 598.7, 160.3)">a</text><text xml:space="preserve" font-family="Palatino-Roman,Palatino" font-size="52.0" fill="#000000" transform="matrix(1.00, 0.00, -0.00, -1.00, 624.7, 160.3)">r</text><text xml:space="preserve" font-family="Palatino-Roman,Palatino" font-size="52.0" fill="#000000" transform="matrix(1.00, 0.00, -0.00, -1.00, 645.2, 160.3)">n</text><text xml:space="preserve" font-family="Palatino-Roman,Palatino" font-size="52.0" fill="#000000" transform="matrix(1.00, 0.00, -0.00, -1.00, 675.5, 160.3)"> </text><text xml:space="preserve" font-family="Palatino-Roman,Palatino" font-size="52.0" fill="#000000" transform="matrix(1.00, 0.00, -0.00, -1.00, 688.5, 160.3)">n</text><text xml:space="preserve" font-family="Palatino-Roman,Palatino" font-size="52.0" fill="#000000" transform="matrix(1.00, 0.00, -0.00, -1.00, 718.8, 160.3)">a</text><text xml:space="preserve" font-family="Palatino-Roman,Palatino" font-size="52.0" fill="#000000" transform="matrix(1.00, 0.00, -0.00, -1.00, 744.8, 160.3)">t</text><text xml:space="preserve" font-family="Palatino-Roman,Palatino" font-size="52.0" fill="#000000" transform="matrix(1.00, 0.00, -0.00, -1.00, 761.7, 160.3)">u</text><text xml:space="preserve" font-family="Palatino-Roman,Palatino" font-size="52.0" fill="#000000" transform="matrix(1.00, 0.00, -0.00, -1.00, 793.1, 160.3)">r</text><text xml:space="preserve" font-family="Palatino-Roman,Palatino" font-size="52.0" fill="#000000" transform="matrix(1.00, 0.00, -0.00, -1.00, 813.6, 160.3)">a</text><text xml:space="preserve" font-family="Palatino-Roman,Palatino" font-size="52.0" fill="#000000" transform="matrix(1.00, 0.00, -0.00, -1.00, 839.6, 160.3)">l</text><text xml:space="preserve" font-family="Palatino-Roman,Palatino" font-size="52.0" fill="#000000" transform="matrix(1.00, 0.00, -0.00, -1.00, 854.8, 160.3)"> </text><text xml:space="preserve" font-family="Palatino-Roman,Palatino" font-size="52.0" fill="#000000" transform="matrix(1.00, 0.00, -0.00, -1.00, 867.8, 160.3)">d</text><text xml:space="preserve" font-family="Palatino-Roman,Palatino" font-size="52.0" fill="#000000" transform="matrix(1.00, 0.00, -0.00, -1.00, 899.5, 160.3)">i</text><text xml:space="preserve" font-family="Palatino-Roman,Palatino" font-size="52.0" fill="#000000" transform="matrix(1.00, 0.00, -0.00, -1.00, 914.7, 160.3)">n</text><text xml:space="preserve" font-family="Palatino-Roman,Palatino" font-size="52.0" fill="#000000" transform="matrix(1.00, 0.00, -0.00, -1.00, 944.9, 160.3)">n</text><text xml:space="preserve" font-family="Palatino-Roman,Palatino" font-size="52.0" fill="#000000" transform="matrix(1.00, 0.00, -0.00, -1.00, 975.2, 160.3)">e</text><text xml:space="preserve" font-family="Palatino-Roman,Palatino" font-size="52.0" fill="#000000" transform="matrix(1.00, 0.00, -0.00, -1.00, 1000.1, 160.3)">r</text><text xml:space="preserve" font-family="Palatino-Roman,Palatino" font-size="52.0" fill="#000000" transform="matrix(1.00, 0.00, -0.00, -1.00, 1020.6, 160.3)"> </text><text xml:space="preserve" font-family="Palatino-Roman,Palatino" font-size="52.0" fill="#000000" transform="matrix(1.00, 0.00, -0.00, -1.00, 1033.6, 160.3)">c</text><text xml:space="preserve" font-family="Palatino-Roman,Palatino" font-size="52.0" fill="#000000" transform="matrix(1.00, 0.00, -0.00, -1.00, 1056.7, 160.3)">o</text><text xml:space="preserve" font-family="Palatino-Roman,Palatino" font-size="52.0" fill="#000000" transform="matrix(1.00, 0.00, -0.00, -1.00, 1085.1, 160.3)">m</text><text xml:space="preserve" font-family="Palatino-Roman,Palatino" font-size="52.0" fill="#000000" transform="matrix(1.00, 0.00, -0.00, -1.00, 1131.0, 160.3)">p</text><text xml:space="preserve" font-family="Palatino-Roman,Palatino" font-size="52.0" fill="#000000" transform="matrix(1.00, 0.00, -0.00, -1.00, 1162.2, 160.3)">o</text><text xml:space="preserve" font-family="Palatino-Roman,Palatino" font-size="52.0" fill="#000000" transform="matrix(1.00, 0.00, -0.00, -1.00, 1190.6, 160.3)">s</text><text xml:space="preserve" font-family="Palatino-Roman,Palatino" font-size="52.0" fill="#000000" transform="matrix(1.00, 0.00, -0.00, -1.00, 1212.7, 160.3)">i</text><text xml:space="preserve" font-family="Palatino-Roman,Palatino" font-size="52.0" fill="#000000" transform="matrix(1.00, 0.00, -0.00, -1.00, 1227.8, 160.3)">t</text><text xml:space="preserve" font-family="Palatino-Roman,Palatino" font-size="52.0" fill="#000000" transform="matrix(1.00, 0.00, -0.00, -1.00, 1244.8, 160.3)">i</text><text xml:space="preserve" font-family="Palatino-Roman,Palatino" font-size="52.0" fill="#000000" transform="matrix(1.00, 0.00, -0.00, -1.00, 1259.9, 160.3)">o</text><text xml:space="preserve" font-family="Palatino-Roman,Palatino" font-size="52.0" fill="#000000" transform="matrix(1.00, 0.00, -0.00, -1.00, 1288.3, 160.3)">n</text><text xml:space="preserve" font-family="Palatino-Roman,Palatino" font-size="52.0" fill="#000000" transform="matrix(1.00, 0.00, -0.00, -1.00, 1318.5, 160.3)">s</text><text xml:space="preserve" font-family="Palatino-Roman,Palatino" font-size="52.0" fill="#000000" transform="matrix(1.00, 0.00, -0.00, -1.00, 1340.6, 160.3)"> </text><text xml:space="preserve" font-family="Palatino-Roman,Palatino" font-size="52.0" fill="#000000" transform="matrix(1.00, 0.00, -0.00, -1.00, 1353.6, 160.3)">f</text><text xml:space="preserve" font-family="Palatino-Roman,Palatino" font-size="52.0" fill="#000000" transform="matrix(1.00, 0.00, -0.00, -1.00, 1370.9, 160.3)">r</text><text xml:space="preserve" font-family="Palatino-Roman,Palatino" font-size="52.0" fill="#000000" transform="matrix(1.00, 0.00, -0.00, -1.00, 1390.5, 160.3)">o</text><text xml:space="preserve" font-family="Palatino-Roman,Palatino" font-size="52.0" fill="#000000" transform="matrix(1.00, 0.00, -0.00, -1.00, 1418.9, 160.3)">m</text><text xml:space="preserve" font-family="Palatino-Roman,Palatino" font-size="52.0" fill="#000000" transform="matrix(1.00, 0.00, -0.00, -1.00, 1464.8, 160.3)"> </text><text xml:space="preserve" font-family="Palatino-Roman,Palatino" font-size="52.0" fill="#000000" transform="matrix(1.00, 0.00, -0.00, -1.00, 1477.8, 160.3)">d</text><text xml:space="preserve" font-family="Palatino-Roman,Palatino" font-size="52.0" fill="#000000" transform="matrix(1.00, 0.00, -0.00, -1.00, 1509.5, 160.3)">a</text><text xml:space="preserve" font-family="Palatino-Roman,Palatino" font-size="52.0" fill="#000000" transform="matrix(1.00, 0.00, -0.00, -1.00, 1535.5, 160.3)">t</text><text xml:space="preserve" font-family="Palatino-Roman,Palatino" font-size="52.0" fill="#000000" transform="matrix(1.00, 0.00, -0.00, -1.00, 1552.5, 160.3)">a</text><g><clipPath id="clip0x610005ebd1c0"><path d="M 1106.0 116.0 L 1433.0 116.0 L 1433.0 60.0 L 1106.0 60.0 Z M 1106.0 116.0 "></path></clipPath><g clip-path="url(#clip0x610005ebd1c0)"><g><clipPath id="clip0x610005ebd340"><path d="M 1373.8 61.2 C 1373.4 62.5 1375.1 64.1 1379.3 66.5 C 1385.5 69.8 1385.7 70.0 1385.0 70.8 C 1384.2 71.8 1375.6 76.9 1361.3 85.1 C 1353.7 89.4 1350.4 91.6 1350.4 92.3 C 1350.4 94.2 1354.2 93.4 1363.4 89.8 C 1364.5 89.3 1366.7 88.3 1368.3 87.4 C 1378.0 81.8 1377.6 82.0 1378.4 79.6 C 1378.5 79.1 1381.3 77.2 1384.5 75.4 L 1390.3 72.3 L 1396.6 75.8 C 1408.5 82.4 1408.9 82.7 1409.6 84.8 C 1410.1 86.4 1411.2 87.3 1415.6 90.0 C 1418.6 91.8 1421.4 93.5 1421.8 93.7 C 1422.3 93.9 1423.4 94.5 1424.2 95.1 C 1426.2 96.5 1427.4 96.4 1426.1 95.0 C 1425.0 93.7 1425.8 92.9 1427.5 93.8 C 1429.5 94.9 1428.7 93.9 1426.0 92.1 C 1422.5 89.7 1423.5 88.6 1427.3 90.8 L 1430.1 92.3 L 1428.7 90.9 C 1427.3 89.2 1427.9 88.3 1429.8 89.3 C 1430.4 89.6 1430.9 89.7 1430.9 89.5 C 1430.9 89.2 1427.5 86.9 1423.4 84.3 C 1416.1 79.8 1415.8 79.6 1413.0 79.9 C 1410.4 80.1 1409.9 79.9 1403.0 75.9 C 1399.0 73.5 1395.5 71.3 1395.2 70.9 C 1394.6 70.1 1395.4 69.5 1402.3 65.8 C 1405.4 64.2 1406.7 62.6 1406.2 61.2 C 1405.5 59.5 1402.8 60.4 1396.7 64.1 C 1393.3 66.1 1390.4 67.7 1390.1 67.7 C 1389.8 67.7 1386.9 66.1 1383.8 64.1 C 1377.8 60.2 1374.6 59.3 1373.8 61.2 M 1110.9 63.7 C 1110.1 64.6 1110.0 67.1 1110.0 87.7 C 1110.0 109.2 1110.0 110.7 1111.0 111.6 C 1112.0 112.5 1120.9 112.5 1227.4 112.5 C 1338.5 112.5 1342.9 112.5 1343.8 111.5 C 1344.6 110.6 1344.7 108.1 1344.7 87.5 C 1344.7 66.0 1344.7 64.5 1343.7 63.6 C 1342.7 62.7 1333.8 62.6 1227.2 62.6 C 1116.2 62.6 1111.8 62.7 1110.9 63.7 M 1101.5 88.2 C 1101.5 106.1 1101.7 108.0 1103.5 103.8 C 1104.7 100.9 1104.7 75.4 1103.5 72.5 C 1101.7 68.3 1101.5 70.2 1101.5 88.2 M 1378.0 86.8 C 1373.3 87.7 1367.8 89.7 1365.2 91.5 C 1364.3 92.2 1363.2 92.7 1362.7 92.7 C 1361.4 92.7 1358.3 95.5 1358.3 96.7 C 1358.3 97.3 1358.1 97.9 1357.8 98.1 C 1356.9 98.6 1357.1 103.2 1358.0 104.0 C 1358.5 104.4 1358.9 104.6 1358.9 104.3 C 1358.9 104.1 1360.0 105.1 1361.4 106.4 C 1365.9 110.9 1371.7 113.0 1383.0 114.6 C 1394.6 116.1 1408.1 113.6 1415.6 108.6 C 1421.9 104.3 1422.7 98.6 1417.7 94.0 C 1410.4 87.4 1392.6 84.2 1378.0 86.8 M 1101.0 119.0 L 1101.0 121.0 L 1130.1 121.0 L 1159.0 121.0 L 1159.0 119.1 L 1159.0 117.0 L 1130.1 117.0 L 1101.0 117.0 L 1101.0 119.0 M 1195.0 119.0 L 1195.0 121.0 L 1319.5 121.0 L 1444.0 121.0 L 1444.0 119.1 L 1444.0 117.0 L 1319.5 117.0 L 1195.0 117.0 L 1195.0 119.0 "></path></clipPath><g clip-path="url(#clip0x610005ebd340)"><image xlink:href="4F0D7C34AA856F67086C3BDFD3CA3C05.png" width="604.00" height="126.00" transform="matrix(0.57, 0.00, -0.00, -0.57, 1101.5, 121.0)"></image></g></g></g></g><g><clipPath id="clip0x6180016bcfe0"><path d="M 1541.5 80.5 L 1541.5 61.0 L 1611.9 87.6 L 1541.5 114.3 L 1541.5 95.5 L 1448.5 95.5 L 1448.5 80.5 Z M 1541.8 80.2 "></path></clipPath><g clip-path="url(#clip0x6180016bcfe0)"><path d="M 1541.5 80.5 L 1541.5 61.0 L 1611.9 87.6 L 1541.5 114.3 L 1541.5 95.5 L 1448.5 95.5 L 1448.5 80.5 Z M 1541.8 80.2 " fill="url(#gradSh1.0)"></path></g></g><path d="M 93.5 33.8 L 93.5 53.3 L 163.9 26.6 L 93.5 0.0 L 93.5 18.8 L 0.5 18.8 L 0.5 33.8 Z M 93.8 34.1 " fill="none" stroke="#D37BFC" stroke-width="1.00" transform="matrix(1.00, 0.00, 0.00, -1.00, 1448.0, 114.3)"></path></g></svg>