<?xml version="1.0" encoding="UTF-8" standalone="no"?><svg xmlns="http://www.w3.org/2000/svg" xmlns:xlink="http://www.w3.org/1999/xlink" clip-rule="evenodd" stroke-miterlimit="10" viewBox="0 0 1920 1080"><desc>SVG generated by Keynote</desc><defs></defs><g transform="matrix(1.00, 0.00, -0.00, -1.00, 0.0, 1080.0)"><g><clipPath id="clip0x6180018acf00"><path d="M 0.0 1080.0 L 1920.0 1080.0 L 1920.0 0.0 L 0.0 0.0 Z M 0.0 1080.0 "></path></clipPath><g clip-path="url(#clip0x6180018acf00)"><image xlink:href="../../CABF5236-1324-4602-9291-A4670FFDE0C7/assets/1783979FC7716684DCC3F94F50982FFC.jpeg" width="2048.00" height="1536.00" transform="matrix(0.94, 0.00, -0.00, -0.70, 0.0, 1080.0)"></image></g></g><path d="M 0.0 0.4 L 1350.0 0.4 L 1350.0 0.4 L 0.0 0.4 Z M 0.0 0.0 " fill="none" stroke="#7995B9" stroke-width="1.00" transform="matrix(1.00, 0.00, 0.00, -1.00, 285.0, 795.9)"></path><path d="M 0.0 -0.2 L 1350.0 -0.2 L 1350.0 -0.2 L 0.0 -0.2 Z M 0.0 0.0 " fill="none" stroke="#7995B9" stroke-width="1.00" transform="matrix(1.00, 0.00, 0.00, -1.00, 285.0, 790.3)"></path><text xml:space="preserve" font-family="Didot,Didot" font-size="90.0" fill="#304863" transform="matrix(1.00, 0.00, -0.00, -1.00, 285.0, 889.2)">D</text><text xml:space="preserve" font-family="Didot,Didot" font-size="90.0" fill="#304863" transform="matrix(1.00, 0.00, -0.00, -1.00, 356.6, 889.2)">a</text><text xml:space="preserve" font-family="Didot,Didot" font-size="90.0" fill="#304863" transform="matrix(1.00, 0.00, -0.00, -1.00, 398.0, 889.2)">t</text><text xml:space="preserve" font-family="Didot,Didot" font-size="90.0" fill="#304863" transform="matrix(1.00, 0.00, -0.00, -1.00, 426.2, 889.2)">a</text><text xml:space="preserve" font-family="Didot,Didot" font-size="90.0" fill="#304863" transform="matrix(1.00, 0.00, -0.00, -1.00, 467.7, 889.2)"> </text><text xml:space="preserve" font-family="Didot,Didot" font-size="90.0" fill="#304863" transform="matrix(1.00, 0.00, -0.00, -1.00, 490.9, 889.2)">S</text><text xml:space="preserve" font-family="Didot,Didot" font-size="90.0" fill="#304863" transform="matrix(1.00, 0.00, -0.00, -1.00, 549.2, 889.2)">o</text><text xml:space="preserve" font-family="Didot,Didot" font-size="90.0" fill="#304863" transform="matrix(1.00, 0.00, -0.00, -1.00, 597.4, 889.2)">u</text><text xml:space="preserve" font-family="Didot,Didot" font-size="90.0" fill="#304863" transform="matrix(1.00, 0.00, -0.00, -1.00, 649.0, 889.2)">r</text><text xml:space="preserve" font-family="Didot,Didot" font-size="90.0" fill="#304863" transform="matrix(1.00, 0.00, -0.00, -1.00, 683.8, 889.2)">c</text><text xml:space="preserve" font-family="Didot,Didot" font-size="90.0" fill="#304863" transform="matrix(1.00, 0.00, -0.00, -1.00, 725.3, 889.2)">e</text><text xml:space="preserve" font-family="Didot,Didot" font-size="90.0" fill="#304863" transform="matrix(1.00, 0.00, -0.00, -1.00, 768.5, 889.2)">s</text><text xml:space="preserve" font-family="Didot,Didot" font-size="90.0" fill="#304863" transform="matrix(1.00, 0.00, -0.00, -1.00, 805.0, 889.2)"> </text><text xml:space="preserve" font-family="Didot,Didot" font-size="90.0" fill="#304863" transform="matrix(1.00, 0.00, -0.00, -1.00, 828.2, 889.2)">a</text><text xml:space="preserve" font-family="Didot,Didot" font-size="90.0" fill="#304863" transform="matrix(1.00, 0.00, -0.00, -1.00, 869.7, 889.2)">n</text><text xml:space="preserve" font-family="Didot,Didot" font-size="90.0" fill="#304863" transform="matrix(1.00, 0.00, -0.00, -1.00, 922.9, 889.2)">d</text><text xml:space="preserve" font-family="Didot,Didot" font-size="90.0" fill="#304863" transform="matrix(1.00, 0.00, -0.00, -1.00, 974.5, 889.2)"> </text><text xml:space="preserve" font-family="Didot,Didot" font-size="90.0" fill="#304863" transform="matrix(1.00, 0.00, -0.00, -1.00, 997.7, 889.2)">M</text><text xml:space="preserve" font-family="Didot,Didot" font-size="90.0" fill="#304863" transform="matrix(1.00, 0.00, -0.00, -1.00, 1074.2, 889.2)">e</text><text xml:space="preserve" font-family="Didot,Didot" font-size="90.0" fill="#304863" transform="matrix(1.00, 0.00, -0.00, -1.00, 1117.4, 889.2)">t</text><text xml:space="preserve" font-family="Didot,Didot" font-size="90.0" fill="#304863" transform="matrix(1.00, 0.00, -0.00, -1.00, 1145.6, 889.2)">h</text><text xml:space="preserve" font-family="Didot,Didot" font-size="90.0" fill="#304863" transform="matrix(1.00, 0.00, -0.00, -1.00, 1198.8, 889.2)">o</text><text xml:space="preserve" font-family="Didot,Didot" font-size="90.0" fill="#304863" transform="matrix(1.00, 0.00, -0.00, -1.00, 1247.0, 889.2)">d</text><text xml:space="preserve" font-family="Didot,Didot" font-size="90.0" fill="#304863" transform="matrix(1.00, 0.00, -0.00, -1.00, 1298.6, 889.2)">s</text><text xml:space="preserve" font-family="ZapfDingbatsITC,Zapf Dingbats" font-size="36.4" fill="#5B86B8" transform="matrix(1.00, 0.00, -0.00, -1.00, 285.0, 640.3)">✤</text><text xml:space="preserve" font-family="Palatino-Roman,Palatino" font-size="52.0" fill="#000000" transform="matrix(1.00, 0.00, -0.00, -1.00, 339.7, 634.3)">U</text><text xml:space="preserve" font-family="Palatino-Roman,Palatino" font-size="52.0" fill="#000000" transform="matrix(1.00, 0.00, -0.00, -1.00, 380.2, 634.3)">S</text><text xml:space="preserve" font-family="Palatino-Roman,Palatino" font-size="52.0" fill="#000000" transform="matrix(1.00, 0.00, -0.00, -1.00, 407.5, 634.3)">D</text><text xml:space="preserve" font-family="Palatino-Roman,Palatino" font-size="52.0" fill="#000000" transform="matrix(1.00, 0.00, -0.00, -1.00, 447.7, 634.3)">A</text><text xml:space="preserve" font-family="Palatino-Roman,Palatino" font-size="52.0" fill="#000000" transform="matrix(1.00, 0.00, -0.00, -1.00, 485.3, 634.3)"> </text><text xml:space="preserve" font-family="Palatino-Roman,Palatino" font-size="52.0" fill="#000000" transform="matrix(1.00, 0.00, -0.00, -1.00, 498.3, 634.3)"> </text><text xml:space="preserve" font-family="Palatino-Roman,Palatino" font-size="52.0" fill="#000000" transform="matrix(1.00, 0.00, -0.00, -1.00, 511.3, 634.3)"> </text><text xml:space="preserve" font-family="Palatino-Roman,Palatino" font-size="52.0" fill="#000000" transform="matrix(1.00, 0.00, -0.00, -1.00, 524.3, 634.3)"> </text><text xml:space="preserve" font-family="Palatino-Roman,Palatino" font-size="52.0" fill="#000000" transform="matrix(1.00, 0.00, -0.00, -1.00, 537.3, 634.3)"> </text><text xml:space="preserve" font-family="Palatino-Roman,Palatino" font-size="52.0" fill="#000000" transform="matrix(1.00, 0.00, -0.00, -1.00, 550.3, 634.3)"> </text><text xml:space="preserve" font-family="Palatino-Roman,Palatino" font-size="52.0" fill="#000000" transform="matrix(1.00, 0.00, -0.00, -1.00, 563.3, 634.3)"> </text><text xml:space="preserve" font-family="Palatino-Roman,Palatino" font-size="52.0" fill="#000000" transform="matrix(1.00, 0.00, -0.00, -1.00, 576.3, 634.3)"> </text><text xml:space="preserve" font-family="Palatino-Roman,Palatino" font-size="52.0" fill="#000000" transform="matrix(1.00, 0.00, -0.00, -1.00, 589.3, 634.3)"> </text><text xml:space="preserve" font-family="Palatino-Roman,Palatino" font-size="52.0" fill="#000000" transform="matrix(1.00, 0.00, -0.00, -1.00, 602.3, 634.3)"> </text><text xml:space="preserve" font-family="Palatino-Roman,Palatino" font-size="52.0" fill="#000000" transform="matrix(1.00, 0.00, -0.00, -1.00, 615.3, 634.3)"> </text><text xml:space="preserve" font-family="Palatino-Roman,Palatino" font-size="52.0" fill="#000000" transform="matrix(1.00, 0.00, -0.00, -1.00, 628.3, 634.3)"> </text><text xml:space="preserve" font-family="Palatino-Roman,Palatino" font-size="52.0" fill="#000000" transform="matrix(1.00, 0.00, -0.00, -1.00, 641.3, 634.3)"> </text><text xml:space="preserve" font-family="Palatino-Roman,Palatino" font-size="52.0" fill="#000000" transform="matrix(1.00, 0.00, -0.00, -1.00, 654.3, 634.3)"> </text><text xml:space="preserve" font-family="Palatino-Roman,Palatino" font-size="52.0" fill="#000000" transform="matrix(1.00, 0.00, -0.00, -1.00, 667.3, 634.3)"> </text><text xml:space="preserve" font-family="Palatino-Roman,Palatino" font-size="52.0" fill="#000000" transform="matrix(1.00, 0.00, -0.00, -1.00, 680.3, 634.3)"> </text><text xml:space="preserve" font-family="Palatino-Roman,Palatino" font-size="52.0" fill="#000000" transform="matrix(1.00, 0.00, -0.00, -1.00, 693.3, 634.3)"> </text><text xml:space="preserve" font-family="Palatino-Roman,Palatino" font-size="52.0" fill="#000000" transform="matrix(1.00, 0.00, -0.00, -1.00, 706.3, 634.3)"> </text><text xml:space="preserve" font-family="Palatino-Roman,Palatino" font-size="52.0" fill="#000000" transform="matrix(1.00, 0.00, -0.00, -1.00, 719.3, 634.3)"> </text><text xml:space="preserve" font-family="Palatino-Roman,Palatino" font-size="52.0" fill="#000000" transform="matrix(1.00, 0.00, -0.00, -1.00, 732.3, 634.3)"> </text><text xml:space="preserve" font-family="Palatino-Roman,Palatino" font-size="52.0" fill="#000000" transform="matrix(1.00, 0.00, -0.00, -1.00, 745.3, 634.3)"> </text><text xml:space="preserve" font-family="Palatino-Roman,Palatino" font-size="52.0" fill="#000000" transform="matrix(1.00, 0.00, -0.00, -1.00, 758.3, 634.3)"> </text><text xml:space="preserve" font-family="Palatino-Roman,Palatino" font-size="52.0" fill="#000000" transform="matrix(1.00, 0.00, -0.00, -1.00, 771.3, 634.3)"> </text><text xml:space="preserve" font-family="Palatino-Roman,Palatino" font-size="52.0" fill="#000000" transform="matrix(1.00, 0.00, -0.00, -1.00, 784.3, 634.3)"> </text><text xml:space="preserve" font-family="Palatino-Roman,Palatino" font-size="52.0" fill="#000000" transform="matrix(1.00, 0.00, -0.00, -1.00, 797.3, 634.3)"> </text><text xml:space="preserve" font-family="Palatino-Roman,Palatino" font-size="52.0" fill="#000000" transform="matrix(1.00, 0.00, -0.00, -1.00, 810.3, 634.3)"> </text><text xml:space="preserve" font-family="Palatino-Roman,Palatino" font-size="52.0" fill="#000000" transform="matrix(1.00, 0.00, -0.00, -1.00, 823.3, 634.3)"> </text><text xml:space="preserve" font-family="Palatino-Roman,Palatino" font-size="52.0" fill="#000000" transform="matrix(1.00, 0.00, -0.00, -1.00, 836.3, 634.3)"> </text><text xml:space="preserve" font-family="Palatino-Roman,Palatino" font-size="52.0" fill="#000000" transform="matrix(1.00, 0.00, -0.00, -1.00, 849.3, 634.3)"> </text><text xml:space="preserve" font-family="Palatino-Roman,Palatino" font-size="52.0" fill="#000000" transform="matrix(1.00, 0.00, -0.00, -1.00, 862.3, 634.3)"> </text><text xml:space="preserve" font-family="Palatino-Roman,Palatino" font-size="52.0" fill="#000000" transform="matrix(1.00, 0.00, -0.00, -1.00, 875.3, 634.3)"> </text><text xml:space="preserve" font-family="Palatino-Roman,Palatino" font-size="52.0" fill="#000000" transform="matrix(1.00, 0.00, -0.00, -1.00, 888.3, 634.3)"> </text><text xml:space="preserve" font-family="Palatino-Roman,Palatino" font-size="52.0" fill="#000000" transform="matrix(1.00, 0.00, -0.00, -1.00, 901.3, 634.3)"> </text><text xml:space="preserve" font-family="Palatino-Roman,Palatino" font-size="52.0" fill="#000000" transform="matrix(1.00, 0.00, -0.00, -1.00, 914.3, 634.3)"> </text><text xml:space="preserve" font-family="Palatino-Roman,Palatino" font-size="52.0" fill="#000000" transform="matrix(1.00, 0.00, -0.00, -1.00, 927.3, 634.3)"> </text><text xml:space="preserve" font-family="Palatino-Roman,Palatino" font-size="52.0" fill="#000000" transform="matrix(1.00, 0.00, -0.00, -1.00, 940.3, 634.3)">(</text><text xml:space="preserve" font-family="Palatino-Roman,Palatino" font-size="52.0" fill="#000000" transform="matrix(1.00, 0.00, -0.00, -1.00, 957.6, 634.3)">1</text><text xml:space="preserve" font-family="Palatino-Roman,Palatino" font-size="52.0" fill="#000000" transform="matrix(1.00, 0.00, -0.00, -1.00, 983.6, 634.3)">0</text><text xml:space="preserve" font-family="Palatino-Roman,Palatino" font-size="52.0" fill="#000000" transform="matrix(1.00, 0.00, -0.00, -1.00, 1009.6, 634.3)"> </text><text xml:space="preserve" font-family="Palatino-Roman,Palatino" font-size="52.0" fill="#000000" transform="matrix(1.00, 0.00, -0.00, -1.00, 1022.6, 634.3)">y</text><text xml:space="preserve" font-family="Palatino-Roman,Palatino" font-size="52.0" fill="#000000" transform="matrix(1.00, 0.00, -0.00, -1.00, 1051.5, 634.3)">r</text><text xml:space="preserve" font-family="Palatino-Roman,Palatino" font-size="52.0" fill="#000000" transform="matrix(1.00, 0.00, -0.00, -1.00, 1072.1, 634.3)">s</text><text xml:space="preserve" font-family="Palatino-Roman,Palatino" font-size="52.0" fill="#000000" transform="matrix(1.00, 0.00, -0.00, -1.00, 1094.1, 634.3)"> </text><text xml:space="preserve" font-family="Palatino-Roman,Palatino" font-size="52.0" fill="#000000" transform="matrix(1.00, 0.00, -0.00, -1.00, 1107.1, 634.3)">o</text><text xml:space="preserve" font-family="Palatino-Roman,Palatino" font-size="52.0" fill="#000000" transform="matrix(1.00, 0.00, -0.00, -1.00, 1135.5, 634.3)">f</text><text xml:space="preserve" font-family="Palatino-Roman,Palatino" font-size="52.0" fill="#000000" transform="matrix(1.00, 0.00, -0.00, -1.00, 1152.8, 634.3)"> </text><text xml:space="preserve" font-family="Palatino-Roman,Palatino" font-size="52.0" fill="#000000" transform="matrix(1.00, 0.00, -0.00, -1.00, 1165.8, 634.3)">s</text><text xml:space="preserve" font-family="Palatino-Roman,Palatino" font-size="52.0" fill="#000000" transform="matrix(1.00, 0.00, -0.00, -1.00, 1187.8, 634.3)">u</text><text xml:space="preserve" font-family="Palatino-Roman,Palatino" font-size="52.0" fill="#000000" transform="matrix(1.00, 0.00, -0.00, -1.00, 1219.2, 634.3)">r</text><text xml:space="preserve" font-family="Palatino-Roman,Palatino" font-size="52.0" fill="#000000" transform="matrix(1.00, 0.00, -0.00, -1.00, 1239.7, 634.3)">v</text><text xml:space="preserve" font-family="Palatino-Roman,Palatino" font-size="52.0" fill="#000000" transform="matrix(1.00, 0.00, -0.00, -1.00, 1269.1, 634.3)">e</text><text xml:space="preserve" font-family="Palatino-Roman,Palatino" font-size="52.0" fill="#000000" transform="matrix(1.00, 0.00, -0.00, -1.00, 1294.0, 634.3)">y</text><text xml:space="preserve" font-family="Palatino-Roman,Palatino" font-size="52.0" fill="#000000" transform="matrix(1.00, 0.00, -0.00, -1.00, 1322.9, 634.3)"> </text><text xml:space="preserve" font-family="Palatino-Roman,Palatino" font-size="52.0" fill="#000000" transform="matrix(1.00, 0.00, -0.00, -1.00, 1335.9, 634.3)">d</text><text xml:space="preserve" font-family="Palatino-Roman,Palatino" font-size="52.0" fill="#000000" transform="matrix(1.00, 0.00, -0.00, -1.00, 1367.7, 634.3)">a</text><text xml:space="preserve" font-family="Palatino-Roman,Palatino" font-size="52.0" fill="#000000" transform="matrix(1.00, 0.00, -0.00, -1.00, 1393.7, 634.3)">t</text><text xml:space="preserve" font-family="Palatino-Roman,Palatino" font-size="52.0" fill="#000000" transform="matrix(1.00, 0.00, -0.00, -1.00, 1410.7, 634.3)">a</text><text xml:space="preserve" font-family="Palatino-Roman,Palatino" font-size="52.0" fill="#000000" transform="matrix(1.00, 0.00, -0.00, -1.00, 1436.7, 634.3)">)</text><text xml:space="preserve" font-family="ZapfDingbatsITC,Zapf Dingbats" font-size="36.4" fill="#5B86B8" transform="matrix(1.00, 0.00, -0.00, -1.00, 325.0, 530.3)">✤</text><text xml:space="preserve" font-family="Palatino-Roman,Palatino" font-size="52.0" fill="#000000" transform="matrix(1.00, 0.00, -0.00, -1.00, 379.7, 524.3)">3</text><text xml:space="preserve" font-family="Palatino-Roman,Palatino" font-size="52.0" fill="#000000" transform="matrix(1.00, 0.00, -0.00, -1.00, 405.7, 524.3)">1</text><text xml:space="preserve" font-family="Palatino-Roman,Palatino" font-size="52.0" fill="#000000" transform="matrix(1.00, 0.00, -0.00, -1.00, 431.7, 524.3)">,</text><text xml:space="preserve" font-family="Palatino-Roman,Palatino" font-size="52.0" fill="#000000" transform="matrix(1.00, 0.00, -0.00, -1.00, 444.7, 524.3)">2</text><text xml:space="preserve" font-family="Palatino-Roman,Palatino" font-size="52.0" fill="#000000" transform="matrix(1.00, 0.00, -0.00, -1.00, 470.7, 524.3)">6</text><text xml:space="preserve" font-family="Palatino-Roman,Palatino" font-size="52.0" fill="#000000" transform="matrix(1.00, 0.00, -0.00, -1.00, 496.7, 524.3)">1</text><text xml:space="preserve" font-family="Palatino-Roman,Palatino" font-size="52.0" fill="#000000" transform="matrix(1.00, 0.00, -0.00, -1.00, 522.7, 524.3)"> </text><text xml:space="preserve" font-family="Palatino-Roman,Palatino" font-size="52.0" fill="#000000" transform="matrix(1.00, 0.00, -0.00, -1.00, 535.7, 524.3)">r</text><text xml:space="preserve" font-family="Palatino-Roman,Palatino" font-size="52.0" fill="#000000" transform="matrix(1.00, 0.00, -0.00, -1.00, 555.4, 524.3)">e</text><text xml:space="preserve" font-family="Palatino-Roman,Palatino" font-size="52.0" fill="#000000" transform="matrix(1.00, 0.00, -0.00, -1.00, 580.3, 524.3)">c</text><text xml:space="preserve" font-family="Palatino-Roman,Palatino" font-size="52.0" fill="#000000" transform="matrix(1.00, 0.00, -0.00, -1.00, 603.3, 524.3)">o</text><text xml:space="preserve" font-family="Palatino-Roman,Palatino" font-size="52.0" fill="#000000" transform="matrix(1.00, 0.00, -0.00, -1.00, 631.7, 524.3)">r</text><text xml:space="preserve" font-family="Palatino-Roman,Palatino" font-size="52.0" fill="#000000" transform="matrix(1.00, 0.00, -0.00, -1.00, 651.3, 524.3)">d</text><text xml:space="preserve" font-family="Palatino-Roman,Palatino" font-size="52.0" fill="#000000" transform="matrix(1.00, 0.00, -0.00, -1.00, 683.1, 524.3)">e</text><text xml:space="preserve" font-family="Palatino-Roman,Palatino" font-size="52.0" fill="#000000" transform="matrix(1.00, 0.00, -0.00, -1.00, 708.0, 524.3)">d</text><text xml:space="preserve" font-family="Palatino-Roman,Palatino" font-size="52.0" fill="#000000" transform="matrix(1.00, 0.00, -0.00, -1.00, 739.8, 524.3)"> </text><text xml:space="preserve" font-family="Palatino-Roman,Palatino" font-size="52.0" fill="#000000" transform="matrix(1.00, 0.00, -0.00, -1.00, 752.8, 524.3)">d</text><text xml:space="preserve" font-family="Palatino-Roman,Palatino" font-size="52.0" fill="#000000" transform="matrix(1.00, 0.00, -0.00, -1.00, 784.5, 524.3)">i</text><text xml:space="preserve" font-family="Palatino-Roman,Palatino" font-size="52.0" fill="#000000" transform="matrix(1.00, 0.00, -0.00, -1.00, 799.6, 524.3)">n</text><text xml:space="preserve" font-family="Palatino-Roman,Palatino" font-size="52.0" fill="#000000" transform="matrix(1.00, 0.00, -0.00, -1.00, 829.9, 524.3)">n</text><text xml:space="preserve" font-family="Palatino-Roman,Palatino" font-size="52.0" fill="#000000" transform="matrix(1.00, 0.00, -0.00, -1.00, 860.2, 524.3)">e</text><text xml:space="preserve" font-family="Palatino-Roman,Palatino" font-size="52.0" fill="#000000" transform="matrix(1.00, 0.00, -0.00, -1.00, 885.1, 524.3)">r</text><text xml:space="preserve" font-family="Palatino-Roman,Palatino" font-size="52.0" fill="#000000" transform="matrix(1.00, 0.00, -0.00, -1.00, 905.6, 524.3)">s</text><text xml:space="preserve" font-family="ZapfDingbatsITC,Zapf Dingbats" font-size="36.4" fill="#5B86B8" transform="matrix(1.00, 0.00, -0.00, -1.00, 285.0, 420.3)">✤</text><text xml:space="preserve" font-family="Palatino-Roman,Palatino" font-size="52.0" fill="#000000" transform="matrix(1.00, 0.00, -0.00, -1.00, 339.7, 414.3)">U</text><text xml:space="preserve" font-family="Palatino-Roman,Palatino" font-size="52.0" fill="#000000" transform="matrix(1.00, 0.00, -0.00, -1.00, 380.2, 414.3)">S</text><text xml:space="preserve" font-family="Palatino-Roman,Palatino" font-size="52.0" fill="#000000" transform="matrix(1.00, 0.00, -0.00, -1.00, 407.5, 414.3)">D</text><text xml:space="preserve" font-family="Palatino-Roman,Palatino" font-size="52.0" fill="#000000" transform="matrix(1.00, 0.00, -0.00, -1.00, 447.7, 414.3)">A</text><text xml:space="preserve" font-family="Palatino-Roman,Palatino" font-size="52.0" fill="#000000" transform="matrix(1.00, 0.00, -0.00, -1.00, 485.3, 414.3)"> </text><text xml:space="preserve" font-family="Palatino-Roman,Palatino" font-size="52.0" fill="#000000" transform="matrix(1.00, 0.00, -0.00, -1.00, 498.3, 414.3)">F</text><text xml:space="preserve" font-family="Palatino-Roman,Palatino" font-size="52.0" fill="#000000" transform="matrix(1.00, 0.00, -0.00, -1.00, 527.2, 414.3)">o</text><text xml:space="preserve" font-family="Palatino-Roman,Palatino" font-size="52.0" fill="#000000" transform="matrix(1.00, 0.00, -0.00, -1.00, 555.6, 414.3)">o</text><text xml:space="preserve" font-family="Palatino-Roman,Palatino" font-size="52.0" fill="#000000" transform="matrix(1.00, 0.00, -0.00, -1.00, 584.0, 414.3)">d</text><text xml:space="preserve" font-family="Palatino-Roman,Palatino" font-size="52.0" fill="#000000" transform="matrix(1.00, 0.00, -0.00, -1.00, 615.7, 414.3)"> </text><text xml:space="preserve" font-family="Palatino-Roman,Palatino" font-size="52.0" fill="#000000" transform="matrix(1.00, 0.00, -0.00, -1.00, 628.7, 414.3)">a</text><text xml:space="preserve" font-family="Palatino-Roman,Palatino" font-size="52.0" fill="#000000" transform="matrix(1.00, 0.00, -0.00, -1.00, 654.7, 414.3)">n</text><text xml:space="preserve" font-family="Palatino-Roman,Palatino" font-size="52.0" fill="#000000" transform="matrix(1.00, 0.00, -0.00, -1.00, 685.0, 414.3)">d</text><text xml:space="preserve" font-family="Palatino-Roman,Palatino" font-size="52.0" fill="#000000" transform="matrix(1.00, 0.00, -0.00, -1.00, 716.8, 414.3)"> </text><text xml:space="preserve" font-family="Palatino-Roman,Palatino" font-size="52.0" fill="#000000" transform="matrix(1.00, 0.00, -0.00, -1.00, 729.8, 414.3)">N</text><text xml:space="preserve" font-family="Palatino-Roman,Palatino" font-size="52.0" fill="#000000" transform="matrix(1.00, 0.00, -0.00, -1.00, 773.0, 414.3)">u</text><text xml:space="preserve" font-family="Palatino-Roman,Palatino" font-size="52.0" fill="#000000" transform="matrix(1.00, 0.00, -0.00, -1.00, 804.3, 414.3)">t</text><text xml:space="preserve" font-family="Palatino-Roman,Palatino" font-size="52.0" fill="#000000" transform="matrix(1.00, 0.00, -0.00, -1.00, 821.3, 414.3)">r</text><text xml:space="preserve" font-family="Palatino-Roman,Palatino" font-size="52.0" fill="#000000" transform="matrix(1.00, 0.00, -0.00, -1.00, 841.9, 414.3)">i</text><text xml:space="preserve" font-family="Palatino-Roman,Palatino" font-size="52.0" fill="#000000" transform="matrix(1.00, 0.00, -0.00, -1.00, 857.0, 414.3)">e</text><text xml:space="preserve" font-family="Palatino-Roman,Palatino" font-size="52.0" fill="#000000" transform="matrix(1.00, 0.00, -0.00, -1.00, 881.9, 414.3)">n</text><text xml:space="preserve" font-family="Palatino-Roman,Palatino" font-size="52.0" fill="#000000" transform="matrix(1.00, 0.00, -0.00, -1.00, 912.2, 414.3)">t</text><text xml:space="preserve" font-family="Palatino-Roman,Palatino" font-size="52.0" fill="#000000" transform="matrix(1.00, 0.00, -0.00, -1.00, 929.1, 414.3)"> </text><text xml:space="preserve" font-family="Palatino-Roman,Palatino" font-size="52.0" fill="#000000" transform="matrix(1.00, 0.00, -0.00, -1.00, 942.1, 414.3)">D</text><text xml:space="preserve" font-family="Palatino-Roman,Palatino" font-size="52.0" fill="#000000" transform="matrix(1.00, 0.00, -0.00, -1.00, 982.4, 414.3)">B</text><text xml:space="preserve" font-family="Palatino-Roman,Palatino" font-size="52.0" fill="#000000" transform="matrix(1.00, 0.00, -0.00, -1.00, 1014.1, 414.3)"> </text><text xml:space="preserve" font-family="Palatino-Roman,Palatino" font-size="52.0" fill="#000000" transform="matrix(1.00, 0.00, -0.00, -1.00, 1027.1, 414.3)">f</text><text xml:space="preserve" font-family="Palatino-Roman,Palatino" font-size="52.0" fill="#000000" transform="matrix(1.00, 0.00, -0.00, -1.00, 1044.4, 414.3)">o</text><text xml:space="preserve" font-family="Palatino-Roman,Palatino" font-size="52.0" fill="#000000" transform="matrix(1.00, 0.00, -0.00, -1.00, 1072.8, 414.3)">r</text><text xml:space="preserve" font-family="Palatino-Roman,Palatino" font-size="52.0" fill="#000000" transform="matrix(1.00, 0.00, -0.00, -1.00, 1093.4, 414.3)"> </text><text xml:space="preserve" font-family="Palatino-Roman,Palatino" font-size="52.0" fill="#000000" transform="matrix(1.00, 0.00, -0.00, -1.00, 1106.4, 414.3)">D</text><text xml:space="preserve" font-family="Palatino-Roman,Palatino" font-size="52.0" fill="#000000" transform="matrix(1.00, 0.00, -0.00, -1.00, 1146.6, 414.3)">i</text><text xml:space="preserve" font-family="Palatino-Roman,Palatino" font-size="52.0" fill="#000000" transform="matrix(1.00, 0.00, -0.00, -1.00, 1161.7, 414.3)">e</text><text xml:space="preserve" font-family="Palatino-Roman,Palatino" font-size="52.0" fill="#000000" transform="matrix(1.00, 0.00, -0.00, -1.00, 1186.6, 414.3)">t</text><text xml:space="preserve" font-family="Palatino-Roman,Palatino" font-size="52.0" fill="#000000" transform="matrix(1.00, 0.00, -0.00, -1.00, 1203.6, 414.3)">a</text><text xml:space="preserve" font-family="Palatino-Roman,Palatino" font-size="52.0" fill="#000000" transform="matrix(1.00, 0.00, -0.00, -1.00, 1229.6, 414.3)">r</text><text xml:space="preserve" font-family="Palatino-Roman,Palatino" font-size="52.0" fill="#000000" transform="matrix(1.00, 0.00, -0.00, -1.00, 1250.2, 414.3)">y</text><text xml:space="preserve" font-family="Palatino-Roman,Palatino" font-size="52.0" fill="#000000" transform="matrix(1.00, 0.00, -0.00, -1.00, 1279.1, 414.3)"> </text><text xml:space="preserve" font-family="Palatino-Roman,Palatino" font-size="52.0" fill="#000000" transform="matrix(1.00, 0.00, -0.00, -1.00, 1292.1, 414.3)">S</text><text xml:space="preserve" font-family="Palatino-Roman,Palatino" font-size="52.0" fill="#000000" transform="matrix(1.00, 0.00, -0.00, -1.00, 1319.4, 414.3)">t</text><text xml:space="preserve" font-family="Palatino-Roman,Palatino" font-size="52.0" fill="#000000" transform="matrix(1.00, 0.00, -0.00, -1.00, 1336.3, 414.3)">u</text><text xml:space="preserve" font-family="Palatino-Roman,Palatino" font-size="52.0" fill="#000000" transform="matrix(1.00, 0.00, -0.00, -1.00, 1367.7, 414.3)">d</text><text xml:space="preserve" font-family="Palatino-Roman,Palatino" font-size="52.0" fill="#000000" transform="matrix(1.00, 0.00, -0.00, -1.00, 1399.5, 414.3)">i</text><text xml:space="preserve" font-family="Palatino-Roman,Palatino" font-size="52.0" fill="#000000" transform="matrix(1.00, 0.00, -0.00, -1.00, 1414.6, 414.3)">e</text><text xml:space="preserve" font-family="Palatino-Roman,Palatino" font-size="52.0" fill="#000000" transform="matrix(1.00, 0.00, -0.00, -1.00, 1439.5, 414.3)">s</text><text xml:space="preserve" font-family="ZapfDingbatsITC,Zapf Dingbats" font-size="36.4" fill="#5B86B8" transform="matrix(1.00, 0.00, -0.00, -1.00, 325.0, 310.3)">✤</text><text xml:space="preserve" font-family="Palatino-Roman,Palatino" font-size="52.0" fill="#000000" transform="matrix(1.00, 0.00, -0.00, -1.00, 379.7, 304.3)">9</text><text xml:space="preserve" font-family="Palatino-Roman,Palatino" font-size="52.0" fill="#000000" transform="matrix(1.00, 0.00, -0.00, -1.00, 405.7, 304.3)">,</text><text xml:space="preserve" font-family="Palatino-Roman,Palatino" font-size="52.0" fill="#000000" transform="matrix(1.00, 0.00, -0.00, -1.00, 418.7, 304.3)">5</text><text xml:space="preserve" font-family="Palatino-Roman,Palatino" font-size="52.0" fill="#000000" transform="matrix(1.00, 0.00, -0.00, -1.00, 444.7, 304.3)">3</text><text xml:space="preserve" font-family="Palatino-Roman,Palatino" font-size="52.0" fill="#000000" transform="matrix(1.00, 0.00, -0.00, -1.00, 470.7, 304.3)">7</text><text xml:space="preserve" font-family="Palatino-Roman,Palatino" font-size="52.0" fill="#000000" transform="matrix(1.00, 0.00, -0.00, -1.00, 496.7, 304.3)"> </text><text xml:space="preserve" font-family="Palatino-Roman,Palatino" font-size="52.0" fill="#000000" transform="matrix(1.00, 0.00, -0.00, -1.00, 509.7, 304.3)">f</text><text xml:space="preserve" font-family="Palatino-Roman,Palatino" font-size="52.0" fill="#000000" transform="matrix(1.00, 0.00, -0.00, -1.00, 527.1, 304.3)">o</text><text xml:space="preserve" font-family="Palatino-Roman,Palatino" font-size="52.0" fill="#000000" transform="matrix(1.00, 0.00, -0.00, -1.00, 555.4, 304.3)">o</text><text xml:space="preserve" font-family="Palatino-Roman,Palatino" font-size="52.0" fill="#000000" transform="matrix(1.00, 0.00, -0.00, -1.00, 583.8, 304.3)">d</text><text xml:space="preserve" font-family="Palatino-Roman,Palatino" font-size="52.0" fill="#000000" transform="matrix(1.00, 0.00, -0.00, -1.00, 615.6, 304.3)"> </text><text xml:space="preserve" font-family="Palatino-Roman,Palatino" font-size="52.0" fill="#000000" transform="matrix(1.00, 0.00, -0.00, -1.00, 628.6, 304.3)">l</text><text xml:space="preserve" font-family="Palatino-Roman,Palatino" font-size="52.0" fill="#000000" transform="matrix(1.00, 0.00, -0.00, -1.00, 643.7, 304.3)">i</text><text xml:space="preserve" font-family="Palatino-Roman,Palatino" font-size="52.0" fill="#000000" transform="matrix(1.00, 0.00, -0.00, -1.00, 658.8, 304.3)">s</text><text xml:space="preserve" font-family="Palatino-Roman,Palatino" font-size="52.0" fill="#000000" transform="matrix(1.00, 0.00, -0.00, -1.00, 680.9, 304.3)">t</text><text xml:space="preserve" font-family="Palatino-Roman,Palatino" font-size="52.0" fill="#000000" transform="matrix(1.00, 0.00, -0.00, -1.00, 697.8, 304.3)">i</text><text xml:space="preserve" font-family="Palatino-Roman,Palatino" font-size="52.0" fill="#000000" transform="matrix(1.00, 0.00, -0.00, -1.00, 713.0, 304.3)">n</text><text xml:space="preserve" font-family="Palatino-Roman,Palatino" font-size="52.0" fill="#000000" transform="matrix(1.00, 0.00, -0.00, -1.00, 743.2, 304.3)">g</text><text xml:space="preserve" font-family="Palatino-Roman,Palatino" font-size="52.0" fill="#000000" transform="matrix(1.00, 0.00, -0.00, -1.00, 772.2, 304.3)">s</text><text xml:space="preserve" font-family="ZapfDingbatsITC,Zapf Dingbats" font-size="36.4" fill="#5B86B8" transform="matrix(1.00, 0.00, -0.00, -1.00, 285.0, 200.3)">✤</text><text xml:space="preserve" font-family="Palatino-Roman,Palatino" font-size="52.0" fill="#000000" transform="matrix(1.00, 0.00, -0.00, -1.00, 339.7, 194.3)">F</text><text xml:space="preserve" font-family="Palatino-Roman,Palatino" font-size="52.0" fill="#000000" transform="matrix(1.00, 0.00, -0.00, -1.00, 368.7, 194.3)">e</text><text xml:space="preserve" font-family="Palatino-Roman,Palatino" font-size="52.0" fill="#000000" transform="matrix(1.00, 0.00, -0.00, -1.00, 393.6, 194.3)">e</text><text xml:space="preserve" font-family="Palatino-Roman,Palatino" font-size="52.0" fill="#000000" transform="matrix(1.00, 0.00, -0.00, -1.00, 418.5, 194.3)">d</text><text xml:space="preserve" font-family="Palatino-Roman,Palatino" font-size="52.0" fill="#000000" transform="matrix(1.00, 0.00, -0.00, -1.00, 450.2, 194.3)"> </text><text xml:space="preserve" font-family="Palatino-Roman,Palatino" font-size="52.0" fill="#000000" transform="matrix(1.00, 0.00, -0.00, -1.00, 463.2, 194.3)">d</text><text xml:space="preserve" font-family="Palatino-Roman,Palatino" font-size="52.0" fill="#000000" transform="matrix(1.00, 0.00, -0.00, -1.00, 495.0, 194.3)">i</text><text xml:space="preserve" font-family="Palatino-Roman,Palatino" font-size="52.0" fill="#000000" transform="matrix(1.00, 0.00, -0.00, -1.00, 510.1, 194.3)">n</text><text xml:space="preserve" font-family="Palatino-Roman,Palatino" font-size="52.0" fill="#000000" transform="matrix(1.00, 0.00, -0.00, -1.00, 540.4, 194.3)">n</text><text xml:space="preserve" font-family="Palatino-Roman,Palatino" font-size="52.0" fill="#000000" transform="matrix(1.00, 0.00, -0.00, -1.00, 570.7, 194.3)">e</text><text xml:space="preserve" font-family="Palatino-Roman,Palatino" font-size="52.0" fill="#000000" transform="matrix(1.00, 0.00, -0.00, -1.00, 595.6, 194.3)">r</text><text xml:space="preserve" font-family="Palatino-Roman,Palatino" font-size="52.0" fill="#000000" transform="matrix(1.00, 0.00, -0.00, -1.00, 616.1, 194.3)"> </text><text xml:space="preserve" font-family="Palatino-Roman,Palatino" font-size="52.0" fill="#000000" transform="matrix(1.00, 0.00, -0.00, -1.00, 629.1, 194.3)">d</text><text xml:space="preserve" font-family="Palatino-Roman,Palatino" font-size="52.0" fill="#000000" transform="matrix(1.00, 0.00, -0.00, -1.00, 660.9, 194.3)">e</text><text xml:space="preserve" font-family="Palatino-Roman,Palatino" font-size="52.0" fill="#000000" transform="matrix(1.00, 0.00, -0.00, -1.00, 685.8, 194.3)">s</text><text xml:space="preserve" font-family="Palatino-Roman,Palatino" font-size="52.0" fill="#000000" transform="matrix(1.00, 0.00, -0.00, -1.00, 707.8, 194.3)">c</text><text xml:space="preserve" font-family="Palatino-Roman,Palatino" font-size="52.0" fill="#000000" transform="matrix(1.00, 0.00, -0.00, -1.00, 730.9, 194.3)">r</text><text xml:space="preserve" font-family="Palatino-Roman,Palatino" font-size="52.0" fill="#000000" transform="matrix(1.00, 0.00, -0.00, -1.00, 751.4, 194.3)">i</text><text xml:space="preserve" font-family="Palatino-Roman,Palatino" font-size="52.0" fill="#000000" transform="matrix(1.00, 0.00, -0.00, -1.00, 766.5, 194.3)">p</text><text xml:space="preserve" font-family="Palatino-Roman,Palatino" font-size="52.0" fill="#000000" transform="matrix(1.00, 0.00, -0.00, -1.00, 797.8, 194.3)">t</text><text xml:space="preserve" font-family="Palatino-Roman,Palatino" font-size="52.0" fill="#000000" transform="matrix(1.00, 0.00, -0.00, -1.00, 814.8, 194.3)">i</text><text xml:space="preserve" font-family="Palatino-Roman,Palatino" font-size="52.0" fill="#000000" transform="matrix(1.00, 0.00, -0.00, -1.00, 829.9, 194.3)">o</text><text xml:space="preserve" font-family="Palatino-Roman,Palatino" font-size="52.0" fill="#000000" transform="matrix(1.00, 0.00, -0.00, -1.00, 858.3, 194.3)">n</text><text xml:space="preserve" font-family="Palatino-Roman,Palatino" font-size="52.0" fill="#000000" transform="matrix(1.00, 0.00, -0.00, -1.00, 888.5, 194.3)">s</text><text xml:space="preserve" font-family="Palatino-Roman,Palatino" font-size="52.0" fill="#000000" transform="matrix(1.00, 0.00, -0.00, -1.00, 910.6, 194.3)"> </text><text xml:space="preserve" font-family="Palatino-Roman,Palatino" font-size="52.0" fill="#000000" transform="matrix(1.00, 0.00, -0.00, -1.00, 923.6, 194.3)">i</text><text xml:space="preserve" font-family="Palatino-Roman,Palatino" font-size="52.0" fill="#000000" transform="matrix(1.00, 0.00, -0.00, -1.00, 938.7, 194.3)">n</text><text xml:space="preserve" font-family="Palatino-Roman,Palatino" font-size="52.0" fill="#000000" transform="matrix(1.00, 0.00, -0.00, -1.00, 969.0, 194.3)">t</text><text xml:space="preserve" font-family="Palatino-Roman,Palatino" font-size="52.0" fill="#000000" transform="matrix(1.00, 0.00, -0.00, -1.00, 985.9, 194.3)">o</text><text xml:space="preserve" font-family="Palatino-Roman,Palatino" font-size="52.0" fill="#000000" transform="matrix(1.00, 0.00, -0.00, -1.00, 1014.3, 194.3)"> </text><text xml:space="preserve" font-family="Courier,Courier" font-size="52.0" fill="#000000" transform="matrix(1.00, 0.00, -0.00, -1.00, 1027.4, 194.3)">w</text><text xml:space="preserve" font-family="Courier,Courier" font-size="52.0" fill="#000000" transform="matrix(1.00, 0.00, -0.00, -1.00, 1058.6, 194.3)">o</text><text xml:space="preserve" font-family="Courier,Courier" font-size="52.0" fill="#000000" transform="matrix(1.00, 0.00, -0.00, -1.00, 1089.8, 194.3)">r</text><text xml:space="preserve" font-family="Courier,Courier" font-size="52.0" fill="#000000" transform="matrix(1.00, 0.00, -0.00, -1.00, 1121.0, 194.3)">d</text><text xml:space="preserve" font-family="Courier,Courier" font-size="52.0" fill="#000000" transform="matrix(1.00, 0.00, -0.00, -1.00, 1152.2, 194.3)">2</text><text xml:space="preserve" font-family="Courier,Courier" font-size="52.0" fill="#000000" transform="matrix(1.00, 0.00, -0.00, -1.00, 1183.4, 194.3)">v</text><text xml:space="preserve" font-family="Courier,Courier" font-size="52.0" fill="#000000" transform="matrix(1.00, 0.00, -0.00, -1.00, 1214.6, 194.3)">e</text><text xml:space="preserve" font-family="Courier,Courier" font-size="52.0" fill="#000000" transform="matrix(1.00, 0.00, -0.00, -1.00, 1245.8, 194.3)">c</text><text xml:space="preserve" font-family="Palatino-Roman,Palatino" font-size="52.0" fill="#000000" transform="matrix(1.00, 0.00, -0.00, -1.00, 1277.0, 194.3)"> </text><text xml:space="preserve" font-family="Palatino-Roman,Palatino" font-size="52.0" fill="#000000" transform="matrix(1.00, 0.00, -0.00, -1.00, 1290.0, 194.3)">t</text><text xml:space="preserve" font-family="Palatino-Roman,Palatino" font-size="52.0" fill="#000000" transform="matrix(1.00, 0.00, -0.00, -1.00, 1307.0, 194.3)">o</text><text xml:space="preserve" font-family="Palatino-Roman,Palatino" font-size="52.0" fill="#000000" transform="matrix(1.00, 0.00, -0.00, -1.00, 1335.4, 194.3)"> </text><text xml:space="preserve" font-family="Palatino-Roman,Palatino" font-size="52.0" fill="#000000" transform="matrix(1.00, 0.00, -0.00, -1.00, 1348.4, 194.3)">d</text><text xml:space="preserve" font-family="Palatino-Roman,Palatino" font-size="52.0" fill="#000000" transform="matrix(1.00, 0.00, -0.00, -1.00, 1380.1, 194.3)">i</text><text xml:space="preserve" font-family="Palatino-Roman,Palatino" font-size="52.0" fill="#000000" transform="matrix(1.00, 0.00, -0.00, -1.00, 1395.2, 194.3)">s</text><text xml:space="preserve" font-family="Palatino-Roman,Palatino" font-size="52.0" fill="#000000" transform="matrix(1.00, 0.00, -0.00, -1.00, 1417.3, 194.3)">c</text><text xml:space="preserve" font-family="Palatino-Roman,Palatino" font-size="52.0" fill="#000000" transform="matrix(1.00, 0.00, -0.00, -1.00, 1440.3, 194.3)">o</text><text xml:space="preserve" font-family="Palatino-Roman,Palatino" font-size="52.0" fill="#000000" transform="matrix(1.00, 0.00, -0.00, -1.00, 1468.7, 194.3)">v</text><text xml:space="preserve" font-family="Palatino-Roman,Palatino" font-size="52.0" fill="#000000" transform="matrix(1.00, 0.00, -0.00, -1.00, 1498.1, 194.3)">e</text><text xml:space="preserve" font-family="Palatino-Roman,Palatino" font-size="52.0" fill="#000000" transform="matrix(1.00, 0.00, -0.00, -1.00, 1523.0, 194.3)">r</text><text xml:space="preserve" font-family="Palatino-Roman,Palatino" font-size="52.0" fill="#000000" transform="matrix(1.00, 0.00, -0.00, -1.00, 1543.5, 194.3)"> </text><text xml:space="preserve" font-family="Palatino-Roman,Palatino" font-size="52.0" fill="#000000" transform="matrix(1.00, 0.00, -0.00, -1.00, 339.7, 126.3)">p</text><text xml:space="preserve" font-family="Palatino-Roman,Palatino" font-size="52.0" fill="#000000" transform="matrix(1.00, 0.00, -0.00, -1.00, 371.0, 126.3)">a</text><text xml:space="preserve" font-family="Palatino-Roman,Palatino" font-size="52.0" fill="#000000" transform="matrix(1.00, 0.00, -0.00, -1.00, 397.0, 126.3)">i</text><text xml:space="preserve" font-family="Palatino-Roman,Palatino" font-size="52.0" fill="#000000" transform="matrix(1.00, 0.00, -0.00, -1.00, 412.1, 126.3)">r</text><text xml:space="preserve" font-family="Palatino-Roman,Palatino" font-size="52.0" fill="#000000" transform="matrix(1.00, 0.00, -0.00, -1.00, 432.7, 126.3)">i</text><text xml:space="preserve" font-family="Palatino-Roman,Palatino" font-size="52.0" fill="#000000" transform="matrix(1.00, 0.00, -0.00, -1.00, 447.8, 126.3)">n</text><text xml:space="preserve" font-family="Palatino-Roman,Palatino" font-size="52.0" fill="#000000" transform="matrix(1.00, 0.00, -0.00, -1.00, 478.1, 126.3)">g</text><text xml:space="preserve" font-family="Palatino-Roman,Palatino" font-size="52.0" fill="#000000" transform="matrix(1.00, 0.00, -0.00, -1.00, 507.0, 126.3)">s</text><text xml:space="preserve" font-family="Palatino-Roman,Palatino" font-size="52.0" fill="#000000" transform="matrix(1.00, 0.00, -0.00, -1.00, 529.0, 126.3)"> </text><text xml:space="preserve" font-family="Palatino-Roman,Palatino" font-size="52.0" fill="#000000" transform="matrix(1.00, 0.00, -0.00, -1.00, 542.0, 126.3)">a</text><text xml:space="preserve" font-family="Palatino-Roman,Palatino" font-size="52.0" fill="#000000" transform="matrix(1.00, 0.00, -0.00, -1.00, 568.0, 126.3)">n</text><text xml:space="preserve" font-family="Palatino-Roman,Palatino" font-size="52.0" fill="#000000" transform="matrix(1.00, 0.00, -0.00, -1.00, 598.3, 126.3)">d</text><text xml:space="preserve" font-family="Palatino-Roman,Palatino" font-size="52.0" fill="#000000" transform="matrix(1.00, 0.00, -0.00, -1.00, 630.0, 126.3)"> </text><text xml:space="preserve" font-family="Palatino-Roman,Palatino" font-size="52.0" fill="#000000" transform="matrix(1.00, 0.00, -0.00, -1.00, 643.0, 126.3)">c</text><text xml:space="preserve" font-family="Palatino-Roman,Palatino" font-size="52.0" fill="#000000" transform="matrix(1.00, 0.00, -0.00, -1.00, 666.1, 126.3)">l</text><text xml:space="preserve" font-family="Palatino-Roman,Palatino" font-size="52.0" fill="#000000" transform="matrix(1.00, 0.00, -0.00, -1.00, 681.3, 126.3)">u</text><text xml:space="preserve" font-family="Palatino-Roman,Palatino" font-size="52.0" fill="#000000" transform="matrix(1.00, 0.00, -0.00, -1.00, 712.6, 126.3)">s</text><text xml:space="preserve" font-family="Palatino-Roman,Palatino" font-size="52.0" fill="#000000" transform="matrix(1.00, 0.00, -0.00, -1.00, 734.6, 126.3)">t</text><text xml:space="preserve" font-family="Palatino-Roman,Palatino" font-size="52.0" fill="#000000" transform="matrix(1.00, 0.00, -0.00, -1.00, 751.6, 126.3)">e</text><text xml:space="preserve" font-family="Palatino-Roman,Palatino" font-size="52.0" fill="#000000" transform="matrix(1.00, 0.00, -0.00, -1.00, 776.5, 126.3)">r</text><text xml:space="preserve" font-family="Palatino-Roman,Palatino" font-size="52.0" fill="#000000" transform="matrix(1.00, 0.00, -0.00, -1.00, 797.1, 126.3)">s</text><text xml:space="preserve" font-family="Palatino-Roman,Palatino" font-size="52.0" fill="#000000" transform="matrix(1.00, 0.00, -0.00, -1.00, 819.1, 126.3)"> </text><text xml:space="preserve" font-family="Palatino-Roman,Palatino" font-size="52.0" fill="#000000" transform="matrix(1.00, 0.00, -0.00, -1.00, 832.1, 126.3)">(</text><text xml:space="preserve" font-family="Palatino-Roman,Palatino" font-size="52.0" fill="#000000" transform="matrix(1.00, 0.00, -0.00, -1.00, 849.4, 126.3)">c</text><text xml:space="preserve" font-family="Palatino-Roman,Palatino" font-size="52.0" fill="#000000" transform="matrix(1.00, 0.00, -0.00, -1.00, 872.5, 126.3)">u</text><text xml:space="preserve" font-family="Palatino-Roman,Palatino" font-size="52.0" fill="#000000" transform="matrix(1.00, 0.00, -0.00, -1.00, 903.8, 126.3)">i</text><text xml:space="preserve" font-family="Palatino-Roman,Palatino" font-size="52.0" fill="#000000" transform="matrix(1.00, 0.00, -0.00, -1.00, 919.0, 126.3)">s</text><text xml:space="preserve" font-family="Palatino-Roman,Palatino" font-size="52.0" fill="#000000" transform="matrix(1.00, 0.00, -0.00, -1.00, 941.0, 126.3)">i</text><text xml:space="preserve" font-family="Palatino-Roman,Palatino" font-size="52.0" fill="#000000" transform="matrix(1.00, 0.00, -0.00, -1.00, 956.1, 126.3)">n</text><text xml:space="preserve" font-family="Palatino-Roman,Palatino" font-size="52.0" fill="#000000" transform="matrix(1.00, 0.00, -0.00, -1.00, 986.4, 126.3)">e</text><text xml:space="preserve" font-family="Palatino-Roman,Palatino" font-size="52.0" fill="#000000" transform="matrix(1.00, 0.00, -0.00, -1.00, 1011.3, 126.3)"> </text><text xml:space="preserve" font-family="Palatino-Roman,Palatino" font-size="52.0" fill="#000000" transform="matrix(1.00, 0.00, -0.00, -1.00, 1024.3, 126.3)">t</text><text xml:space="preserve" font-family="Palatino-Roman,Palatino" font-size="52.0" fill="#000000" transform="matrix(1.00, 0.00, -0.00, -1.00, 1041.3, 126.3)">y</text><text xml:space="preserve" font-family="Palatino-Roman,Palatino" font-size="52.0" fill="#000000" transform="matrix(1.00, 0.00, -0.00, -1.00, 1070.2, 126.3)">p</text><text xml:space="preserve" font-family="Palatino-Roman,Palatino" font-size="52.0" fill="#000000" transform="matrix(1.00, 0.00, -0.00, -1.00, 1101.5, 126.3)">e</text><text xml:space="preserve" font-family="Palatino-Roman,Palatino" font-size="52.0" fill="#000000" transform="matrix(1.00, 0.00, -0.00, -1.00, 1126.4, 126.3)">s</text><text xml:space="preserve" font-family="Palatino-Roman,Palatino" font-size="52.0" fill="#000000" transform="matrix(1.00, 0.00, -0.00, -1.00, 1148.4, 126.3)">)</text><g><clipPath id="clip0x6000086bb840"><path d="M 527.0 731.0 L 905.0 731.0 L 905.0 587.0 L 527.0 587.0 Z M 527.4 730.9 "></path></clipPath><g clip-path="url(#clip0x6000086bb840)"><g><clipPath id="clip0x6000086bb6c0"><path d="M 803.7 566.3 C 799.3 566.7 797.9 567.2 797.7 568.5 C 797.5 569.5 798.0 570.2 798.8 570.2 C 799.6 570.2 801.6 571.5 803.2 573.2 C 805.8 575.7 806.0 576.3 804.9 577.5 C 803.9 578.5 802.9 578.6 801.1 577.8 C 799.0 577.0 798.5 577.2 798.0 578.7 C 797.7 579.8 797.7 581.0 798.0 581.5 C 798.8 582.9 809.2 582.7 810.6 581.4 C 812.2 579.8 812.0 574.4 810.3 573.0 C 808.7 571.7 809.4 569.8 811.4 570.6 C 812.3 570.9 812.7 570.3 812.7 568.3 C 812.7 566.1 812.3 565.5 811.0 565.6 C 810.1 565.7 806.8 566.0 803.7 566.3 M 721.0 576.0 L 721.0 585.0 L 726.8 585.0 C 731.4 585.0 733.0 585.0 733.4 583.9 C 734.3 581.6 734.3 581.6 730.8 581.6 C 729.1 581.6 727.4 581.3 727.1 580.9 C 726.0 579.9 728.5 577.8 730.8 577.8 C 732.4 577.8 733.1 577.2 733.1 575.9 C 733.1 574.5 732.4 574.0 730.9 574.0 C 728.0 574.0 726.4 572.3 726.4 569.0 C 726.4 566.7 726.1 566.0 723.6 566.0 L 721.0 566.0 L 721.0 576.0 M 742.1 567.5 C 738.9 569.4 737.9 571.4 737.9 575.9 C 737.9 582.3 741.1 585.4 747.9 585.3 C 753.2 585.3 754.6 584.2 753.1 581.1 C 752.2 579.0 751.5 578.6 749.7 579.1 C 748.2 579.5 746.7 579.0 745.2 577.8 C 743.1 576.1 743.1 575.9 744.7 574.3 C 745.6 573.4 747.7 572.6 749.3 572.6 C 753.0 572.5 754.9 570.1 753.0 567.9 C 751.6 566.1 744.9 565.9 742.1 567.5 M 759.0 576.0 L 759.0 585.0 L 761.5 585.0 L 764.0 585.0 L 764.0 575.9 L 764.0 566.0 L 761.5 566.0 L 759.0 566.0 L 759.0 576.0 M 770.0 576.0 L 770.0 585.0 L 776.7 585.0 C 782.5 585.0 783.7 585.1 785.7 583.0 C 787.6 581.2 788.0 579.7 788.0 575.9 C 788.0 572.0 787.6 570.6 785.7 568.7 C 783.7 566.7 782.5 566.0 776.7 566.0 L 770.0 566.0 L 770.0 576.0 M 817.6 568.6 C 814.7 571.7 814.8 577.7 817.7 580.4 C 820.8 583.3 826.8 583.3 829.6 580.3 C 832.5 577.2 832.4 571.2 829.5 568.5 C 826.4 565.6 820.4 565.6 817.6 568.6 M 837.5 568.6 C 834.6 571.7 834.7 577.7 837.6 580.4 C 840.7 583.3 846.7 583.3 849.5 580.3 C 852.4 577.2 852.3 571.2 849.4 568.5 C 846.3 565.6 840.3 565.6 837.5 568.6 M 854.4 567.1 C 854.4 568.5 855.9 570.0 857.6 570.3 C 860.2 570.8 860.7 573.0 858.4 573.6 C 857.2 574.0 856.3 575.2 855.9 577.0 C 854.9 582.2 855.1 582.5 859.4 582.5 C 864.9 582.5 866.2 581.5 865.5 577.9 C 865.2 576.3 865.3 574.7 865.8 574.4 C 867.1 573.6 867.0 568.9 865.6 567.5 C 864.4 566.3 854.4 565.9 854.4 567.1 M 886.8 568.6 C 883.9 571.7 884.0 577.7 886.9 580.4 C 890.0 583.3 896.0 583.3 898.8 580.3 C 901.7 577.2 901.6 571.2 898.7 568.5 C 895.6 565.6 889.6 565.6 886.8 568.6 M 904.8 567.5 C 903.4 568.9 903.4 572.7 904.7 573.6 C 905.5 574.0 905.5 574.5 904.7 575.2 C 903.4 576.6 903.4 580.0 904.8 581.4 C 905.5 582.0 907.9 582.5 910.3 582.5 C 912.7 582.5 915.2 582.0 915.8 581.4 C 917.3 580.0 917.3 576.6 915.9 575.2 C 915.2 574.5 915.2 574.0 915.9 573.6 C 917.3 572.7 917.3 568.9 915.8 567.5 C 915.2 566.9 912.7 566.4 910.3 566.4 C 907.9 566.4 905.5 566.9 904.8 567.5 M 871.6 574.6 C 871.9 575.9 873.0 576.4 876.5 576.6 C 880.5 576.9 881.1 576.7 880.8 575.2 C 880.5 573.9 879.4 573.4 875.9 573.2 C 871.9 573.0 871.3 573.1 871.6 574.6 M 794.1 589.2 C 793.6 590.1 794.0 590.3 797.1 590.5 C 798.6 590.5 799.1 591.5 799.6 595.3 C 799.9 597.9 800.2 602.4 800.3 605.3 C 800.4 610.0 800.0 610.9 797.2 614.1 C 795.3 616.1 793.1 617.6 791.8 617.6 C 787.8 617.6 782.1 615.3 781.6 613.6 C 781.3 612.3 780.7 612.0 779.2 612.5 C 778.0 612.9 775.6 613.0 773.8 612.8 C 772.0 612.6 767.3 612.4 763.4 612.4 C 754.9 612.5 750.4 614.5 738.4 623.9 C 734.6 627.0 735.4 629.5 741.5 633.7 C 744.3 635.6 747.1 638.2 747.8 639.4 C 749.1 641.9 754.6 644.1 760.6 644.5 C 762.9 644.6 764.7 645.0 764.5 645.4 C 757.4 661.1 759.0 668.6 770.4 672.1 C 772.1 672.6 772.1 672.8 769.7 675.3 C 767.4 677.6 767.3 678.1 768.6 678.6 C 771.2 679.6 774.1 679.3 777.0 677.8 C 780.2 676.1 782.1 676.8 780.3 679.0 C 779.2 680.2 779.3 680.4 780.5 680.0 C 781.2 679.7 782.3 678.3 782.8 676.8 C 784.5 672.0 784.9 671.7 789.7 672.2 C 793.4 672.6 794.8 672.3 797.5 670.5 C 800.3 668.6 801.1 667.3 802.2 662.6 C 803.4 657.7 803.4 656.3 802.1 651.5 C 801.3 648.4 801.0 645.7 801.5 645.4 C 803.1 644.5 809.8 650.8 809.8 653.2 C 809.8 655.1 810.5 655.7 812.7 656.1 C 815.2 656.6 816.2 657.8 818.9 663.2 C 822.5 670.3 822.9 672.7 820.8 674.4 C 820.1 675.0 819.7 676.2 820.0 676.9 C 821.1 679.8 822.9 677.9 825.6 671.0 C 827.2 667.0 828.9 663.6 829.3 663.4 C 829.8 663.3 831.4 664.1 832.8 665.3 L 835.4 667.4 L 829.8 678.5 C 823.0 691.7 822.0 696.2 824.8 700.0 L 826.8 702.7 L 824.3 704.4 C 820.2 707.0 816.3 711.6 816.0 714.2 C 815.6 717.6 816.5 720.9 817.7 720.6 C 818.3 720.5 819.0 721.4 819.1 722.6 C 819.5 725.2 820.1 725.2 822.8 722.7 C 824.6 721.0 825.2 720.8 826.4 721.8 C 827.2 722.5 827.9 722.7 827.9 722.3 C 827.9 721.8 828.3 721.9 828.9 722.5 C 830.3 723.9 834.5 721.9 834.5 719.8 C 834.5 719.0 835.1 717.8 835.9 717.1 C 838.6 714.9 836.9 709.3 832.7 706.1 C 831.6 705.3 832.1 704.7 835.2 702.9 C 837.3 701.7 839.6 699.6 840.2 698.3 C 842.7 693.1 845.1 686.2 845.8 682.0 C 846.9 676.5 850.4 663.2 851.6 660.4 C 852.5 658.3 852.5 658.3 855.1 660.1 C 856.5 661.1 859.0 662.6 860.5 663.6 C 862.8 665.0 863.0 665.4 861.8 666.3 C 855.5 671.0 854.1 672.9 853.4 677.1 C 852.6 682.0 853.8 684.7 854.8 680.5 C 856.9 672.1 862.9 666.7 873.4 663.7 C 880.2 661.8 886.1 657.5 888.5 652.7 C 890.6 648.5 891.1 639.6 889.4 636.4 C 888.6 634.8 889.2 633.8 894.1 629.1 C 900.4 623.0 901.4 620.3 900.7 611.4 C 899.7 600.3 892.6 594.8 879.0 594.8 C 872.2 594.8 870.2 595.2 865.3 597.5 C 855.7 602.1 852.9 605.5 852.0 615.2 L 852.0 618.0 L 844.9 618.0 L 838.0 618.0 L 837.0 608.9 C 836.7 603.8 836.6 599.4 836.2 599.1 C 835.4 598.3 815.8 594.0 808.1 593.0 C 799.4 591.8 798.1 590.0 805.1 588.8 C 806.4 588.6 804.6 588.4 801.1 588.4 C 797.5 588.4 794.4 588.8 794.1 589.2 M 632.2 593.4 C 631.9 594.2 631.1 594.8 630.5 594.9 C 629.8 594.9 627.2 598.5 624.6 602.9 C 622.1 607.4 619.3 611.4 618.5 611.8 C 617.5 612.4 616.1 611.9 613.8 610.2 L 610.5 607.7 L 608.5 610.2 C 607.4 611.6 604.7 615.2 602.5 618.3 C 599.3 622.8 598.1 623.8 596.1 623.7 C 594.7 623.6 593.2 623.0 592.8 622.3 C 592.2 621.4 590.4 621.3 585.5 621.8 C 580.2 622.3 578.1 623.1 574.0 625.9 C 571.2 627.8 568.5 630.1 568.0 631.1 C 567.3 632.3 565.9 632.7 562.9 632.7 C 559.6 632.7 558.6 633.1 558.6 634.3 C 558.6 636.5 550.4 644.1 547.9 644.2 C 541.0 644.5 541.2 644.4 540.5 648.4 C 540.1 650.5 539.8 654.2 539.7 656.7 C 539.7 660.6 539.3 661.4 537.3 662.3 C 536.1 662.9 534.6 664.6 534.0 666.2 C 532.6 670.3 532.8 680.6 534.4 684.4 C 535.5 687.2 536.3 687.7 538.6 687.7 C 542.1 687.7 543.7 690.2 542.9 694.1 C 542.5 695.9 543.0 697.9 544.2 700.1 C 545.2 701.9 546.6 705.5 547.3 708.1 C 547.9 710.7 548.8 713.3 549.3 713.8 C 549.7 714.3 550.1 716.9 550.1 719.7 C 550.1 722.4 550.3 724.7 550.6 724.7 C 550.9 724.7 552.4 724.1 553.9 723.3 C 556.8 721.8 558.1 722.5 557.0 725.3 C 556.5 726.6 556.7 726.8 558.2 726.2 C 563.6 724.1 574.6 720.9 576.5 720.9 C 577.7 720.9 579.4 720.5 580.3 720.0 C 581.2 719.6 584.7 719.1 588.1 718.9 C 591.4 718.8 596.2 718.1 598.7 717.3 C 602.1 716.3 607.7 716.1 620.8 716.3 C 636.3 716.6 638.6 716.9 639.6 718.3 C 641.2 720.5 641.9 720.4 642.2 717.8 C 642.4 716.3 643.2 715.7 644.9 715.6 C 646.2 715.5 648.5 715.0 649.9 714.4 C 651.4 713.8 653.7 713.0 655.1 713.0 L 657.6 713.0 L 654.5 710.4 C 651.4 707.6 651.4 707.5 653.0 705.7 C 654.7 703.8 654.7 703.8 657.2 706.2 C 659.4 708.3 660.2 708.5 662.2 707.7 C 663.8 707.1 665.7 707.2 668.0 707.9 C 670.9 708.7 671.7 708.6 673.3 707.2 C 674.4 706.2 675.2 705.0 675.2 704.5 C 675.2 704.0 675.9 702.7 676.8 701.8 C 681.2 696.9 683.2 691.7 682.0 687.8 C 681.4 686.0 681.2 684.2 681.5 683.8 C 682.4 682.3 686.6 683.0 687.8 684.9 C 688.8 686.5 690.0 687.0 696.7 687.0 L 704.5 687.0 L 707.3 691.7 C 708.9 694.4 710.0 697.0 709.7 697.4 C 709.5 697.8 707.4 698.2 705.2 698.2 C 701.5 698.2 701.2 698.3 701.3 700.8 C 701.4 702.2 701.9 704.5 702.5 706.0 C 703.5 708.4 704.0 708.6 709.2 708.6 C 715.3 708.6 718.2 710.4 721.1 715.9 C 722.7 719.0 722.3 720.0 719.6 720.0 C 718.2 720.0 718.0 720.4 718.5 722.6 C 720.6 731.5 723.3 731.9 727.2 724.0 C 729.9 718.8 729.8 717.6 726.4 715.1 C 724.9 713.9 723.6 712.5 723.6 711.8 C 723.6 711.2 722.9 710.2 722.2 709.5 C 720.0 707.7 720.3 701.3 722.6 699.8 C 725.2 698.2 725.0 697.0 721.7 695.1 C 720.1 694.2 718.8 692.7 718.8 691.7 C 718.8 690.7 717.8 689.4 716.5 688.9 C 714.4 687.9 714.1 687.2 714.1 683.0 C 714.1 680.4 714.1 677.9 714.1 677.5 C 714.1 677.2 715.3 676.7 716.7 676.6 C 718.1 676.5 720.0 676.3 720.7 676.2 C 721.5 676.1 722.9 676.4 723.7 676.7 C 726.9 678.1 728.0 675.1 728.6 663.4 C 728.9 657.2 728.8 651.9 728.5 651.5 C 727.8 650.8 725.5 650.7 716.7 650.7 C 715.5 650.7 713.5 650.7 712.2 650.7 C 709.5 650.7 706.0 646.8 705.2 643.0 C 704.9 641.6 703.6 639.5 702.3 638.3 C 697.1 633.3 696.4 624.8 700.8 618.7 C 702.4 616.5 703.4 614.7 703.1 614.7 C 702.8 614.7 702.9 614.2 703.5 613.6 C 704.8 611.9 706.7 604.5 706.7 600.7 C 706.7 596.0 705.1 594.9 702.4 597.9 C 698.8 601.8 694.2 609.9 694.2 612.4 C 694.2 613.7 693.0 616.1 691.4 617.8 C 688.8 620.8 688.6 620.8 686.9 619.2 C 684.6 617.2 682.5 617.1 680.9 619.1 C 679.8 620.3 678.6 620.5 674.3 619.9 C 667.1 619.1 665.4 617.2 668.0 613.1 C 668.4 612.4 668.6 611.9 668.4 611.8 C 664.9 611.1 661.4 611.2 660.3 612.1 C 659.6 612.7 657.0 613.3 654.5 613.4 C 650.7 613.5 649.4 613.1 645.3 609.9 C 642.6 607.9 640.0 606.2 639.3 606.2 C 637.5 606.2 636.2 601.3 636.8 596.5 C 637.4 592.2 637.3 592.0 635.1 592.0 C 633.8 592.0 632.5 592.6 632.2 593.4 "></path></clipPath><g clip-path="url(#clip0x6000086bb6c0)"><image xlink:href="../../75CEBC7F-68E9-4AEB-A9BE-FC7FD6F9E6B2/assets/79E65AD29F8E4B15454F8266CF638748.png" width="439.00" height="213.00" transform="matrix(0.95, 0.00, -0.00, -0.95, 517.9, 751.2)"></image></g></g></g></g><image xlink:href="../../75CEBC7F-68E9-4AEB-A9BE-FC7FD6F9E6B2/assets/9555B0C630ADC642AC6C1A8D5142D8C7.png" width="150.00" height="148.00" transform="matrix(1.11, 0.00, -0.00, -1.11, 1459.6, 465.1)"></image><g><clipPath id="clip0x6180016bd2e0"><path d="M 1232.9 66.3 L 1311.7 66.3 L 1311.7 145.1 L 1232.9 145.1 Z M 1232.9 66.3 "></path></clipPath><g clip-path="url(#clip0x6180016bd2e0)"><image xlink:href="../../75CEBC7F-68E9-4AEB-A9BE-FC7FD6F9E6B2/assets/45E67DA5B2F5C219FE1A770324A6B9F2.png" width="48.00" height="48.00" transform="matrix(1.64, 0.00, -0.00, -1.64, 1232.9, 145.1)"></image></g></g><g><clipPath id="clip0x6180016a82e0"><path d="M 1309.6 53.3 L 1615.1 53.3 L 1615.1 156.8 L 1309.6 156.8 Z M 1309.6 53.3 "></path></clipPath><g clip-path="url(#clip0x6180016a82e0)"><text xml:space="preserve" font-family="Helvetica,Helvetica" font-size="61.0" fill="#676767" transform="matrix(1.00, 0.00, -0.00, -1.00, 1331.8, 82.6)">w</text><text xml:space="preserve" font-family="Helvetica,Helvetica" font-size="61.0" fill="#676767" transform="matrix(1.00, 0.00, -0.00, -1.00, 1375.9, 82.6)">o</text><text xml:space="preserve" font-family="Helvetica,Helvetica" font-size="61.0" fill="#676767" transform="matrix(1.00, 0.00, -0.00, -1.00, 1409.8, 82.6)">r</text><text xml:space="preserve" font-family="Helvetica,Helvetica" font-size="61.0" fill="#676767" transform="matrix(1.00, 0.00, -0.00, -1.00, 1430.1, 82.6)">d</text><text xml:space="preserve" font-family="Helvetica,Helvetica" font-size="61.0" fill="#676767" transform="matrix(1.00, 0.00, -0.00, -1.00, 1464.1, 82.6)">2</text><text xml:space="preserve" font-family="Helvetica,Helvetica" font-size="61.0" fill="#676767" transform="matrix(1.00, 0.00, -0.00, -1.00, 1498.0, 82.6)">v</text><text xml:space="preserve" font-family="Helvetica,Helvetica" font-size="61.0" fill="#676767" transform="matrix(1.00, 0.00, -0.00, -1.00, 1528.5, 82.6)">e</text><text xml:space="preserve" font-family="Helvetica,Helvetica" font-size="61.0" fill="#676767" transform="matrix(1.00, 0.00, -0.00, -1.00, 1562.4, 82.6)">c</text></g></g></g></svg>