<?xml version="1.0" encoding="UTF-8" standalone="no"?><svg xmlns="http://www.w3.org/2000/svg" xmlns:xlink="http://www.w3.org/1999/xlink" clip-rule="evenodd" stroke-miterlimit="10" viewBox="0 0 1920 1080"><desc>SVG generated by Keynote</desc><defs><linearGradient id="gradSh1.4" x1="0.0" y1="0.0" x2="100.0" y2="0.0" gradientUnits="userSpaceOnUse" gradientTransform="matrix(0.00, -0.55, -1.66, 0.00, 1775.6, 77.2)"><stop offset="0.00000" stop-color="#F0D3FD"></stop><stop offset="0.00660" stop-color="#F0D2FD"></stop><stop offset="1.00000" stop-color="#D480FC"></stop></linearGradient></defs><g transform="matrix(1.00, 0.00, -0.00, -1.00, 0.0, 1080.0)"><g><clipPath id="clip0x6080080bc200"><path d="M 0.0 1080.0 L 1920.0 1080.0 L 1920.0 0.0 L 0.0 0.0 Z M 0.0 1080.0 "></path></clipPath><g clip-path="url(#clip0x6080080bc200)"><image xlink:href="../../CABF5236-1324-4602-9291-A4670FFDE0C7/assets/1783979FC7716684DCC3F94F50982FFC.jpeg" width="2048.00" height="1536.00" transform="matrix(0.94, 0.00, -0.00, -0.70, 0.0, 1080.0)"></image></g></g><image xlink:href="../../809B781D-5AAB-483E-B6DF-8F51B3E57859/assets/4F9401E4514D3D1D0861D33AA1E15EA9.jpeg" width="1322.00" height="1032.00" transform="matrix(1.00, 0.00, -0.00, -1.00, 299.0, 1056.0)"></image><g><clipPath id="clip0x60000f0baa60"><path d="M 1787.5 42.5 L 1787.5 22.9 L 1857.7 49.5 L 1787.5 76.2 L 1787.5 56.5 L 1693.5 56.5 L 1693.5 42.5 Z M 1787.5 42.1 "></path></clipPath><g clip-path="url(#clip0x60000f0baa60)"><g><clipPath id="clip0x60000f4bb060"><path d="M 1692.2 21.2 L 1860.1 21.2 L 1860.1 77.9 L 1692.2 77.9 Z M 1692.2 21.2 "></path></clipPath><g clip-path="url(#clip0x60000f4bb060)"><path d="M 1692.2 21.2 L 1860.1 21.2 L 1860.1 77.9 L 1692.2 77.9 Z M 1692.2 21.2 " fill="url(#gradSh1.4)"></path></g></g></g></g><g><clipPath id="clip0x60000f6bb360"><path d="M 1692.2 21.2 L 1860.1 21.2 L 1860.1 77.9 L 1692.2 77.9 Z M 1692.2 21.2 "></path></clipPath><g clip-path="url(#clip0x60000f6bb360)"><path d="M 93.8 33.7 L 93.8 53.3 L 163.9 26.6 L 93.8 0.0 L 93.8 19.7 L -0.2 19.7 L -0.2 33.7 Z M 93.8 34.1 " fill="none" stroke="#D37BFC" stroke-width="1.00" transform="matrix(1.00, 0.00, 0.00, -1.00, 1693.7, 76.2)"></path></g></g><g><clipPath id="clip0x60000f6bb5a0"><path d="M 1659.6 66.3 L 2098.2 66.3 L 2098.2 201.4 L 1659.6 201.4 Z M 1659.6 66.3 "></path></clipPath><g clip-path="url(#clip0x60000f6bb5a0)"><text xml:space="preserve" font-family="Palatino-Roman,Palatino" font-size="42.0" fill="#324763" transform="matrix(1.00, 0.00, -0.00, -1.00, 1676.9, 145.5)">I</text><text xml:space="preserve" font-family="Palatino-Roman,Palatino" font-size="42.0" fill="#324763" transform="matrix(1.00, 0.00, -0.00, -1.00, 1691.1, 145.5)">n</text><text xml:space="preserve" font-family="Palatino-Roman,Palatino" font-size="42.0" fill="#324763" transform="matrix(1.00, 0.00, -0.00, -1.00, 1715.5, 145.5)">t</text><text xml:space="preserve" font-family="Palatino-Roman,Palatino" font-size="42.0" fill="#324763" transform="matrix(1.00, 0.00, -0.00, -1.00, 1729.2, 145.5)">e</text><text xml:space="preserve" font-family="Palatino-Roman,Palatino" font-size="42.0" fill="#324763" transform="matrix(1.00, 0.00, -0.00, -1.00, 1749.4, 145.5)">r</text><text xml:space="preserve" font-family="Palatino-Roman,Palatino" font-size="42.0" fill="#324763" transform="matrix(1.00, 0.00, -0.00, -1.00, 1765.9, 145.5)">a</text><text xml:space="preserve" font-family="Palatino-Roman,Palatino" font-size="42.0" fill="#324763" transform="matrix(1.00, 0.00, -0.00, -1.00, 1786.9, 145.5)">c</text><text xml:space="preserve" font-family="Palatino-Roman,Palatino" font-size="42.0" fill="#324763" transform="matrix(1.00, 0.00, -0.00, -1.00, 1805.6, 145.5)">t</text><text xml:space="preserve" font-family="Palatino-Roman,Palatino" font-size="42.0" fill="#324763" transform="matrix(1.00, 0.00, -0.00, -1.00, 1819.3, 145.5)">i</text><text xml:space="preserve" font-family="Palatino-Roman,Palatino" font-size="42.0" fill="#324763" transform="matrix(1.00, 0.00, -0.00, -1.00, 1831.5, 145.5)">v</text><text xml:space="preserve" font-family="Palatino-Roman,Palatino" font-size="42.0" fill="#324763" transform="matrix(1.00, 0.00, -0.00, -1.00, 1855.2, 145.5)">e</text><text xml:space="preserve" font-family="Palatino-Roman,Palatino" font-size="42.0" fill="#324763" transform="matrix(1.00, 0.00, -0.00, -1.00, 1733.2, 89.5)">M</text><text xml:space="preserve" font-family="Palatino-Roman,Palatino" font-size="42.0" fill="#324763" transform="matrix(1.00, 0.00, -0.00, -1.00, 1772.9, 89.5)">a</text><text xml:space="preserve" font-family="Palatino-Roman,Palatino" font-size="42.0" fill="#324763" transform="matrix(1.00, 0.00, -0.00, -1.00, 1793.9, 89.5)">p</text></g></g></g></svg>